<svg xmlns="http://www.w3.org/2000/svg" viewBox="0 0 524.74 547.04"><defs><style>.cls-1{fill:#f5f5f5;}</style></defs><title>compass-rose-1</title><g id="Capa_2" data-name="Capa 2"><g id="Layer_3" data-name="Layer 3"><path class="cls-1" d="M401.19,289a135.3,135.3,0,0,1-26.34,68.71l-14.28-21.59a111.33,111.33,0,0,0,15.8-42l-9,1.83,10.35-21.46c0-1,0-1.91-.08-2.86l-10.27-21.3,7.65,1.56a111.4,111.4,0,0,0-16.69-38.4l14.1-21.32A135.33,135.33,0,0,1,400.37,257l78.78,16.08ZM206,181.8a111.53,111.53,0,0,1,43-16l-2,9.74,22.66-10.93h.32l22.65,10.92-1.67-8.15a111.5,111.5,0,0,1,38.65,17.09l21.26-14.06A135.38,135.38,0,0,0,285.73,142l-16-78.24L254,141a135.35,135.35,0,0,0-69.61,26.53ZM334.41,365a111.48,111.48,0,0,1-45,21l3.12-15.26-22.82,11-22.81-11,3.41,16.71a111.49,111.49,0,0,1-49.49-19.64l-21.18,14a135.44,135.44,0,0,0,75.71,30.3l14.36,70.4,14.55-71.26a135.43,135.43,0,0,0,71-32.42ZM163.56,186.8a135.34,135.34,0,0,0-32.63,71.92l-70.55,14.4,69.82,14.25A135.39,135.39,0,0,0,161,363.27l14-21.14a111.37,111.37,0,0,1-20.09-49.72l17.24,3.52-11-22.81,11-22.81-16,3.27a111.56,111.56,0,0,1,21.25-45.87ZM251.82,43.08h7.08V14.88l17.64,28.2h6v-42h-7.08V30.3L257.64,1.62A3.43,3.43,0,0,0,254.52,0a4.1,4.1,0,0,0-2.46.78,4,4,0,0,0-1.5,2.16,6,6,0,0,0-.12.72,2.11,2.11,0,0,0,.6,1.26,4.16,4.16,0,0,1,.57.84,2.42,2.42,0,0,1,.21,1.08ZM267,547q6.84,0,10.74-2.88a9.42,9.42,0,0,0,3.9-8,11.36,11.36,0,0,0-1.26-5.61,11.61,11.61,0,0,0-4.05-4,45.47,45.47,0,0,0-7.77-3.69,57.76,57.76,0,0,1-5.94-2.58,8.51,8.51,0,0,1-2.94-2.31,4.89,4.89,0,0,1-.9-3,4.51,4.51,0,0,1,1.89-4,9.43,9.43,0,0,1,5.43-1.32,15.93,15.93,0,0,1,5.7.9,17.82,17.82,0,0,1,4.92,3.06l3.72-4.74a20.9,20.9,0,0,0-6.51-3.69,22.94,22.94,0,0,0-7.83-1.35q-6.6,0-10.56,2.94a9.65,9.65,0,0,0-4,8.22,10.46,10.46,0,0,0,3.09,7.71q3.09,3.09,10.05,5.61A44.7,44.7,0,0,1,270.9,531a7.91,7.91,0,0,1,2.79,2.28,5.14,5.14,0,0,1,.75,2.88,4.35,4.35,0,0,1-1.89,3.75,9.26,9.26,0,0,1-5.43,1.35,17.73,17.73,0,0,1-6.78-1.23,15.91,15.91,0,0,1-5.64-4.11l-4.26,4.26a19.86,19.86,0,0,0,7.17,5.07A23.68,23.68,0,0,0,267,547ZM498.52,291h26.22V284.9H505.6v-13h13.56v-5.88H505.6V255.14h18.6V249H502.54a3.11,3.11,0,0,0-2.16-1.08,2.88,2.88,0,0,0-2.13,1.08,6.49,6.49,0,0,0-1.41,2.34.9.9,0,0,0,0,.75,4.53,4.53,0,0,0,.51.69,4.81,4.81,0,0,1,.87,1.17,4,4,0,0,1,.33,1.83Zm-480.34.6A17.57,17.57,0,0,0,28,289a16.79,16.79,0,0,0,6.21-7.53,31.57,31.57,0,0,0,0-22.8A16.79,16.79,0,0,0,28,251.09a17.57,17.57,0,0,0-9.84-2.67,17.61,17.61,0,0,0-9.81,2.67,16.72,16.72,0,0,0-6.24,7.53,31.57,31.57,0,0,0,0,22.8A16.72,16.72,0,0,0,8.37,289,17.61,17.61,0,0,0,18.18,291.62Zm0-5.82A9.21,9.21,0,0,1,10,281.6Q7.2,277.4,7.2,270T10,258.44a9.21,9.21,0,0,1,8.19-4.2,9.19,9.19,0,0,1,8.22,4.2q2.76,4.2,2.76,11.58T26.4,281.6A9.19,9.19,0,0,1,18.18,285.8Z"/></g></g></svg>