<?xml version="1.0" encoding="utf-8"?>
<!-- Generator: Adobe Illustrator 24.0.2, SVG Export Plug-In . SVG Version: 6.00 Build 0)  -->
<svg version="1.1" id="Capa_1" xmlns="http://www.w3.org/2000/svg" xmlns:xlink="http://www.w3.org/1999/xlink" x="0px" y="0px"
	 viewBox="0 0 763.2 763.2" style="enable-background:new 0 0 763.2 763.2;" xml:space="preserve">
<style type="text/css">
	.st0{fill:#f5f5f5;}
</style>
<g>
	<path class="st0" d="M0,368.6c1.7-8.4,3-17,5.2-25.3c17.4-64.9,72-109.9,140.3-116c1.9-0.2,3.8-0.4,3.9-0.4
		c1.9-19.7,2.2-38.9,5.8-57.5C170.3,91.3,241,26.2,319.6,16.8c95.4-11.4,176.9,37.8,211.9,128c1.6,4.2,3.5,5.1,7.6,4.5
		c100.5-15.1,195,51.2,218.8,148.6c26.9,110.7-50.4,224.6-163.4,239.3c-11.3,1.5-22.8,2.2-34.1,2.2c-62.6,0.2-125.2,0.2-187.7,0
		c-5.9,0-9.3,1.9-12.5,6.8c-39.6,59.2-79.5,118.2-119.3,177.3c-7.6,11.3-16.7,15.5-27.6,13c-12.5-2.9-20.3-13.7-19.1-27.2
		c2-21,4.3-42,6.5-63c1.5-14.5,2.9-29,4.4-44.6c-3.6,0-6.2,0-8.9,0c-19.1,0-38.2,0.2-57.4-0.1c-17.8-0.2-27.7-11.8-26-29.6
		c1.2-12.3,2.1-24.7,3.2-37.5c-5.2-1.8-10.4-3.4-15.4-5.5c-56.7-23.6-90-65.6-99.3-126.5c-0.2-1.4-0.8-2.8-1.3-4.2
		C0,388.5,0,378.6,0,368.6z M299,471.1c3.9,0,6.6,0,9.3,0c18.4,0,36.8,0.1,55.1,0c11.1,0,18.7,5,23.9,14.7c1.2,2.1,4.7,4.2,7.1,4.2
		c57.6,0.2,115.2,0.9,172.8,0c93.9-1.5,160.8-83.7,143.6-175.4C695.4,231.4,609.8,179,526.7,201.9c-20.1,5.5-31.9-1.5-36.2-21.4
		c-14.1-65.1-69.8-113.1-134.8-116.1c-69.1-3.2-128.9,38.5-149.3,103.4c-8.6,27.2-6.7,54.3-1.7,81.7c3.1,16.8-10.1,30.5-27,28.8
		c-5.2-0.5-10.3-1.6-15.5-1.8c-45.3-2.4-87.1,23.9-104.7,65.7c-17.5,41.6-6.7,90,27.1,120.5c10.3,9.3,21.9,16.6,35.8,21
		c2.6-28,4.9-55.2,7.6-82.4c1.5-14.7,12.7-23.7,27.1-22.5c13.3,1.2,23,13.2,21.8,27.2c-3.6,41-7.4,82.1-11,123.1
		c-0.7,7.5-1.1,15.1-1.7,23.1c3.7,0,6.4,0,9.1,0c19.1,0,38.2-0.2,57.4,0.1c17.2,0.2,27,11.2,26,28.2c-0.2,4-0.8,7.9-1.1,11.9
		c-0.7,7.2-1.4,14.4-2,21.7c0.5,0.1,0.9,0.3,1.4,0.4c20.9-31.1,41.8-62.1,63.5-94.3c-17.7,0-33.5,0.3-49.4-0.1
		c-18.1-0.4-28.8-14.2-24.6-31.7c6.8-28.7,14-57.3,21-86c2-8.3,6.9-14.3,14.8-17.4c9.1-3.5,17.7-2.2,25.1,4.1
		c8.2,7,10.1,16.2,7.6,26.4C308.3,433.6,303.8,451.6,299,471.1z"/>
	<path class="st0" d="M507.4,746.1c-18.8-0.2-30.8-20.5-20.8-36.7c9.7-15.8,20.4-31.1,31.3-46.1c7.5-10.3,22.1-12.2,32.7-5.2
		c10.5,7,14.7,21.3,7.9,32.1c-10.1,16.1-21.1,31.8-32.1,47.3C521.8,743.7,515,746.2,507.4,746.1z"/>
	<path class="st0" d="M368.9,746.1c-18.5-0.2-30.8-20.1-21.2-36c9.8-16.3,20.8-31.9,32.1-47.3c7.4-10,21.8-11.5,32.1-4.7
		c10.3,6.9,14.7,20.7,8.2,31.4c-10.3,16.6-21.2,32.9-33.1,48.4c-3.7,4.9-11.3,6.8-17.1,10.1C369.7,747.4,369.3,746.7,368.9,746.1z"
		/>
	<path class="st0" d="M438.3,640c-18.6-0.1-30.5-19.9-21.3-36.1c5.2-9.3,11.3-18.1,17.7-26.6c7.7-10.3,22.2-12.3,32.7-5.3
		c10.6,7,14.5,20.9,8,32.1c-5.5,9.4-11.7,18.4-18.2,27.2C452.6,637.4,445.9,640.1,438.3,640z"/>
	<path class="st0" d="M576.9,640c-18.2,0-30.6-19.2-21.9-35.3c5.3-9.8,11.7-19,18.5-27.9c7.8-10.2,22.4-11.8,32.8-4.6
		c10.2,7.1,13.9,20.7,7.6,31.6c-5.5,9.4-11.7,18.4-18.1,27.2C591.2,637.2,584.6,640,576.9,640z"/>
</g>
</svg>
