<?xml version="1.0" encoding="utf-8"?>
<!-- Generator: Adobe Illustrator 24.0.2, SVG Export Plug-In . SVG Version: 6.00 Build 0)  -->
<svg version="1.1" id="Capa_1" xmlns="http://www.w3.org/2000/svg" xmlns:xlink="http://www.w3.org/1999/xlink" x="0px" y="0px"
	 viewBox="0 0 247.5 247.5" style="enable-background:new 0 0 247.5 247.5;" xml:space="preserve">
<style type="text/css">
	.st0{fill:#F5F5F5;fill-opacity:0.4;}
</style>
<title>compass-rose-2</title>
<g id="Capa_2_1_">
	<g id="Layer_3">
		<path class="st0" d="M223.7,123.8c0-21.1-6.7-41.7-19.1-58.8l43-65l-65,43C147.5,17.5,100,17.5,65,43L0,0l43,65
			c-25.5,35-25.5,82.5,0,117.5l-43,65l65-43c35,25.5,82.5,25.5,117.5,0l65,43l-43-65C217,165.5,223.7,144.9,223.7,123.8z M177.2,201
			c-32.1,22.2-74.7,22.2-106.8,0c-9.3-6.5-17.4-14.5-23.8-23.9c-22.2-32.1-22.2-74.7,0-106.8C53,61,61,53,70.4,46.5
			c32.1-22.2,74.7-22.2,106.8,0C186.5,53,194.6,61,201,70.4c22.2,32.1,22.2,74.7,0,106.8C194.5,186.5,186.5,194.5,177.2,201z"/>
	</g>
</g>
</svg>
