<?xml version="1.0" encoding="utf-8"?>
<!-- Generator: Adobe Illustrator 24.0.2, SVG Export Plug-In . SVG Version: 6.00 Build 0)  -->
<svg version="1.1" id="Capa_1" xmlns="http://www.w3.org/2000/svg" xmlns:xlink="http://www.w3.org/1999/xlink" x="0px" y="0px"
	 viewBox="0 0 524.7 547" style="enable-background:new 0 0 524.7 547;" xml:space="preserve">
<style type="text/css">
	.st0{fill:#F5F5F5;}
</style>
<title>compass-rose-1</title>
<g id="Capa_2_1_">
	<g id="Layer_3">
		<path class="st0" d="M401.2,289c-2.3,24.9-11.4,48.7-26.3,68.7l-14.3-21.6c8.1-12.8,13.4-27.1,15.8-42l-9,1.8l10.4-21.5
			c0-1,0-1.9-0.1-2.9l-10.3-21.3l7.6,1.6c-3.1-13.7-8.7-26.8-16.7-38.4l14.1-21.3c14.9,18.8,24.5,41.1,27.9,64.8l78.8,16.1
			L401.2,289z M206,181.8c13.1-8.3,27.7-13.7,43-16l-2,9.7l22.7-10.9h0.3l22.6,10.9l-1.7-8.1c13.9,3.2,27,9,38.6,17.1l21.3-14.1
			c-18.8-15.1-41.3-24.9-65.1-28.4l-16-78.2L254,141c-25.2,2.2-49.3,11.3-69.6,26.5L206,181.8z M334.4,365
			c-13.2,10.3-28.6,17.5-45,21l3.1-15.3l-22.8,11l-22.8-11l3.4,16.7c-17.8-2.5-34.8-9.2-49.5-19.6l-21.2,14
			c21.5,17.6,48,28.2,75.7,30.3l14.4,70.4l14.5-71.3c26.3-3.6,51-14.9,71-32.4L334.4,365z M163.6,186.8
			C145.8,207,134.5,232,131,258.7l-70.6,14.4l69.8,14.3c2.2,27.9,12.9,54.4,30.8,75.9l14-21.1c-10.6-14.7-17.5-31.8-20.1-49.7
			l17.2,3.5l-11-22.8l11-22.8l-16,3.3c3.5-16.7,10.8-32.4,21.3-45.9L163.6,186.8z M251.8,43.1h7.1V14.9l17.6,28.2h6v-42h-7.1v29.2
			L257.6,1.6c-0.7-1.1-1.9-1.7-3.1-1.6c-0.9,0-1.7,0.3-2.5,0.8c-0.7,0.5-1.3,1.3-1.5,2.2c-0.1,0.2-0.1,0.5-0.1,0.7
			c0.1,0.5,0.3,0.9,0.6,1.3c0.2,0.3,0.4,0.5,0.6,0.8c0.2,0.3,0.2,0.7,0.2,1.1V43.1z M267,547c4.6,0,8.1-1,10.7-2.9
			c2.6-1.8,4-4.8,3.9-8c0.1-1.9-0.4-3.9-1.3-5.6c-1-1.6-2.4-3-4-4c-2.5-1.5-5.1-2.7-7.8-3.7c-2-0.7-4-1.6-5.9-2.6
			c-1.1-0.5-2.1-1.3-2.9-2.3c-0.6-0.9-0.9-1.9-0.9-3c-0.1-1.6,0.6-3.1,1.9-4c1.6-1,3.5-1.4,5.4-1.3c1.9,0,3.9,0.3,5.7,0.9
			c1.8,0.7,3.5,1.8,4.9,3.1l3.7-4.7c-1.9-1.6-4.1-2.9-6.5-3.7c-2.5-0.9-5.2-1.4-7.8-1.4c-4.4,0-7.9,1-10.6,2.9c-2.6,1.9-4.1,5-4,8.2
			c-0.1,2.9,1,5.7,3.1,7.7c2.1,2.1,5.4,3.9,10,5.6c2.1,0.8,4.2,1.7,6.2,2.7c1.1,0.5,2,1.3,2.8,2.3c0.5,0.9,0.8,1.9,0.8,2.9
			c0.1,1.5-0.7,2.9-1.9,3.8c-1.6,1-3.5,1.5-5.4,1.3c-2.3,0-4.6-0.4-6.8-1.2c-2.2-0.9-4.1-2.3-5.6-4.1l-4.3,4.3
			c2,2.2,4.4,3.9,7.2,5.1C260.6,546.5,263.8,547.1,267,547z M498.5,291h26.2v-6.1h-19.1v-13h13.6V266h-13.6v-10.9h18.6V249h-21.7
			c-0.5-0.6-1.3-1-2.2-1.1c-0.8,0-1.6,0.4-2.1,1.1c-0.6,0.7-1.1,1.5-1.4,2.3c-0.1,0.2-0.1,0.5,0,0.8c0.1,0.2,0.3,0.5,0.5,0.7
			c0.3,0.3,0.6,0.7,0.9,1.2c0.3,0.6,0.4,1.2,0.3,1.8L498.5,291z M18.2,291.6c3.5,0.1,6.9-0.8,9.8-2.6c2.8-1.8,4.9-4.5,6.2-7.5
			c2.8-7.3,2.8-15.5,0-22.8c-1.3-3.1-3.4-5.7-6.2-7.6c-2.9-1.8-6.4-2.8-9.8-2.7c-3.5-0.1-6.9,0.8-9.8,2.7c-2.8,1.8-5,4.5-6.2,7.5
			c-2.8,7.3-2.8,15.5,0,22.8c1.3,3.1,3.5,5.7,6.3,7.6C11.3,290.8,14.7,291.7,18.2,291.6L18.2,291.6z M18.2,285.8
			c-3.3,0.2-6.4-1.4-8.2-4.2c-1.9-2.8-2.8-6.7-2.8-11.6s0.9-8.8,2.8-11.6c1.8-2.8,4.9-4.4,8.2-4.2c3.3-0.2,6.4,1.4,8.2,4.2
			c1.8,2.8,2.8,6.7,2.8,11.6s-0.9,8.8-2.8,11.6C24.6,284.4,21.5,286,18.2,285.8L18.2,285.8z"/>
	</g>
</g>
</svg>
