<?xml version="1.0" encoding="utf-8"?>
<!-- Generator: Adobe Illustrator 24.0.2, SVG Export Plug-In . SVG Version: 6.00 Build 0)  -->
<svg version="1.1" id="Bold" xmlns="http://www.w3.org/2000/svg" xmlns:xlink="http://www.w3.org/1999/xlink" x="0px" y="0px"
	 viewBox="0 0 1442.9 1442.9" style="enable-background:new 0 0 1442.9 1442.9;" xml:space="preserve">
<g>
	<path d="M1068.3,0c54.8,22.3,50.7,73.2,15.1,108.3c-202.1,199-611.9,607.2-619,616.8c4.9,2.8,420.4,413,623.4,615
		c18.4,18.3,28.7,38.3,20.3,64.3c-12,37-56.6,50.4-87.1,26.3c-4-3.2-7.7-6.8-11.4-10.5c-218.2-217.5-436.4-434.9-654.1-652.8
		c-10.1-10.1-17.9-24.2-22-37.9c-4.9-16.3,1.4-32.4,13.1-45.5c3.7-4.2,7.8-8.2,11.7-12.1C572.8,458.1,787.2,244.2,1002,30.7
		c12-11.9,27.2-20.5,40.9-30.7C1051.4,0,1059.9,0,1068.3,0z"/>
</g>
</svg>
