<?xml version="1.0" encoding="utf-8"?>
<!-- Generator: Adobe Illustrator 24.0.2, SVG Export Plug-In . SVG Version: 6.00 Build 0)  -->
<svg version="1.1" id="Bold" xmlns="http://www.w3.org/2000/svg" xmlns:xlink="http://www.w3.org/1999/xlink" x="0px" y="0px"
	 viewBox="0 0 1442.9 1442.9" style="enable-background:new 0 0 1442.9 1442.9;" xml:space="preserve">
<path d="M888.6,600.7c0,80.9,0,160.5,0,241.3c-111.1,0-218.9,0-328.2,0c-8.4-80.1-8.2-160-0.1-241.3
	C668.5,600.7,776.3,600.7,888.6,600.7z M862.2,457.1c-16.4-65.5-36.6-129.7-78.4-184.2c-41.2-53.8-80.1-53.6-121.7-0.1
	c-28.9,37.1-47.4,79.6-61.1,124c-11.3,36.5-19.9,73.7-30.2,112.3c102.7,0,201.5,0,302.5,0C869.6,491,866.4,473.9,862.2,457.1z
	 M587.6,1000.5c16.3,60.8,36.3,120.3,75.7,170.8c40.6,51.9,78.8,51.8,119.6,0.1c29.5-37.4,48.2-80.4,62.1-125.4
	c11.3-36.4,19.9-73.7,30.2-112.3c-102.7,0-201.5,0-302.8,0C577.6,956.8,581.8,978.8,587.6,1000.5z M460.7,599.6
	c-66.7-0.1-133.4,0.1-200.2-0.3c-9.5-0.1-12.2,3.8-14.1,12.3c-16.6,72.3-16.4,144.4-0.8,216.8c2.5,11.8,7.1,15.2,19,15
	c62.8-0.6,125.5-0.3,188.3-0.3c4.9,0,9.8-0.6,13.7-0.8c0-80.9,0-160.4,0-241.9C465,600.3,462.9,599.6,460.7,599.6z M1188,842.7
	c3.9,0,10-7.5,11.2-12.5c17.3-72.1,16.8-144.3,0.9-216.7c-2.5-11.2-6.8-14.3-17.9-14.2c-63.9,0.5-127.8,0.2-191.7,0.3
	c-4.3,0-8.5,0.9-11.3,1.2c0,81.1,0,160.7,0,242.5C1049.1,843.2,1118.6,843.4,1188,842.7z M1163.7,508.9
	c-61-120.1-152.5-201.6-280.6-250.1c44.4,80.9,66.4,164.4,81.9,250.1C1031,508.9,1095.7,508.9,1163.7,508.9z M883.3,1184
	c128-48.6,219.6-130.1,280.4-250.4c-68,0-132.2,0-198.7,0C949.6,1020,927.2,1103.4,883.3,1184z M282.2,509.1c68.8,0,133.2,0,196.9,0
	c10.6-42.5,19-84.7,32-125.4c13.1-41.3,30.7-81.1,46.9-123.1C434.4,307.6,343.1,389.2,282.2,509.1z M560.4,1179
	c-42.3-76.8-63.8-160.2-79.5-245.5c-66,0-130.4,0-196.3,0C315.8,1028.7,482.6,1176.7,560.4,1179z M721.4,126.2
	c-159,0-308.5,61.9-420.9,174.3C188.1,413,126.2,562.4,126.2,721.4s61.9,308.5,174.3,420.9c112.4,112.4,261.9,174.3,420.9,174.3
	s308.5-61.9,420.9-174.3c112.4-112.4,174.3-261.9,174.3-420.9s-61.9-308.5-174.3-420.9C1029.9,188.1,880.4,126.2,721.4,126.2
	 M721.4,0c398.4,0,721.4,323,721.4,721.4s-323,721.4-721.4,721.4S0,1119.9,0,721.4S323,0,721.4,0L721.4,0z"/>
</svg>
