<?xml version="1.0" encoding="utf-8"?>
<!-- Generator: Adobe Illustrator 24.0.2, SVG Export Plug-In . SVG Version: 6.00 Build 0)  -->
<svg version="1.1" id="Bold" xmlns="http://www.w3.org/2000/svg" xmlns:xlink="http://www.w3.org/1999/xlink" x="0px" y="0px"
	 viewBox="0 0 1442.9 1442.9" style="enable-background:new 0 0 1442.9 1442.9;" xml:space="preserve">
<g>
	<path d="M1053.8,1152.4c-290.6,231.6-693.5,168.4-907.1-95.1C-59.2,803.1-46.3,436,177.1,203.9c231.3-240.4,595.2-272.4,858-73.8
		c145,109.5,231.2,255.6,254.2,436c22.9,179.6-24.9,341.3-138.8,488.9c6,3.9,12.5,6.8,17.2,11.5c83.2,82.9,166.1,166.1,249.3,248.9
		c19.7,19.7,29.5,42.5,23.7,70.1c-11.5,54.1-75.4,75.5-117.6,39.6c-7.3-6.2-13.8-13.2-20.5-20c-79.5-79.4-159-158.9-238.4-238.4
		C1060.2,1162.8,1057.5,1157.6,1053.8,1152.4z M1151.1,648.4c1.1-277.4-222.9-502.5-501.4-503.9C370.9,143.1,145.2,366.7,144,645.6
		c-1.2,279.1,223.6,505.4,502.9,506.2C924.7,1152.5,1150,927.6,1151.1,648.4z"/>
</g>
</svg>
