<?xml version="1.0" encoding="utf-8"?>
<!-- Generator: Adobe Illustrator 24.0.2, SVG Export Plug-In . SVG Version: 6.00 Build 0)  -->
<svg version="1.1" id="Bold" xmlns="http://www.w3.org/2000/svg" xmlns:xlink="http://www.w3.org/1999/xlink" x="0px" y="0px"
	 viewBox="0 0 1442.9 1442.9" style="enable-background:new 0 0 1442.9 1442.9;" xml:space="preserve">
<path d="M1442.5,669.7c-1.1-77.8-61.6-138.7-139.5-139.9c-22.1-0.3-39.4-7.3-48.5-28.2c-9.2-21.2-1.6-38.3,13.5-54.3
	c55.4-58.3,54.9-142.1-1.2-199.8c-23.4-24.1-46.5-48.5-71.5-70.8c-14.3-12.8-30.9-24.8-48.5-31.6c-56.2-21.4-107.2-10.2-151.1,31.1
	c-13.7,12.9-28.5,20.2-47.5,15.2c-22.3-5.9-34-22.9-34.6-49.9C912,70.1,864.4,12.3,794,3.4c-40.9-5.2-82.9-2.9-124.5-2.6
	c-77.8,0.7-138.9,61.3-140.3,139.1c-0.4,22.1-7.4,39.6-28.2,48.6c-21.7,9.4-39.4,1.6-55.5-14.3c-26.5-26.1-58.8-39-81.2-39.4
	c-52.4-1.1-87.2,12.5-116.4,40.8c-24.8,24-49.9,47.9-73.1,73.4c-12.2,13.5-23.6,29.3-30.1,46c-21.9,56.6-11.1,108.1,30.6,152.5
	c12,12.8,19.6,26.7,15.8,44.6c-5,23.8-22.3,36.8-49.1,37.4c-81.6,1.8-141.4,62.3-142,143.8c-0.2,32.5-0.2,65.1,0,97.7
	c0.6,80.6,60.6,141.7,141.1,143c21.7,0.4,38.2,8,47,28.2c8.9,20.5,2.2,37.6-12.6,53.2c-57.3,60.5-56.3,143.6,2.3,203.1
	c22.1,22.5,44.4,44.8,66.9,66.9c58.9,57.8,141.9,58.9,202.1,2.2c16.2-15.3,33.6-21.8,54.5-12.5c20.3,9,27.3,25.8,27.6,47.3
	c1,70.7,48.3,129.2,118.1,137.4c47.8,5.7,96.8,1.5,145.3,1.5c5.4,0,10.9-1.7,16.2-3.2c62-16.7,103.4-70.3,105-135.9
	c0.6-27.3,13.2-44.7,36.4-49.9c18.5-4.2,32.8,3.5,45.9,16c44.7,42.3,104.7,52.7,158.3,28c33-15.2,125.7-107.6,141.1-140.6
	c25.2-54.1,14.8-114.4-28.1-159.6c-12.9-13.6-20.4-28.3-15-47.4c6.5-23,22.2-33.9,49.8-34.5c78.9-1.8,139.4-62.2,140.4-140.8
	C1443,738.8,1443,704.3,1442.5,669.7z M961.8,722.6c0,131-108,239.4-238.9,239.6C589.6,962.6,480.9,854.9,481,722.6
	c0.1-134,107.7-241.2,241.9-241.1C854.4,481.6,961.7,590,961.8,722.6z"/>
</svg>
