<?xml version="1.0" encoding="utf-8"?>
<!-- Generator: Adobe Illustrator 24.0.2, SVG Export Plug-In . SVG Version: 6.00 Build 0)  -->
<svg version="1.1" id="Bold" xmlns="http://www.w3.org/2000/svg" xmlns:xlink="http://www.w3.org/1999/xlink" x="0px" y="0px"
	 viewBox="0 0 1442.9 1442.9" style="enable-background:new 0 0 1442.9 1442.9;" xml:space="preserve">
<path d="M1400.3,746.7c-27.3-64.5-66.3-122.3-116-172c-49.7-49.7-107.6-88.7-172-116c-66.8-28.2-137.6-42.6-210.7-42.6H211.9
	c-14.8,0-22.3-17.9-11.8-28.4L477,110.9c19.5-19.5,20.4-51.3,1.2-71.1c-19.6-20.3-51.9-20.5-71.7-0.6L14.8,430.9c0,0,0,0,0,0
	c-0.2,0.2-0.3,0.3-0.5,0.5c-0.4,0.4-0.8,0.9-1.2,1.3c-0.3,0.3-0.6,0.7-0.9,1.1c-0.2,0.3-0.5,0.5-0.7,0.8c-0.3,0.4-0.7,0.8-1,1.3
	c-0.2,0.2-0.3,0.4-0.5,0.7c-0.3,0.5-0.7,0.9-1,1.4c-0.1,0.2-0.3,0.4-0.4,0.6c-0.3,0.5-0.6,1-0.9,1.4c-0.1,0.2-0.3,0.4-0.4,0.6
	c-0.3,0.5-0.6,1-0.8,1.4c-0.1,0.2-0.3,0.5-0.4,0.7c-0.2,0.5-0.5,0.9-0.7,1.4c-0.1,0.3-0.3,0.6-0.4,0.9c-0.2,0.4-0.4,0.8-0.6,1.3
	c-0.2,0.3-0.3,0.7-0.4,1c-0.2,0.4-0.3,0.8-0.4,1.1c-0.2,0.4-0.3,0.8-0.5,1.2c-0.1,0.3-0.2,0.7-0.3,1c-0.2,0.5-0.3,0.9-0.4,1.4
	c-0.1,0.3-0.2,0.6-0.3,0.9c-0.1,0.5-0.3,1-0.4,1.5c-0.1,0.3-0.1,0.6-0.2,0.8c-0.1,0.5-0.2,1-0.3,1.6c-0.1,0.3-0.1,0.6-0.2,0.9
	c-0.1,0.5-0.2,1-0.3,1.5c0,0.3-0.1,0.7-0.1,1c-0.1,0.5-0.1,0.9-0.2,1.4c0,0.4-0.1,0.9-0.1,1.3c0,0.4-0.1,0.7-0.1,1.1
	c-0.1,1.7-0.1,3.3,0,5c0,0.4,0.1,0.7,0.1,1.1c0,0.4,0.1,0.9,0.1,1.3c0,0.5,0.1,1,0.2,1.4c0,0.3,0.1,0.7,0.1,1c0.1,0.5,0.2,1,0.3,1.6
	c0.1,0.3,0.1,0.6,0.2,0.9c0.1,0.5,0.2,1,0.3,1.6c0.1,0.3,0.1,0.6,0.2,0.8c0.1,0.5,0.3,1,0.4,1.5c0.1,0.3,0.2,0.6,0.3,0.9
	c0.1,0.5,0.3,0.9,0.4,1.4c0.1,0.3,0.2,0.7,0.3,1c0.1,0.4,0.3,0.8,0.5,1.2c0.1,0.4,0.3,0.7,0.4,1.1c0.1,0.4,0.3,0.7,0.5,1
	c0.2,0.4,0.4,0.8,0.6,1.2c0.1,0.3,0.3,0.6,0.4,0.9c0.2,0.4,0.4,0.9,0.7,1.3c0.1,0.3,0.3,0.5,0.4,0.7c0.3,0.5,0.5,0.9,0.8,1.4
	c0.1,0.2,0.3,0.4,0.4,0.7c0.3,0.5,0.6,0.9,0.9,1.4c0.1,0.2,0.3,0.4,0.5,0.7c0.3,0.5,0.6,0.9,1,1.3c0.2,0.2,0.4,0.5,0.6,0.7
	c0.3,0.4,0.6,0.8,0.9,1.2c0.3,0.3,0.5,0.6,0.8,0.9c0.3,0.3,0.5,0.6,0.8,0.9c0.5,0.6,1.1,1.1,1.6,1.7c0,0,0.1,0.1,0.1,0.1
	l391.7,391.7c9.8,9.8,22.7,14.7,35.6,14.7s25.7-4.9,35.6-14.7c19.6-19.6,19.6-51.5,0-71.1L200.1,545.2
	c-10.5-10.5-3.1-28.4,11.8-28.4h689.7c243.4,0,440.7,197.3,440.7,440.7v409.9c0,27.6,21.9,50.7,49.4,51.1
	c28.2,0.5,51.2-22.2,51.2-50.3V957.4C1442.9,884.4,1428.6,813.5,1400.3,746.7z"/>
</svg>
