<?xml version="1.0" encoding="utf-8"?>
<!-- Generator: Adobe Illustrator 24.0.2, SVG Export Plug-In . SVG Version: 6.00 Build 0)  -->
<svg version="1.1" id="Bold" xmlns="http://www.w3.org/2000/svg" xmlns:xlink="http://www.w3.org/1999/xlink" x="0px" y="0px"
	 viewBox="0 0 1442.9 1442.9" style="enable-background:new 0 0 1442.9 1442.9;" xml:space="preserve">
<g>
	<path d="M1040.5,0c11.4,0,22.7,2,33.5,5.9c16.1,5.8,32.5,11.2,45.5,21.1c66.2,50.8,68.7,140.7,7,196.9
		C1020,321.1,913,417.8,806.2,514.7c-49.6,45-99.2,90-150.1,136.1c-42.9,38.9-42.7,106.5,0.5,145.1
		c117.9,105.4,335.8,301.5,461,414.9c22.7,20.6,41.6,43.2,48.8,73.8c10.8,46.2-0.1,87.2-33.1,120.4c-33.1,33.3-74.1,44.4-120.3,34
		c-25.1-5.6-45.3-19.8-63.9-36.7c-211.8-192.2-423-385.1-635.9-576c-55.2-49.5-55.3-159.9,0.1-209.6
		C526.3,425.8,737.6,233,949.1,40.6c18.3-16.6,38.5-28.5,61.1-35.9c9.7-3.2,19.8-4.7,30-4.7C1040.3,0,1040.4,0,1040.5,0z"/>
</g>
</svg>
