<?xml version="1.0" encoding="utf-8"?>
<!-- Generator: Adobe Illustrator 24.0.2, SVG Export Plug-In . SVG Version: 6.00 Build 0)  -->
<svg version="1.1" id="Bold" xmlns="http://www.w3.org/2000/svg" xmlns:xlink="http://www.w3.org/1999/xlink" x="0px" y="0px"
	 viewBox="0 0 1442.9 1442.9" style="enable-background:new 0 0 1442.9 1442.9;" xml:space="preserve">
<path d="M1280.9,171.8c0-6-0.1-12-0.4-18c-3.9-85.4-72.2-153.1-158-153.3C855.2-0.2,588-0.2,320.7,0.8c-21.8,0.1-45.3,5.5-65,14.8
	c-63.7,30-94,82.3-94,152.6c0.1,184.2,0,368.3,0,552.5c0,182.2-0.2,364.3,0.2,546.5c0,18.4,1,37.3,5.5,55
	c28.3,110.4,162.1,156.5,251.9,85.9c85.7-67.4,169.6-137.2,254.2-206c33.2-26.9,61.8-27.3,94.7-0.6c84.7,68.7,169.1,137.8,254,206.2
	c60.4,48.7,144.3,46.4,202.5-5c39.6-35,56.3-79.4,56.3-132C1280.7,904.4,1280.9,538.1,1280.9,171.8z"/>
</svg>
