<?xml version="1.0" encoding="utf-8"?>
<!-- Generator: Adobe Illustrator 24.0.2, SVG Export Plug-In . SVG Version: 6.00 Build 0)  -->
<svg version="1.1" id="Bold" xmlns="http://www.w3.org/2000/svg" xmlns:xlink="http://www.w3.org/1999/xlink" x="0px" y="0px"
	 viewBox="0 0 1663.2 1351.4" style="enable-background:new 0 0 1663.2 1351.4;" xml:space="preserve">
<path d="M1492.3,336.9c67.5-47.7,124.4-107.8,170.8-176.7l0,0c-62,27-127.6,45.1-196.5,53.9c70.8-42.2,124.7-108.5,150-188.4
	c-65.9,39.3-138.7,66.9-216.3,82.5C1338,41.3,1248.7,0.1,1151.6,0.1c-188.7,0-340.7,153.3-340.7,341c0,27,2.3,52.9,7.8,77.6
	C535.6,405.1,284.5,269,116,62.1c-29.2,51-46.8,109.4-46.8,172.4c0,118.2,60.7,222.8,151.3,283.2c-54.9-1-108.5-16.9-153.9-41.9v3.9
	c0,165.6,118.2,303.3,273.1,334.8c-27.9,7.5-58.1,11.4-89.3,11.4c-21.8,0-43.8-1.3-64.6-5.8c44.2,135.1,169.5,234.1,318.6,237.4
	C388.4,1148.1,241,1203,81.6,1203c-27.9,0-54.9-1.3-81.5-4.5c151,97.4,329.9,153,522.8,153C1125,1351.1,1517,849.3,1492.3,336.9
	L1492.3,336.9z"/>
</svg>
