<?xml version="1.0" encoding="utf-8"?>
<!-- Generator: Adobe Illustrator 24.0.2, SVG Export Plug-In . SVG Version: 6.00 Build 0)  -->
<svg version="1.1" id="Bold" xmlns="http://www.w3.org/2000/svg" xmlns:xlink="http://www.w3.org/1999/xlink" x="0px" y="0px"
	 viewBox="0 0 1442.9 1442.9" style="enable-background:new 0 0 1442.9 1442.9;" xml:space="preserve">
<g>
	<path d="M161.8,720.7c0-184.2,0.1-368.3,0-552.5c0-70.3,30.3-122.6,94-152.6c19.7-9.3,43.2-14.7,65-14.8
		c267.2-1,534.5-1.1,801.7-0.4c85.8,0.2,154.1,67.9,158,153.3c0.3,6,0.4,12,0.4,18c0,366.3-0.2,732.6,0.2,1099
		c0.1,52.7-16.7,97.1-56.3,132c-58.2,51.5-142,53.7-202.4,5c-84.9-68.4-169.3-137.5-254-206.2c-32.9-26.7-61.6-26.4-94.7,0.6
		c-84.6,68.8-168.5,138.6-254.2,206c-89.8,70.6-223.5,24.5-251.9-85.9c-4.5-17.7-5.5-36.6-5.5-55
		C161.7,1085.1,161.8,902.9,161.8,720.7z M257.9,720.8c0,181.6,0,363.3,0,544.9c0,7.5,0,15,0.7,22.5c2,21.5,12.8,37.5,31.6,48
		c28.5,15.8,53.8,8.2,77.5-11.1c81.1-66,162.2-131.9,243.4-197.9c71.8-58.4,149.3-58.3,221.1,0.2c81,66.1,162.4,131.8,243.2,198.1
		c22.8,18.7,47.6,23.8,74,11.8c26.7-12.1,35.7-35.3,35.6-63.9c-0.2-368.8-0.1-737.6-0.2-1106.4c0-45.1-26-70.9-70.7-70.9
		c-261.7,0-523.4,0-785.1,0c-6.5,0-13.1,0.1-19.4,1.4c-33.2,7.1-51.5,32.2-51.6,70.7C257.9,352.6,257.9,536.7,257.9,720.8z"/>
</g>
</svg>
