<?xml version="1.0" encoding="utf-8"?>
<!-- Generator: Adobe Illustrator 24.0.2, SVG Export Plug-In . SVG Version: 6.00 Build 0)  -->
<svg version="1.1" id="Bold" xmlns="http://www.w3.org/2000/svg" xmlns:xlink="http://www.w3.org/1999/xlink" x="0px" y="0px"
	 viewBox="0 0 1442.9 1442.9" style="enable-background:new 0 0 1442.9 1442.9;" xml:space="preserve">
<g>
	<path d="M364.4,134.9c22.4,0.4,54.8,13.3,81.2,39.4c16.1,15.9,33.9,23.7,55.5,14.3c20.8-9.1,27.8-26.5,28.2-48.6
		C530.7,62.2,591.7,1.5,669.5,0.8c41.5-0.3,83.5-2.6,124.4,2.6c70.4,8.9,118.1,66.7,119.7,138.1c0.6,26.9,12.3,44,34.6,49.9
		c19,5,33.8-2.4,47.5-15.2c43.9-41.2,94.9-52.5,151.1-31c17.7,6.8,34.3,18.8,48.5,31.6c25,22.3,48.1,46.7,71.5,70.8
		c56,57.7,56.6,141.5,1.2,199.9c-15.2,16-22.8,33.1-13.5,54.3c9.1,20.9,26.3,27.9,48.5,28.2c77.9,1.3,138.4,62.1,139.5,139.9
		c0.5,34.5,0.5,69.1,0,103.7c-1,78.6-61.5,139.1-140.4,140.8c-27.5,0.6-43.3,11.5-49.8,34.5c-5.4,19.1,2.1,33.8,15,47.4
		c42.9,45.2,53.3,105.5,28.1,159.6c-15.4,33-108.1,125.4-141.1,140.6c-53.6,24.7-113.6,14.3-158.3-28c-13.2-12.4-27.4-20.2-45.9-16
		c-23.3,5.3-35.8,22.7-36.4,49.9c-1.6,65.6-42.9,119.2-105,135.9c-5.3,1.4-10.8,3.1-16.1,3.2c-48.5,0.1-97.5,4.2-145.3-1.5
		c-69.9-8.3-117.1-66.7-118.1-137.4c-0.3-21.5-7.4-38.4-27.6-47.3c-20.9-9.3-38.3-2.8-54.5,12.5c-60.2,56.7-143.1,55.6-202-2.2
		c-22.5-22.1-44.8-44.4-66.9-66.9c-58.5-59.5-59.5-142.5-2.3-203.1c14.8-15.6,21.5-32.7,12.5-53.2c-8.8-20.2-25.3-27.8-47-28.2
		C60.8,912.7,0.8,851.6,0.2,771c-0.2-32.6-0.2-65.1,0-97.7c0.5-81.5,60.4-142.1,142-143.8c26.7-0.6,44.1-13.6,49.1-37.4
		c3.8-17.9-3.8-31.8-15.8-44.6c-41.6-44.4-52.5-95.9-30.6-152.5c6.5-16.8,17.9-32.6,30.1-46c23.2-25.6,48.3-49.4,73.1-73.5
		C277.2,147.4,312,133.7,364.4,134.9z M964,1155c34.3,0.9,68.1,14.5,96.5,42c22.8,22.1,47.5,21.9,70.1-0.3
		c21.1-20.7,41.9-41.7,62.8-62.6c25.9-25.9,26.2-48.6,0.9-75.6c-25.5-27.1-38.9-59.3-39.6-96.3c-1.4-78.4,61.5-142.7,140.5-144.1
		c34.4-0.7,51.3-17.7,51.4-52.2c0.1-30.5,0.2-61.1,0-91.6c-0.2-29.5-18.3-47.8-47.4-48.6c-62.6-1.6-108.8-29.9-133-87.8
		c-24-57.4-11.6-109.8,30.6-155.1c21.5-23.1,21.6-47.7-0.5-70.2c-20.7-21.1-41.7-41.8-62.6-62.7c-25.9-25.8-48.5-26.1-75.5-0.7
		c-26.7,25.1-58.4,38.5-94.8,39.5c-79.1,2.2-144.1-60.9-145.6-140.5c-0.7-34.5-17.7-51.2-52.2-51.3c-30.5,0-61.1-0.1-91.6,0
		c-29.5,0.2-47.5,18.2-48.7,47.4c-0.5,12.4-1.4,25.1-4.5,37.1c-27.2,106-156.2,142.6-236.3,67.2c-26.2-24.6-49.1-24.4-74.4,0.7
		c-19.9,19.8-39.7,39.6-59.5,59.5c-26.9,27-27.5,49.1-1.6,76.6c25.5,27.1,38.8,59.4,39.4,96.3c1.3,79.1-61.6,142.4-142.3,143.9
		c-31.6,0.6-49.4,18.3-49.6,49.4c-0.1,32-0.3,64.1,0,96.1c0.3,27.5,18.8,45.6,46.1,46.9c12.9,0.6,26.2,1.3,38.6,4.5
		c106,27.3,142.4,156,67,236.3c-24.6,26.2-24.4,49.2,0.8,74.4c20.9,20.9,41.7,41.9,62.7,62.6c23.1,22.8,47.4,22.7,71.3,0.5
		c45.4-42.2,97.8-54.3,155.1-30.2c57.3,24.1,85.4,70,87.1,132c0.9,30.3,18.7,48.4,48.9,48.6c29.5,0.2,59.1,0,88.6,0
		c37.8,0,54-15.7,54.9-53.2C819.4,1217.2,882.8,1155.1,964,1155z"/>
	<path d="M384.8,722.3c-0.2-185.4,150.9-337.1,335.7-337c186.6,0.1,337.1,150.4,337.4,336.9c0.3,183.6-151,336.1-333.6,336.1
		C535.8,1058.4,385,909.2,384.8,722.3z M961.8,722.6c0-132.6-107.4-241.1-238.9-241.1C588.7,481.4,481.1,588.6,481,722.6
		c-0.1,132.3,108.6,240,241.8,239.7C853.7,962,961.8,853.6,961.8,722.6z"/>
</g>
</svg>
