<?xml version="1.0" encoding="utf-8"?>
<!-- Generator: Adobe Illustrator 24.0.2, SVG Export Plug-In . SVG Version: 6.00 Build 0)  -->
<svg version="1.1" id="Bold" xmlns="http://www.w3.org/2000/svg" xmlns:xlink="http://www.w3.org/1999/xlink" x="0px" y="0px"
	 viewBox="0 0 1442.9 1442.9" style="enable-background:new 0 0 1442.9 1442.9;" xml:space="preserve">
<path d="M915.8,1442.9c-29.6-8.5-61.1-13-88.4-26.2c-102.9-49.6-157.1-133-162.1-247.4c-1.5-34.8,23.7-60.9,56.1-61
	c31.8,0,55.5,25,56.4,59.5c2.2,85.8,69.4,156.6,153.7,162c86.5,5.5,162.8-56.1,175.4-141.7c14.2-95.9-59.9-184.7-156.8-188.2
	c-7-0.3-14.1-0.2-21.1-0.2c-286,0-571.9-0.3-857.9,0.3c-34.6,0.1-59-11.3-71-44.7c0-8.5,0-16.9,0-25.4
	c12.8-32.9,37.1-43.6,71.8-43.4c288.7,0.8,577.4,0.4,866.1,0.5c126.6,0.1,232.6,76.2,270.1,193.3c52.6,164.2-57,337.1-228.1,359.9
	c-2.6,0.4-5.1,1.7-7.7,2.6C953.4,1442.9,934.6,1442.9,915.8,1442.9z M0,513c10.9,25.5,27.6,43,57.7,43
	c161.5-0.1,323.1,1.4,484.6-0.6c165.4-2.1,291.1-151.1,268.7-314.8C782.3,31.3,538.3-71.3,369.5,55.5
	c-72.4,54.4-109.3,128.3-112.1,218.9c-1,33.8,23.6,59.7,55.6,60.3c30.9,0.5,54.7-23.4,56.9-56.1c0.9-13.5,2.1-27.2,5.3-40.4
	c21.2-87,111.3-142.2,196.9-121.1c91.1,22.5,145.6,110.7,123.8,200c-18.5,75.4-83.8,125.9-164.2,126c-153.6,0.2-307.1,0.5-460.7-0.3
	c-34.6-0.2-59,11.2-71,44.7C0,496.1,0,504.5,0,513z M1166.5,777.7c170.2-0.9,299.2-153.4,273-321.3
	c-20.1-128.8-131.8-229.2-260.3-233.9c-136.8-5-255.1,83.4-285,213.9c-4.3,18.6-6,38-6.8,57.1c-1.5,36.2,21.1,61.5,53.9,62.4
	c33.2,0.8,56.7-22.6,58.5-58.7c5.1-99.6,80.9-167.8,179.8-161.8c89.8,5.4,162.7,95.3,149.4,184.3c-13,87.3-80.6,145.5-169.3,145.5
	c-288.7,0.1-577.5,0-866.2,0c-5.2,0-10.4-0.3-15.5,0.2c-23,2.4-39.7,14-48.3,35.6c-8.6,21.6-4.4,41.6,11.1,58.8
	c12.4,13.8,28.6,18.3,46.9,18.2c147.9-0.2,295.8-0.1,443.7-0.1C876.4,777.8,1021.4,778.5,1166.5,777.7z"/>
</svg>
