<?xml version="1.0" encoding="utf-8"?>
<!-- Generator: Adobe Illustrator 24.0.2, SVG Export Plug-In . SVG Version: 6.00 Build 0)  -->
<svg version="1.1" id="Bold" xmlns="http://www.w3.org/2000/svg" xmlns:xlink="http://www.w3.org/1999/xlink" x="0px" y="0px"
	 viewBox="0 0 1442.9 1442.9" style="enable-background:new 0 0 1442.9 1442.9;" xml:space="preserve">
<path d="M948.7,1231.6c6.5,22,1.2,41.7-15.5,57.9c-57.8,56-124.8,97-201,123c-274.6,93.7-571.3-34.9-686.1-300.9
	C-24.4,948-14.6,787.7,79.3,633.9c53-86.9,117.3-164.9,182.7-242.4c61.4-72.7,122-146.1,181.4-220.5c22.8-28.5,40.7-60.8,48.6-97.4
	c0.7-3.2,1.7-6.5,1.6-9.7c-0.8-32.5,14-57.9,45.4-63.2c7.4-1.2,15.1-1.2,22.5,0C593.8,6.1,604,33,608.2,65.2
	c3.4,26,15.1,52.2,28.1,75.5c34.6,62.3,82.3,115,128.5,168.7c30.3,35.2,61.4,69.7,91.5,105.1c16.2,19,18.7,40.8,7.1,62.9
	c-11,21-29.5,31-53.2,29.9c-15.7-0.7-28.9-7.7-39.1-19.7c-74.7-87.3-155-169.9-218.4-266.4c-0.8-1.2-1.6-2.3-2.6-3.6
	c-21.9,29-42,58.3-64.7,85.4c-63.8,76.3-129.1,151.3-193,227.5c-44.7,53.2-84.5,109.9-121.1,169c-100.5,162.2-56.6,345.1,32.8,459.7
	c159.8,204.8,454.8,229,646.3,53.4c16.2-14.8,33.4-24.4,55.7-19.7C927.6,1197.5,942.5,1210.5,948.7,1231.6z M1382.5,999.7
	c-8.4-0.3-17.9-4-24.6-9.1c-16.6-12.8-31.9-27.3-47.8-41.1c-13-11.3-24.8-24.8-39.5-33.3c-53.3-31-119.2-19.3-161.8,25.9
	c-15.7,16.6-32.5,32.5-50.5,46.5c-20.2,15.8-43,16.1-63.8,0.4c-15.3-11.5-29.1-24.9-43.3-37.8c-7.9-7.3-14.5-16.1-22.7-22.9
	c-53-43.5-131.2-37.7-178.5,12.1c-15.7,16.6-32.3,32.7-50.1,47c-21.4,17.1-45.5,17.8-67.4,0.7c-16.9-13.2-33-27.8-47.4-43.6
	c-55-60.3-143.7-60.9-198.5-0.5c-7.2,8-14.3,16.2-22.1,23.6c-19,17.9-39.3,31.8-67.4,33.9c-29.5,2.1-50.1,30-48,59.4
	c2,29.2,26.4,51.9,56.4,52.1c27.3,0.2,52.8-7.2,76.8-19.7c33-17.1,59.8-41.8,84.1-69.4c14.8-16.8,22.8-16.5,37.8-0.5
	c13.2,14,26.4,28.1,41,40.5c77.6,65.7,163.3,65.7,240.8,0.1c15-12.7,28.4-27.3,42-41.5c13.8-14.5,22-14.4,36,0.2
	c13.6,14.3,27,28.8,42,41.5c77.8,65.5,163.3,65.4,240.8-0.5c15.7-13.3,29.4-28.9,43.9-43.6c10.9-11.1,20.5-11.3,31.2-0.1
	c5.5,5.8,10.5,12,16.1,17.7c32.1,33.2,67.9,60.5,113.9,71.5c48.5,11.5,72.6,0.7,91-41c0-7.5,0-15,0-22.5
	C1432.9,1016.7,1414,1000.7,1382.5,999.7z M1382.6,718c-10.5-0.5-21.9-6.2-30.6-12.7c-14.9-11.1-29.2-23.6-41.6-37.5
	c-60-67.4-148-67.4-208,0c-12.7,14.2-27.5,26.9-42.6,38.5c-21.9,16.8-45.8,17-67.4-0.2c-17.8-14.2-34.5-30.2-50.1-46.9
	c-52.1-55.3-140-55.7-191.8-0.4c-9.9,10.6-19.5,21.6-30.1,31.5c-17.5,16.1-36.7,27.6-62,29.5c-29.5,2.1-50.4,29.4-48.7,58.9
	c1.7,29.2,25.9,52.4,55.7,52.7c26.8,0.3,51.8-6.8,75.6-18.8c32.8-16.5,59.5-40.6,83.7-67.7c18.2-20.4,24.2-20.2,42.5-0.6
	c12.5,13.3,25.2,26.6,39.2,38.3c76.4,64.2,159.8,65.3,236.4,2.8c17.3-14.1,32.3-31.2,48.2-47.2c10.9-11,20.6-11.2,31.2,0
	c5.5,5.8,10.5,12,16.1,17.7c32.1,33.2,67.9,60.5,113.9,71.4c48.5,11.5,72.5,0.6,91-41c0-7.5,0-15,0-22.5
	C1432.9,735.2,1414,719.5,1382.6,718z"/>
</svg>
