<?xml version="1.0" encoding="utf-8"?>
<!-- Generator: Adobe Illustrator 24.0.2, SVG Export Plug-In . SVG Version: 6.00 Build 0)  -->
<svg version="1.1" id="Bold" xmlns="http://www.w3.org/2000/svg" xmlns:xlink="http://www.w3.org/1999/xlink" x="0px" y="0px"
	 viewBox="0 0 1442.9 1442.9" style="enable-background:new 0 0 1442.9 1442.9;" xml:space="preserve">
<path d="M888.1,0c20.6,8.4,43.1,13.9,61.3,26c39.7,26.4,55.7,66.7,56.1,113.6c0.1,11.2,0,22.4,0,35.8c5.9,0,10.9,0,15.8,0
	c49.8,0,99.5-0.4,149.3,0.1c59.5,0.6,103.5,26.2,127.3,82.3c26.7,63.2-6.3,141.1-70.5,165.3c-12.7,4.8-16.1,11.1-16,24.2
	c0.4,268.5,0.3,537,0.3,805.5c0,41.8-8.5,81.1-32.7,115.9c-33.5,47.9-79.8,72.9-138.3,73.7c-49.3,0.7-98.6,0.2-147.9,0.2
	c-160.5,0-321.1-1.2-481.6,0.4c-99.8,1-177-74.1-179-175.8c-1.6-84-0.5-168-0.5-252.1c0-190.6-0.1-381.2,0.3-571.7
	c0-10.7-3-15.1-13.2-18.8c-54.6-19.8-89.6-78.2-82-135c8.1-60.7,55.7-108.3,115.6-112c43.5-2.7,87.2-1.6,130.8-2
	c17.4-0.2,34.7,0,53.3,0c1-19.5,1.2-38.6,3.2-57.5c6.1-59.3,50.4-105.7,109.6-115.7c2.2-0.4,4.3-1.5,6.5-2.2
	C666.5,0,777.3,0,888.1,0z M299.3,433.2c0,5.1,0,8.8,0,12.5c0,270,0,539.9,0.1,809.9c0,9.3,0.8,18.8,2.2,28
	c8.5,54.2,50.4,91.1,104.8,91.1c210.3,0.2,420.7,0.1,631,0.1c26.8,0,50.6-8.3,70.5-27c27.3-25.6,36.1-58.4,36.1-94.3
	c0.1-268.6,0-537.1,0-805.7c0-4.6,0-9.1,0-14.6C862.1,433.2,581.6,433.2,299.3,433.2z M721,364.8c147.4,0,294.8,0,442.1,0
	c7.5,0,15-0.2,22.5-1c28.9-3.1,50.2-25.5,52.8-55c2.4-28.7-15.9-55.9-43.5-62.8c-9.4-2.4-19.5-2.8-29.3-2.8
	c-296.2-0.1-592.3-0.1-888.5,0c-7.5,0-15,0.4-22.4,1.5c-27.5,4.3-47.4,26.2-50.4,54.7c-2.7,26.2,14.1,53.1,39.9,61.2
	c10.5,3.3,22.1,4.1,33.2,4.1C425.3,364.9,573.2,364.8,721,364.8z M936.9,174.7c0-17.4,1.3-33.3-0.3-49c-3.3-33.1-28.9-57.5-62-57.7
	c-101.9-0.6-203.8-0.6-305.6,0c-31.6,0.2-57.3,22.1-61.9,53.1c-2.5,17.3-0.5,35.3-0.5,53.6C649.8,174.7,792.9,174.7,936.9,174.7z
	 M555.9,597.6c0-13.6,0.4-27.2-0.2-40.8c-0.9-19.5-13.5-32.4-31.3-33.5c-22.8-1.3-36,14.4-36,43.2c0,206,0,412,0,618
	c0,5.1,0.3,10.3,1.3,15.3c3.6,18,18,29.5,34.7,28.3c17.2-1.3,29.7-14,31.3-32.3c0.4-4.7,0.2-9.4,0.2-14.1c0-101.8,0-203.6,0-305.5
	C555.9,783.4,555.9,690.5,555.9,597.6z M688,1184.3c0,6.5,0.3,13.2,1.9,19.5c3.8,14.8,17.3,24.7,32.2,24.5
	c14.9-0.3,27.9-10.4,31.4-25.3c1.5-6.3,2-13,2-19.5c0.1-205,0.1-410.1,0-615.1c0-6.5-0.5-13.2-1.9-19.5
	c-3.9-17.1-17.8-26.8-35.1-25.4c-19.4,1.6-30.4,15.9-30.5,40c-0.1,103.7,0,207.4,0,311.1C687.9,977.8,687.9,1081,688,1184.3z
	 M887.3,1183.1c0,29.7,12.1,45.7,34.2,45.2c21.6-0.5,33.4-16.3,33.4-44.9c0-205,0-410.1,0-615.1c0-29.3-12.4-45.4-34.6-45
	c-21.7,0.3-33,15.6-33,44.8c0,102.8,0,205.5,0,308.3C887.3,978.5,887.3,1080.8,887.3,1183.1z"/>
</svg>
