<?xml version="1.0" encoding="utf-8"?>
<!-- Generator: Adobe Illustrator 24.0.2, SVG Export Plug-In . SVG Version: 6.00 Build 0)  -->
<svg version="1.1" id="Bold" xmlns="http://www.w3.org/2000/svg" xmlns:xlink="http://www.w3.org/1999/xlink" x="0px" y="0px"
	 viewBox="0 0 1442.9 1442.9" style="enable-background:new 0 0 1442.9 1442.9;" xml:space="preserve">
<path d="M749,0c14.3,1.8,28.7,3.3,43,5.6c193.1,30.9,330.3,136.5,409.5,314.1c50.5,113.3,53.3,231.5,19.5,350.9
	c-29.3,103.6-75.7,199.7-129,292.5c-93.6,162.9-205.9,312.4-328.3,454.5c-28.9,33.5-57,33.5-85.7,0
	c-138.7-161.7-265.4-332-364.7-521.2c-45.4-86.5-85.4-175.7-103.3-272.5C174.6,434,228.6,271.5,368.2,138.6
	C450.7,60.1,550.8,17.2,663.5,3.2C673.2,2,683,1.1,692.7,0C711.5,0,730.2,0,749,0z M719.2,785.3c142.2,2.6,261.4-114.6,264.1-259.5
	c2.7-144.5-113.8-263.8-260-266.3C580.5,257,461.5,373.3,458.5,518.3C455.4,663.4,571.9,782.7,719.2,785.3z"/>
</svg>
