<?xml version="1.0" encoding="utf-8"?>
<!-- Generator: Adobe Illustrator 24.0.2, SVG Export Plug-In . SVG Version: 6.00 Build 0)  -->
<svg version="1.1" id="Bold" xmlns="http://www.w3.org/2000/svg" xmlns:xlink="http://www.w3.org/1999/xlink" x="0px" y="0px"
	 viewBox="0 0 1442.9 1442.9" style="enable-background:new 0 0 1442.9 1442.9;" xml:space="preserve">
<g>
	<path d="M730,0c18.5,6.1,27.9,20.1,35,37.5c181.9,446.4,364.1,892.7,546.2,1339c10.5,25.7,7.4,44.8-9.1,57.4
		c-15.8,12.1-32.9,11.9-53.6-1c-64.9-40.5-129.8-81.1-194.6-121.6c-107.1-66.9-214.2-133.7-321.1-200.9c-8.4-5.3-14.2-5.2-22.5,0
		c-171,107.2-342.1,214.1-513.3,321.1c-23.5,14.7-41.1,15.1-57.1,1.6c-15.1-12.8-18.4-31.4-9.2-54c38.1-93.4,76.2-186.7,114.3-280
		C389.6,744.8,534.3,390.6,678.6,36.2c7-17.1,16.7-30.1,34.5-36.2C718.7,0,724.4,0,730,0z"/>
</g>
</svg>
