<?xml version="1.0" encoding="utf-8"?>
<!-- Generator: Adobe Illustrator 24.0.2, SVG Export Plug-In . SVG Version: 6.00 Build 0)  -->
<svg version="1.1" id="Bold" xmlns="http://www.w3.org/2000/svg" xmlns:xlink="http://www.w3.org/1999/xlink" x="0px" y="0px"
	 viewBox="0 0 1442.9 1442.9" style="enable-background:new 0 0 1442.9 1442.9;" xml:space="preserve">
<style type="text/css">
	.st0{fill:#F5F5F5;}
</style>
<path class="st0" d="M637.1,902.2c-0.2,16.3-7.7,32.4-21.5,46.7c-83.1,85.2-158.3,160.3-230,229.5c0,0,0,0.1-0.1,0.1
	c-15.9,15.4-31.3,23.2-45.9,23.2c-14.7,0-30.4-7.9-46.5-23.5c-77.4-75-154.7-152.3-229.7-229.7c-14.4-14.9-22.1-31.1-22.2-46.6
	c-0.1-14.6,6.5-28.8,19.1-41.1c11.4-11.1,24.9-17,39.1-17c16.8,0,33.7,7.9,49,22.8c13.6,13.3,25.5,29.3,38.2,46.1
	c3.4,4.6,7,9.3,10.5,14c8.2,10.7,21.2,17.2,34.7,17.2c8.2,0,16.3-2.3,23.3-6.7l0.2-0.1c11.7-7.4,19.3-20,20.3-33.8
	c0.3-3.8,0.6-7.5,0.9-11.5c1-11.7,1.9-23.8,1.9-36.2c0.2-168.6,0.2-339.9,0.2-505.7c0-4.3,0-8.5-0.1-12.7
	c-0.1-10.5-0.3-20.3,0.5-29.8c1.7-20.5,8.6-37.6,20.1-49.5c10.5-10.9,24.3-16.7,39.9-16.7c0.5,0,1.1,0,1.6,0
	c35.2,0.9,57.2,26.9,57.3,68.1c0.7,134.8,0.6,271.8,0.6,404.2c0,44.2-0.1,89.9-0.1,134.9v51.8c0,14.8,7.4,28.5,19.8,36.6l1.3,0.9
	c7.1,4.7,15.4,7.1,23.9,7.1c13.1,0,25.5-5.8,33.8-16c4.3-5.3,8.6-10.6,12.7-15.8c13.6-17,26.4-33,40.8-46.8
	c15.7-14.9,32.6-22.8,48.9-22.8c14.1,0,27.7,6.1,39.3,17.6C631.1,872.7,637.3,887,637.1,902.2z M1367.5,1255.9
	c-66.8,135.5-222.4,211.2-369.7,180c-151.9-32.3-262.5-163.8-264.9-319.9c-1.6-104.7,38.4-193.2,119.1-260.7
	c17.6-14.7,22.6-29.1,22.6-50.2c-0.6-202.3-1-404.7,0-607.1C875.1,82.4,961-2.3,1072.2,0c99.9,2,182.1,81.6,187.5,181.4
	c0.3,4.5,0.6,8.9,0.6,13.2v303.6h0.1c0,103.5,0.3,206.9-0.4,310.3c-0.1,19,4.6,31.8,20.2,44.6
	C1400.2,952.6,1435.4,1117.9,1367.5,1255.9z M1194.7,921.5c-28.8-19.3-40.9-42.3-40.5-76.6c0.8-72,0.7-144.1,0.6-216.1h-42.4
	c-13.1,0-23.8-10.6-23.8-23.8v0c0-13.1,10.6-23.8,23.8-23.8h42.3c0-18.8-0.1-37.6-0.1-56.5h-0.4c0-8.2,0-16.4,0-24.5h-81.1
	c-13.1,0-23.8-10.6-23.8-23.8v0c0-13.1,10.6-23.8,23.8-23.8h81.2c0-27,0.1-54,0.1-81h-42c-13.1,0-23.8-10.6-23.8-23.8
	s10.6-23.8,23.8-23.8h42c0-44.2-0.2-88.5-0.6-132.7c-0.4-46.1-32.8-79.9-76.5-85.2c-40.2-4.9-80.8,19.6-92.4,58.7
	c-4.9,16.4-5,34.7-5,52.1c-0.3,208.9-0.6,418,0.1,626.9c0.1,33.7-10.4,57.3-39.9,76.7c-69.5,45.8-103.9,113-101.8,195.8
	c2.9,107.7,82.2,199.3,183.6,216.5c110.4,18.9,214.5-36.3,255.8-135.5C1320,1096.4,1287,983.5,1194.7,921.5z"/>
</svg>
