<?xml version="1.0" encoding="utf-8"?>
<!-- Generator: Adobe Illustrator 24.0.2, SVG Export Plug-In . SVG Version: 6.00 Build 0)  -->
<svg version="1.1" id="Bold" xmlns="http://www.w3.org/2000/svg" xmlns:xlink="http://www.w3.org/1999/xlink" x="0px" y="0px"
	 viewBox="0 0 1442.9 1442.9" style="enable-background:new 0 0 1442.9 1442.9;" xml:space="preserve">
<g>
	<path d="M1.2,780.4c4.8-15.8,16.3-29.7,28.1-40.5c24-22,61.1-21.4,86.9-1.6c5.9,4.5,11.4,9.8,16.7,15.1
		c103.6,103.5,317.8,319.2,324.3,327.1c5.1-7.1,574.5-579.1,855.5-860.3c21.7-21.7,45.9-33.9,77.1-25.5
		c50,13.4,69.6,73.2,37.4,113.7c-4.1,5.1-8.6,9.9-13.2,14.6c-299.6,299.7-599.3,599.3-898.9,899c-30.2,30.2-62.4,37.1-93.7,19.2
		c-8-4.6-15.2-11-21.8-17.6C290.5,1114.8,70.6,885.9,19.1,832.2C9.9,822.7,3.6,810.9,0.9,798c-0.5-2.4-0.8-4.6-0.9-6.5
		C-0.1,787.7,0.1,784,1.2,780.4z"/>
</g>
</svg>
