<?xml version="1.0" encoding="utf-8"?>
<!-- Generator: Adobe Illustrator 24.0.2, SVG Export Plug-In . SVG Version: 6.00 Build 0)  -->
<svg version="1.1" id="Bold" xmlns="http://www.w3.org/2000/svg" xmlns:xlink="http://www.w3.org/1999/xlink" x="0px" y="0px"
	 viewBox="0 0 1442.9 1442.9" style="enable-background:new 0 0 1442.9 1442.9;" xml:space="preserve">
<g>
	<path d="M1442.9,775.2c-2.7,22.7-4.9,45.5-8,68.2c-14,101.9-48.9,196.3-103.8,283c-67.9,107.3-157.7,191.9-270,251.5
		c-34.2,18.2-70.5,32.8-106.8,46.8c-31.4,12.2-53.6-4.8-53.6-39.2c0-62,0.6-124,0.8-186c0.1-34.6-3.7-68.6-19.7-99.9
		c-7.1-14-16.9-26.6-25.8-40.4c25.2-4.5,51.2-8,76.6-13.9c71.6-16.6,135.5-46.9,182-106.6c33.8-43.4,51.4-93.5,60-146.9
		c7.1-44.1,9.5-88.6,3.7-133.3c-6.8-52.6-27.3-99.3-61.4-139.7c-7.3-8.7-8.1-15.7-4.9-26.2c17.4-58.1,10.9-115.1-10.3-170.9
		c-1.5-4-10.7-8-15.6-7.2c-23,3.7-47.3,5.5-68.3,14.5c-36,15.4-69.8,36.1-104.9,53.7c-6.7,3.4-16.1,5.3-23.2,3.6
		c-112.5-27.5-224.9-27.3-337.4,0.2c-6.7,1.6-15.9,0-21.8-3.6C489,357,447,332.1,399,320.3c-14.9-3.7-30.5-4.5-45.9-6
		c-7.2-0.7-11.4,3-14,10.6c-19.6,57.4-25.4,115.1-6.8,174.1c1.4,4.3,0.1,11.4-2.7,14.7c-61.2,70.8-75.1,154.1-65.7,244
		c4.7,44.6,13.7,87.9,32.8,128.9c31.3,67.3,83,112.3,151.1,139.8c40.3,16.3,82.5,25,125.3,30.8c4.6,0.6,9.1,1.6,12.5,2.2
		c-9.9,17.2-20.1,33.7-28.9,50.9c-4.4,8.6-7.6,18.5-8.6,28.1c-1.5,14.9-9.2,21.6-22.8,25.8c-45,13.8-89.3,17.9-132.2-6.3
		c-23.5-13.2-41.2-32.5-55.1-55.3c-15.9-26-35.2-48.8-62.1-63.9c-20.8-11.7-42.8-20-67.1-15.1c-6.2,1.2-14.2,5.4-16.4,10.4
		c-1.7,3.6,3.9,11.5,7.7,16.4c3.7,4.7,8.8,8.6,13.9,11.7c41.6,25.6,65.9,64.5,83.9,108.2c28.6,69.5,83.3,101.7,155.6,105.8
		c28.3,1.6,57-2.7,86.8-4.3c0.1,0.2,1,2.8,1,5.3c0.5,36.2,1.2,72.3,1.2,108.5c-0.1,35.3-22.9,50.5-56.5,38.5
		c-179.9-64.5-315.2-181.2-404.1-349.9C18.5,953.8-8.6,824.7,2.4,689c19.7-243.1,133.1-432.2,337.8-563.7
		C485.4,32,646.6-3.8,817,22.7c296,46.2,492,215.8,591.7,497.3c18.5,52.3,27.9,107,31.6,162.6c0.3,4.6,1.7,9.1,2.5,13.7
		C1442.9,722.6,1442.9,748.9,1442.9,775.2z"/>
</g>
</svg>
