<?xml version="1.0" encoding="utf-8"?>
<!-- Generator: Adobe Illustrator 24.0.2, SVG Export Plug-In . SVG Version: 6.00 Build 0)  -->
<svg version="1.1" id="Bold" xmlns="http://www.w3.org/2000/svg" xmlns:xlink="http://www.w3.org/1999/xlink" x="0px" y="0px"
	 viewBox="0 0 1442.9 1442.9" style="enable-background:new 0 0 1442.9 1442.9;" xml:space="preserve">
<g>
	<path d="M1442.9,751.1c-8.3,24.8-19.5,47.8-39.2,65.8c-25.3,23.2-55,35.5-89.4,36c-7,0.1-14.1,0-23.6,0c0,6,0,11.4,0,16.7
		c0,138.3,0.2,276.6-0.1,414.9c-0.2,75.7-48.1,136.7-120.5,153.8c-12.7,3-26,4.1-39.1,4.2c-73.4,0.4-146.8,0.2-220.2,0.2
		c-31.9,0-48.9-16.8-48.9-48.6c-0.1-108.2-1.2-216.4,0.5-324.6c0.7-47.2-31.4-82.8-81.8-80.9c-39.5,1.5-79,0.2-118.5,0.3
		c-49.2,0.1-77.8,28.8-77.9,78.2c-0.1,107.7,0,215.5,0,323.2c0,36.8-15.6,52.3-52.3,52.3c-71.5,0-143,0.1-214.5,0
		c-94.8-0.1-161.8-66.8-161.9-161.5c-0.2-136.4,0-272.9,0-409.3c0-5.6,0-11.2,0-17.5c-16.1-1.4-31.6-1.3-46.5-4.2
		C58.4,840.3,24,810.5,7.6,762.2C-8.6,714.4,1.4,670.4,34,631.8c4.2-5,9-9.6,13.7-14.3c183.9-184,368-367.8,551.8-552
		C626,39,651.8,11.8,689.2,0.1c22.6,0,45.2,0,67.8,0c35.7,11.5,61.1,36.8,86.8,62.5c180.9,181.4,362,362.5,543.4,543.3
		c24.3,24.2,46.2,49.3,55.8,83C1442.9,709.7,1442.9,730.4,1442.9,751.1z M946.5,1358c6.4,0,11.5,0,16.5,0c54.1,0,108.2,0,162.3,0
		c53,0,80.7-27.8,80.7-81c0-153.4,0-306.7,0-460.1c0-31.8,17-48.5,48.9-48.7c19.8-0.1,39.5,0.3,59.3-0.2
		c21.4-0.5,38.6-14.2,44.6-34.7c7-23.7-4.4-40.3-20.3-56.2c-191.1-190.8-382-381.8-572.9-572.7C735,73.8,711,74,680,105
		c-170,170-340,340-510,510c-23.6,23.6-47.5,47-70.8,70.9c-14.9,15.3-18.7,33.7-10.1,53.3c8.3,18.9,23.7,28.7,44.5,28.9
		c17.4,0.2,34.8,0.1,52.2,0.1c38.8,0,54.1,15.1,54.1,53.5c0,153.4-0.1,306.7,0,460.1c0,46.5,29.4,76,75.5,76.1
		c56.5,0.1,112.9,0,169.4,0c4.5,0,9-0.5,14.5-0.8c0-6.8,0-12.4,0-17.9c0.1-95.5-0.8-191,0.6-286.5c1.1-75.1,61.5-141.1,136.5-146.1
		c57.6-3.9,115.6-0.8,173.4-0.6c4.2,0,8.4,0.9,12.5,1.8c73.9,16.2,123.4,77.1,123.8,154c0.6,92.7,0.1,185.4,0.1,278
		C946.5,1345.4,946.5,1350.9,946.5,1358z"/>
</g>
</svg>
