<?xml version="1.0" encoding="utf-8"?>
<!-- Generator: Adobe Illustrator 24.0.2, SVG Export Plug-In . SVG Version: 6.00 Build 0)  -->
<svg version="1.1" id="Bold" xmlns="http://www.w3.org/2000/svg" xmlns:xlink="http://www.w3.org/1999/xlink" x="0px" y="0px"
	 viewBox="0 0 1442.9 1442.9" style="enable-background:new 0 0 1442.9 1442.9;" xml:space="preserve">
<g>
	<path d="M376.7,978.3C225.1,760.4,299.6,509.6,452,388c159.9-127.6,388.5-125.7,543.8,3.9c156.1,130.2,215.4,378.8,69.9,586.4
		c10,0,17.9,0,25.9,0c99.4,0,198.8,0,298.1,0c6.1,0,12.3-0.3,18.3,0.2c20.7,1.9,34.2,16,34.6,35.7c0.4,20.7-13.5,35.4-35.3,37.3
		c-6.1,0.5-12.2,0.2-18.3,0.2c-444.9,0-889.8,0-1334.8,0c-7.6,0-15.5,0.8-22.9-0.7c-19.6-3.9-31.3-15.7-31.1-36.4
		c0.2-20.7,12.1-32.3,31.8-35.8c7.4-1.3,15.2-0.5,22.9-0.5C161.3,978.3,267.5,978.3,376.7,978.3z M720.6,978.3
		c75.7,0,151.4,0.5,227.1-0.6c10.6-0.2,24.1-5.8,31-13.6c98-109.5,125.5-235.7,72-372.3c-53.8-137.6-160-213.1-307.8-224.4
		c-145.1-11.2-281.3,71.2-343,203.5c-61.4,131.7-35.8,290.2,64.5,393.6c7.4,7.6,20.7,13.1,31.3,13.2
		C570.7,978.8,645.6,978.3,720.6,978.3z"/>
	<path d="M722.8,1174.4c172.7,0,345.5,0,518.2,0c8.4,0,16.9-0.4,25.2,0.9c17,2.8,27.3,13.3,29.4,30.4c2.2,18-5,32-22.2,38.2
		c-9,3.3-19.5,3.7-29.3,3.7c-348.5,0.2-697,0.2-1045.5,0c-9.1,0-18.6-0.4-27.1-3c-17.5-5.5-25.6-18.7-24.2-36.9
		c1.4-18.3,11.9-29.5,29.9-32.5c8.2-1.4,16.8-0.9,25.2-0.9C375.8,1174.4,549.3,1174.4,722.8,1174.4z"/>
	<path d="M719.4,1442.9c-91.7,0-183.5,0-275.2,0c-7.6,0-15.4,0.4-22.9-0.9c-18.1-3.2-28.3-15-29.7-32.9c-1.4-17,6.8-30.2,22.9-35.7
		c9.8-3.4,21-3.6,31.6-3.7c183.5-0.2,367-0.1,550.5-0.1c1.5,0,3.1,0,4.6,0c32.9,0.2,50.5,13,50.6,36.8c0.2,24-16.9,36.6-50.2,36.6
		C907.5,1442.9,813.4,1442.9,719.4,1442.9z"/>
	<path d="M234.9,195.3c13,7.9,23.9,12.1,31.7,19.6c32.4,31.2,64.2,63.2,95.7,95.4c18.7,19.1,19.4,40.9,3,56.5
		c-15.7,15-36.1,13.7-54.7-4.6c-32.7-32.1-64.9-64.7-97.2-97.1c-12.6-12.6-18.2-28.4-8.9-43.5C210.9,211.2,223.7,204.7,234.9,195.3z
		"/>
	<path d="M1208.5,197.3c9.1,6.6,23.9,11.9,27.7,21.5c4.5,11.5,4.8,31.6-2.4,39.6c-34.7,38.5-71.8,74.8-109.5,110.4
		c-14.7,13.9-33.2,11.2-47.3-3.2c-14.1-14.3-16.6-32.8-2.8-47.5c35.6-37.7,72.8-73.9,110-110.1
		C1189.1,203.2,1197.7,201.9,1208.5,197.3z"/>
	<path d="M758.2,110.1c0,22.9,0.4,45.9-0.1,68.8c-0.5,24.5-16.2,41-37.3,40.6c-20.4-0.4-35.6-16.4-35.8-39.7
		c-0.5-46.6-0.5-93.2,0-139.8c0.3-25.2,15-40.3,37.3-39.9c21.3,0.4,35.3,15,35.9,39.1C758.6,62.8,758.1,86.5,758.2,110.1z"/>
	<path d="M108.9,758c-22.9,0-45.9,0.4-68.8-0.1c-25.2-0.6-40.3-15.1-39.9-37.3c0.4-21.3,15.1-35.5,39.1-35.8
		c46.6-0.5,93.2-0.5,139.8,0c24.5,0.2,41,16.1,40.5,37.3c-0.5,20.4-16.4,35.3-39.7,35.9C156.3,758.4,132.6,758,108.9,758z"/>
	<path d="M1331.5,758c-22.2,0-44.3,0.3-66.5-0.1c-25-0.4-41.4-15-41.8-36.1c-0.4-21.2,16.1-36.8,40.7-37.1
		c45.8-0.4,91.7-0.4,137.5,0c25.8,0.2,40.9,13.9,41.2,36c0.3,23-15.2,36.8-42.4,37.2C1377.4,758.2,1354.4,758,1331.5,758z"/>
	<path d="M684.9,723.4c0-64.9-0.3-129.8,0.1-194.7c0.2-25.1,15.3-40.2,37.5-39.7c21.2,0.5,34.7,15.3,35.7,39.4
		c0.3,7.6,0.1,15.3,0.1,22.9c0,57.3,0,114.5,0,178.6c12.8-12.7,21.8-22,31.2-30.9c18.4-17.4,39.7-19,55.2-4.5
		c15.8,14.8,14.6,37.7-3.9,56.5c-29.4,30-59.1,59.7-89.1,89.1c-20.2,19.8-39.7,20-60,0.3c-30.6-29.9-60.9-60.1-90.8-90.7
		c-17.3-17.7-17.8-40.4-2.7-54.9c15.4-14.8,36.8-13.4,55.1,4.1c9.2,8.8,17.7,18.3,26.6,27.5C681.6,725.4,683.2,724.4,684.9,723.4z"
		/>
</g>
</svg>
