<?xml version="1.0" encoding="utf-8"?>
<!-- Generator: Adobe Illustrator 24.0.2, SVG Export Plug-In . SVG Version: 6.00 Build 0)  -->
<svg version="1.1" id="Bold" xmlns="http://www.w3.org/2000/svg" xmlns:xlink="http://www.w3.org/1999/xlink" x="0px" y="0px"
	 viewBox="0 0 1442.9 1442.9" style="enable-background:new 0 0 1442.9 1442.9;" xml:space="preserve">
<path d="M1442.1,749.9c-3,53.2-13.8,106.1-32.3,157c-27.8,76.5-74.5,146.5-135,201.7l-0.1,0.1c-31.5,28.7-67.2,54.4-107.1,77.1
	c-130.8,74.4-293.1,84.2-434,33.6c-51.1-18.3-99.3-44.6-142.1-78c-49-38.2-92.8-85.7-125.9-138.3c-1-1.6-2-3.2-3-4.8
	c-12.6-22.2-4.1-50.7,19.1-62.2l1.9-0.9c20.8-10.4,46-3,58.2,16.8c29.5,47.7,66.6,88.6,112.1,122.2c56.2,41.4,118.8,67.8,187.7,79.2
	c69.4,11.5,138,7.1,204.7-14.6c135.1-43.9,236.3-145.4,280.6-272.1c0.1-0.2,0.1-0.4,0.2-0.6c15.9-45.3,24.5-93.8,24.5-143.7V720
	c-0.2-50.1-8.8-98.5-24.5-143.7l-0.2-0.6c-44.3-126.7-145.6-228.2-280.6-272.1c-66.7-21.7-135.3-26.1-204.7-14.6
	c-68.9,11.4-131.5,37.8-187.7,79.2c-45.6,33.6-82.6,74.5-112.1,122.2c-12.2,19.8-37.4,27.1-58.2,16.8l-1.9-0.9
	c-23.1-11.5-31.6-39.9-19.1-62.1c0.4-0.8,0.9-1.5,1.4-2.3c0.6-0.9,1.2-1.9,1.8-2.8c137.9-211.3,417.6-306.5,652.9-208.2
	C1321.8,315.9,1454.6,529.3,1442.1,749.9z M968.9,721.2L968.9,721.2c0-25.3-20.5-45.8-45.8-45.8H202.5c-12.7,0-19.1-15.4-10.1-24.4
	c16-16,31.6-31.6,47-46.9c17.6-17.6,17.7-46.2,0.1-63.9c-0.2-0.2-0.4-0.4-0.6-0.6c-17.6-17.7-46.3-17.7-64-0.1
	C118,596.3,60.7,653.6,4.2,710.1c-5.6,5.6-5.6,14.6,0,20.2l172.1,172.1c17.3,17.3,45.4,17.3,62.7,0c0.2-0.2,0.4-0.4,0.6-0.6
	c17.3-17.3,17.3-45.4-0.1-62.7c-15.6-15.5-31.4-31.3-47.6-47.5c-9-9-2.6-24.4,10.1-24.4h721C948.4,767,968.9,746.5,968.9,721.2z"/>
</svg>
