<?xml version="1.0" encoding="utf-8"?>
<!-- Generator: Adobe Illustrator 24.0.2, SVG Export Plug-In . SVG Version: 6.00 Build 0)  -->
<svg version="1.1" id="Bold" xmlns="http://www.w3.org/2000/svg" xmlns:xlink="http://www.w3.org/1999/xlink" x="0px" y="0px"
	 viewBox="0 0 1442.9 1442.9" style="enable-background:new 0 0 1442.9 1442.9;" xml:space="preserve">
<path d="M0,794.8c7.3-24.7,12.7-50.7,31.1-69.7c15.8-16.3,34-30.3,52.2-44c6.3-4.7,9.6-8.1,9-16.4c-6.1-94.2,46.3-180,133.1-218.8
	c83.2-37.2,182.2-17.8,248.2,48.2c4.1,4.1,11.1,8.3,16.3,7.7c54.6-5.8,102,9.7,140.7,45.4c21.8-15.6,41.9-32.6,64.4-45.5
	c40-22.9,83.9-29.2,129.3-21.5c8.8,1.5,13.6-1,19.3-6.9c101.1-106,256.3-119.9,372.6-31c79.6,60.8,114.8,143.6,108.7,243.6
	c-0.6,9.7,1.3,14.8,10.7,19.3c71.9,34.5,115.1,110.6,106.3,185.6c-9.7,82.9-67,146.9-147.9,163.9c-15.5,3.3-31.7,4.3-47.5,4.3
	c-241.3,0.3-482.6,0.2-723.9,0.2c-70.2,0-126.3-26.8-166.6-85.4c-2.9-4.2-10.6-7.4-16-7.4c-57.7-0.5-115.6-2.2-173.2,0.1
	C78.7,970,11.7,910.4,1.5,836.5c-0.1-0.8-1-1.6-1.5-2.3C0,821.1,0,807.9,0,794.8z M627.2,649.9c1.2,0.2,0.3,0.2-0.6-0.1
	c-72.5-24.2-119.9,2.3-137.6,76c-1,4.3-7.1,9.1-11.8,10.5c-27.6,7.9-53.2,19.5-71.8,41.9c-37.4,45.2-43.6,96.8-20.9,149.2
	c24.1,55.9,69.8,84.6,131.2,84.6c245.5,0.3,491,0.1,736.5,0.2c37.3,0,70-11.6,97.8-36.4c67.8-60.6,61.4-179.6-24.4-223.2
	c-17.3-8.8-35.9-15.1-54-22.6c9.5-42.1,10.6-82.2,3-115.1c-22.6-97.9-95-167.1-195.4-181c-90.4-12.5-165.2,17.9-220.1,92.4
	c-5.9,8-11,7.2-18.7,5.1c-68-18.4-126.9-2.8-172.6,51.1C651.4,601.7,641.2,626.1,627.2,649.9z M328.7,918.4
	c0-26.6-3.6-52.8,0.7-77.7c11-64.6,48.5-110.3,108-138.2c4.9-2.3,10-7.2,11.9-12.2c26.1-65.5,72.9-96.9,143.3-95.8
	c4.1,0.1,8.2-1.1,12.4-1.7c0.6-1.7,1.3-3.4,1.9-5.1c-11.6-8.1-22.3-18-34.8-24c-30.6-14.9-63.4-15.5-96.3-9.3
	c-7.8,1.5-12.7,0.4-17.8-6.4c-7.6-10-16.5-19.3-25.9-27.7c-56.3-50.9-135.3-60.5-201.5-24.9c-66.2,35.6-102,108.1-90.3,183.3
	c1.5,9.9,2.9,19.9,4.4,30.2c-4.5,0.7-7.3,1.1-10,1.6c-56.2,10.9-90.2,52.4-87.5,107.1c2.6,53.8,41.9,98.3,93.8,100.2
	C203.7,920.2,266.6,918.4,328.7,918.4z"/>
</svg>
