<?xml version="1.0" encoding="utf-8"?>
<!-- Generator: Adobe Illustrator 24.0.2, SVG Export Plug-In . SVG Version: 6.00 Build 0)  -->
<svg version="1.1" id="Bold" xmlns="http://www.w3.org/2000/svg" xmlns:xlink="http://www.w3.org/1999/xlink" x="0px" y="0px"
	 viewBox="0 0 1442.9 1442.9" style="enable-background:new 0 0 1442.9 1442.9;" xml:space="preserve">
<g>
	<path d="M719.8,293.7c236.3-2.2,428.2,188.7,429.6,427.2c1.4,234.3-188.9,426.5-424,428.4c-236.6,1.9-430.3-187.7-431.8-422.8
		C292,486.7,479.8,295.9,719.8,293.7z M1075.9,723.1c0.3-196.9-157.4-356.3-352.2-356.2C525.1,367.1,367.8,523.1,367,720.9
		C366.2,917.5,524.9,1076,722.6,1076C917.1,1075.9,1075.7,917.6,1075.9,723.1z"/>
	<path d="M1099.3,380.3c-9.3-7.4-23.9-13.6-28.2-24.1c-4.4-10.5-3.6-29.7,3.4-37.4c34.9-38.4,71.9-75,109.8-110.5
		c14.5-13.6,33.3-11.3,47.6,3.1c14.3,14.4,16.1,33.2,2.5,47.7c-35.6,37.8-72.9,74-110.2,110.1C1119.2,374,1110.7,375.4,1099.3,380.3
		z"/>
	<path d="M380.6,343.4c-6.8,9-12.3,23.7-22,27.3c-11.7,4.4-31.7,4.7-39.7-2.5c-38.6-34.7-75.1-71.8-110.6-109.7
		c-13.6-14.5-11.2-33.4,3.2-47.6c14.5-14.2,33.2-16,47.7-2.4c37.8,35.6,74.1,72.9,110.4,110.1C374.3,323.7,375.7,332.2,380.6,343.4z
		"/>
	<path d="M1245.5,1208.8c-6.6,9-12,23.8-21.6,27.4c-11.6,4.4-31.6,4.6-39.7-2.6c-38.5-34.7-74.9-71.8-110.4-109.6
		c-13.8-14.7-10.9-33.2,3.5-47.4c14.5-14.2,32.9-16.2,47.5-2.4c37.7,35.6,73.9,72.8,110.1,110
		C1239.8,1189.3,1240.9,1197.9,1245.5,1208.8z"/>
	<path d="M234.3,1245.6c-9.4-7.2-24.1-12.9-27.6-22.6c-4.2-11.7-4.2-31.6,3.1-39.7c34.1-37.9,70.7-73.5,107.7-108.7
		c14.6-13.9,32.4-12,47.6,1.3c14.7,12.8,17.3,34.3,3.2,49.2c-35.1,37.1-71.5,72.8-108.1,108.4C254.6,1239,245.5,1240.6,234.3,1245.6
		z"/>
	<path d="M684.8,107.7c0-22.2-0.3-44.3,0.1-66.5c0.4-25.8,14-40.9,36-41.2c22.3-0.3,36.9,14.8,37.2,40.1c0.5,46.6,0.5,93.2,0,139.9
		c-0.3,23.2-15.6,39.2-36,39.6c-21.2,0.4-36.7-16.2-37.2-40.7C684.4,155.1,684.8,131.4,684.8,107.7z"/>
	<path d="M108.9,758.2c-22.2,0-44.3,0.2-66.5-0.1C15.3,757.7-0.3,743.8,0,720.9c0.3-22.1,15.4-35.8,41.2-36
		c45.1-0.4,90.2-0.3,135.3,0c26.4,0.2,43.4,15.3,43,37.2c-0.4,21.8-17.3,35.8-44.1,36.1C153.2,758.4,131,758.2,108.9,758.2z"/>
	<path d="M1333.1,684.8c23.7,0,47.4-0.5,71.1,0.1c23.9,0.6,38.6,14.9,38.7,36.2c0.2,21.5-14.4,36.5-38,36.9
		c-47.4,0.6-94.8,0.6-142.2,0c-23.2-0.3-39.1-15.8-39.3-36.2c-0.2-20.4,15.7-36.2,38.6-36.8C1285.7,684.3,1309.4,684.8,1333.1,684.8
		z"/>
	<path d="M758.1,1333.4c0,23.7,0.5,47.4-0.1,71.1c-0.7,23.8-15.2,38.4-36.5,38.4c-21.3,0-36.2-14.7-36.5-38.4
		c-0.6-47.4-0.6-94.8,0-142.1c0.3-23,16.1-39,36.5-39c20.4,0,36,15.9,36.6,38.9C758.6,1286,758.1,1309.7,758.1,1333.4z"/>
	<path d="M1211.3,544.4c-11.8-10.8-26.8-18.2-30.2-29.3c-3.5-11.2,0.2-32.3,8.4-38c20.2-13.8,44-24.3,67.9-29.8
		c9.6-2.2,28.4,9.8,33.2,20c4.8,10.2,2.1,32.6-5.7,38.3C1264,521.1,1238.8,530.6,1211.3,544.4z"/>
	<path d="M266.9,940.9c-1.5,26.8-22.8,33.6-42.4,41.9c-20.6,8.7-40.9,23.9-63.6,4.9c-17.7-14.9-18.3-42.9,1.5-55.2
		c19.1-11.9,40.5-21.4,62.2-27.4C247.2,899,267.4,918.1,266.9,940.9z"/>
	<path d="M542.6,227.9c-4.9,19.1-13,30.9-29.5,35.9c-17.7,5.4-32.6-0.7-41.3-15.8c-9.8-17-18-35.4-24.2-54c-5.6-17,1.4-31.7,17-40.9
		c14.9-8.8,32.4-8.4,41.6,5.1C520.8,179.7,530.7,204.5,542.6,227.9z"/>
	<path d="M1305.9,922.6c0.7,32.3-21.2,51-44.1,44.7c-18.2-5-36-12.3-53.2-20.2c-19.1-8.9-26-27.2-19.2-45.5
		c7-18.7,26.1-28.1,46.4-21.5c15.9,5.1,32.5,9.8,46.5,18.3C1293.4,905,1301.1,917.4,1305.9,922.6z"/>
	<path d="M940.5,1176.7c21.4,1.4,32.1,15.3,38.6,33.7c8.3,23.3,30.3,45.3,8.5,71.7c-16.2,19.7-46.1,16-59.4-7.7
		c-8.5-15.2-15.8-31.3-21.6-47.8C897.8,1201.3,915.2,1176.6,940.5,1176.7z"/>
	<path d="M566.3,1229.3c-8,18.2-16.3,42.8-29.4,64.6c-9.2,15.2-27.5,16-43.1,7.9c-15.7-8.2-23.4-22.7-18.1-40.2
		c5.7-18.9,12.7-37.5,21.4-55.2c7.8-15.8,22.3-22.5,40.2-18.1C555,1192.7,563.5,1205.1,566.3,1229.3z"/>
	<path d="M922.2,256.2c-31-0.5-49.4-22-43.5-43.9c5.1-19,12.6-37.6,21.2-55.3c8.8-18.2,29.4-24.8,46.7-16.2
		c17.8,8.9,25.9,23.8,19.6,43.5c-5.3,16.7-10.2,34-19.1,48.7C940.4,244.1,927.6,251.4,922.2,256.2z"/>
	<path d="M222.5,570.4c-27.8-12.3-51.9-20.2-72.9-33.1c-15.1-9.2-15.8-27.3-7.5-43.2c7.9-15.2,21.8-22.9,38.1-18.4
		c19.7,5.4,39.2,12.9,57.4,22.2c16.3,8.2,22.3,25.4,14.9,41.1C246.7,551,233.3,559.5,222.5,570.4z"/>
</g>
</svg>
