<?xml version="1.0" encoding="utf-8"?>
<!-- Generator: Adobe Illustrator 24.0.2, SVG Export Plug-In . SVG Version: 6.00 Build 0)  -->
<svg version="1.1" id="Bold" xmlns="http://www.w3.org/2000/svg" xmlns:xlink="http://www.w3.org/1999/xlink" x="0px" y="0px"
	 viewBox="0 0 1442.9 1442.9" style="enable-background:new 0 0 1442.9 1442.9;" xml:space="preserve">
<path d="M430.6,464.7c0-60.3-0.4-120.7,0.1-181C431.7,137,540.1,14.2,679.1,1.4c153.2-14.1,282.2,83.1,309.4,234.1
	c3.4,18.6,3.4,38,3.5,57c0.3,126-0.2,252.1,0.7,378.1c0.1,11.3,5.7,25.3,13.5,33.3c123.7,126.7,165.2,276.2,110.1,444
	c-55.5,169-178.7,266.3-354.7,291.1c-179.6,25.3-357.8-75.4-437-241.8c-78.3-164.4-42.1-364.8,89-489.2
	c12.1-11.5,17.6-22.5,17.3-39.4C430,600.7,430.6,532.7,430.6,464.7z M918.8,482.2c-0.2,0-0.4,0-0.6,0c0-71,1.9-142.1-0.4-213.1
	c-4-125-124.3-217.6-246.5-192.1c-100.6,21-166.6,102.5-167.2,208.6c-0.7,135.9-0.5,271.9,0.1,407.8c0.1,22.5-7.5,38.4-24.4,53.5
	c-97.4,87-137.4,196.1-117.5,325c24,154.8,148.3,273.9,303.5,294.2c154.5,20.2,304.7-64.1,369.1-207.1c64-142,26.7-310.2-92.4-412.5
	c-17.3-14.9-24.3-31.2-24.1-53.6C919.3,622.8,918.8,552.5,918.8,482.2z M1107.1,293.5c-25.2,0.4-41.3,14.9-41.2,36.2
	c0.1,21,16.2,36.5,41.2,36.8c62.5,0.6,125,0.6,187.6-0.1c24.5-0.3,40.6-16.9,39.9-37.9c-0.7-20.6-15.9-34.5-40-34.9
	c-31.2-0.5-62.5-0.1-93.8-0.1C1169.6,293.4,1138.3,293.1,1107.1,293.5z M1291.3,660c26.6-0.5,43.3-15.2,43.3-37
	c0-22-16.3-36-43.5-36.1c-60.2-0.3-120.5-0.3-180.7,0c-27.6,0.1-43.9,13.4-44.6,35.2c-0.7,22.5,16.7,37.6,44.8,38
	c29.7,0.4,59.5,0.1,89.2,0.1C1230.3,660.1,1260.9,660.5,1291.3,660z M1101.3,147.1c-20.5,1.1-35.5,15.8-35.2,34.7
	c0.3,19.8,10.6,35.3,30.6,36.5c36.3,2.1,72.9,2.1,109.2,0c20-1.1,30.3-16.6,30.7-36.4c0.4-19-14.5-33.6-35.1-34.7
	c-16.7-0.9-33.4-0.2-50.2-0.2C1134.7,147,1118,146.2,1101.3,147.1z M1151.8,440.1c-15.2,0-30.4,0-45.6,0c-1.5,0-3,0.1-4.6,0.2
	c-20.6,1.8-35.6,15.7-35.5,34.6c0.1,19.9,10.3,35.5,30.3,36.7c36.3,2.2,72.9,2.1,109.2,0.2c20-1.1,30.5-16.4,31.1-36.2
	c0.6-19-14.3-33.8-34.8-35c-16.7-1-33.4-0.2-50.2-0.2C1151.8,440.3,1151.8,440.2,1151.8,440.1z M845.4,590.3
	c0,71.8,0.3,143.5-0.2,215.3c-0.1,13.2,3.1,22.1,13.9,31c83.5,69.1,108,183.5,60.9,279.6c-46.8,95.4-155.5,148.1-258.2,125.1
	c-106.1-23.8-181.7-114.9-182.7-223c-0.7-72.7,27.3-133.9,83.4-180.7c11.3-9.4,15.1-18.6,15.1-32.8c-0.4-141.2-0.8-282.5,0-423.7
	c0.4-79.9,60.5-138.7,137.7-136.9c69.3,1.6,127.7,56.9,129.4,126.2c1.8,73.2,0.4,146.6,0.4,219.8
	C845.1,590.3,845.3,590.3,845.4,590.3z M772.1,608.6c-0.1,0-0.2,0-0.3,0c0-77.1,0.6-154.3-0.3-231.4c-0.3-32-22.8-55.5-53.1-59.2
	c-28-3.5-56.1,13.5-64.2,40.8c-3.4,11.4-3.5,24.1-3.5,36.2c-0.2,145.1-0.4,290.3,0.1,435.4c0.1,23.5-7.2,39.8-27.7,53.3
	c-48.2,31.8-72.1,78.5-70.7,136c1.9,74.8,57.1,138.3,127.4,150.4c76.7,13.1,149-25.2,177.7-94.1c29.3-70.3,6.4-148.7-57.8-191.9
	c-20-13.5-28.4-29.4-28.1-53.2C772.6,756.8,772.1,682.7,772.1,608.6z"/>
</svg>
