<?xml version="1.0" encoding="utf-8"?>
<!-- Generator: Adobe Illustrator 24.0.2, SVG Export Plug-In . SVG Version: 6.00 Build 0)  -->
<svg version="1.1" id="Bold" xmlns="http://www.w3.org/2000/svg" xmlns:xlink="http://www.w3.org/1999/xlink" x="0px" y="0px"
	 viewBox="0 0 1442.9 1442.9" style="enable-background:new 0 0 1442.9 1442.9;" xml:space="preserve">
<path d="M701.7,1444c-20.4-7.7-42.3-12.8-60.9-23.6c-61.2-35.6-88.6-110.7-67.1-177.9c22-68.8,87.9-113.4,159.7-108.1
	c70.8,5.2,129.6,59.6,140.7,130c13.3,84.5-41.9,161.7-126.6,177.1c-2.2,0.4-4.2,1.6-6.4,2.5C728,1444,714.9,1444,701.7,1444z
	 M0,964.9c0.8,4.1,2.2,8.1,2.5,12.3c4.9,67.3,18.9,132.9,43.7,195.5c14.8,37.3,33.3,73.4,51.7,109.1c10.4,20.2,33.6,26.5,53.4,17.7
	c18.9-8.4,29.1-30,23.1-50.4c-2-6.6-5.7-12.8-9.1-18.9c-68.8-125-93.6-258.3-74.4-399.5c11-81.3,37.8-157.4,78.5-228.7
	c13.1-22.9,6.5-48.1-14.3-60c-21.1-12-45.8-4.6-58.9,18.1c-41.9,72.6-70.2,150.2-84.6,232.7c-4.7,27.2-7.7,54.6-11.5,82
	C0,904.8,0,934.8,0,964.9z M721.7,1.3c-18.8,0-37.6-0.5-56.4,0.1c-68.7,2.3-131.4,52.2-143.2,119.8c-5.8,33.1-3,68.2-1.1,102.2
	c11,201.1,22.9,402.2,34.6,603.3c1.8,30.5,1.9,61.2,6.6,91.3c12.6,80.9,78,132.4,164,131.6c85.3-0.8,151.2-63.2,156.3-147.9
	c4.9-82,9.6-164.1,14.4-246.1c9.6-163.6,19.5-327.1,28.7-490.7c4.2-75.1-44-141.3-117.2-158c-28-6.4-57.6-5.4-86.5-7.8
	C721.8-0.3,721.7,0.5,721.7,1.3z M1404.4,689c-16.2-43.8-37.1-86-57.5-128.1c-11.5-23.6-37.4-30.3-58.6-18.4
	c-20.4,11.6-26.8,36.4-15.1,58.8c2.4,4.6,5.1,9,7.5,13.6c80.7,152.5,98.8,312.1,53.3,478.7c-13.8,50.5-34.7,98-60.2,143.7
	c-15.6,28-2,58.6,27.8,64.7c18.1,3.7,35.3-5.2,46.3-24.5c63.1-110.9,94.1-230.3,94.9-336.7C1442.9,841.9,1431.3,761.9,1404.4,689z
	 M240.9,1191.7c14.1,25,38,33.3,60.1,21.1c21.8-12.1,27.1-37.3,13.7-62.4c-82.3-153.8-82.3-307.6,0.1-461.3
	c13.4-25.1,7.9-50.4-14-62.3c-22.1-12.1-46-3.6-60.1,21.4c-47.6,84.3-71,175.1-71.8,271.7C169.8,1016.7,193.2,1107.4,240.9,1191.7z
	 M1262.1,808.9c-10.7-58.6-32.4-113.5-62.4-165c-11.4-19.7-33.5-26.9-53.4-18.5c-18.6,7.8-29.3,28.2-24.3,48.6
	c1.7,7.1,5.7,13.8,9.2,20.4c54,100,70.4,205.9,48.8,317.5c-9.6,49.6-27.9,96.2-52.6,140.3c-16.2,29-0.8,60.8,30.6,65.1
	c17.3,2.3,33.1-6.6,43.5-24.9c48.1-84.7,71.6-175.8,75-273.4C1271.9,882.3,1268.8,845.3,1262.1,808.9z M344.2,985.5
	c7.2,44.9,22.9,87,45.8,126.3c11.1,19,32.6,26.3,52.3,18.6c18.7-7.3,29.9-27.5,25.3-48.1c-1.7-7.6-5.7-14.8-9.4-21.8
	c-22.1-41.3-33.8-85.3-35.2-132c-1.5-53.7,10.7-104.2,36.4-151.4c15.4-28.4,10.3-53.5-13-65.7c-22.9-12-45.9-2.5-61,25
	c-31.4,57.1-46.4,118.4-47.4,193.9C339.2,941.7,340.7,963.7,344.2,985.5z M1054.9,731.4c-12.9-22.8-37.5-30.9-58.6-19.3
	c-21.1,11.6-27.9,36.5-15.4,59.8c52.7,98.7,52.6,197.2-0.1,295.9c-12.4,23.3-5.6,48.2,15.6,59.7c21.3,11.6,45.5,3.5,58.5-19.5
	c33-58.4,49-121.4,49.7-176.6C1104.7,854.1,1087.3,788.5,1054.9,731.4z"/>
</svg>
