<?xml version="1.0" encoding="utf-8"?>
<!-- Generator: Adobe Illustrator 24.0.2, SVG Export Plug-In . SVG Version: 6.00 Build 0)  -->
<svg version="1.1" id="Bold" xmlns="http://www.w3.org/2000/svg" xmlns:xlink="http://www.w3.org/1999/xlink" x="0px" y="0px"
	 viewBox="0 0 1442.9 1442.9" style="enable-background:new 0 0 1442.9 1442.9;" xml:space="preserve">
<g>
	<path d="M0,1208.9c0-14.1,0-28.2,0-42.3c10.4-28.9,17.3-59.8,31.7-86.5c167.7-310.2,336.4-619.9,505.1-929.5
		c20.5-37.6,49.9-67,88.7-85.7C732.9,12.8,852,51.2,909.1,156c87,159.8,173.9,319.6,260.8,479.5c83.9,154.5,168.6,308.7,251.3,463.8
		c42.1,78.9,20.9,183.6-45.1,244.2c-43.7,40.2-95.1,57.7-154,57.6c-333.8-0.3-667.6-0.2-1001.5-0.2c-5.6,0-11.3-0.1-16.9-0.4
		c-83-4.8-144.3-44.2-181-118.5C11.5,1259.5,7.4,1233.4,0,1208.9z M805.9,682.6c0-11.7,0-23.5,0-35.2c0-57.7,0.4-115.4-0.1-173.1
		c-0.6-61.7-56.2-102-113-82.4c-34.8,12-55.9,44.1-56,85.8c-0.1,136.5-0.1,273.1,0,409.6c0,7.5,0.5,15.1,1.9,22.4
		c7.2,37.7,38.8,65.8,75.8,68.1c51.2,3.2,90.8-34.1,91.1-86.8C806.3,821.5,805.9,752.1,805.9,682.6z M721.8,1231.7
		c46.2-0.2,84.1-38.2,84-84.2c-0.1-45.8-38.3-84.1-84.2-84.5c-46.1-0.3-85.2,39.1-84.7,85.3C637.5,1194.5,675.5,1231.9,721.8,1231.7
		z"/>
</g>
</svg>
