<?xml version="1.0" encoding="utf-8"?>
<!-- Generator: Adobe Illustrator 24.0.2, SVG Export Plug-In . SVG Version: 6.00 Build 0)  -->
<svg version="1.1" id="Bold" xmlns="http://www.w3.org/2000/svg" xmlns:xlink="http://www.w3.org/1999/xlink" x="0px" y="0px"
	 viewBox="0 0 1442.9 1442.9" style="enable-background:new 0 0 1442.9 1442.9;" xml:space="preserve">
<g>
	<path d="M1442.9,735.5c-1.2,2.4-2.6,4.8-3.5,7.4c-10.9,30.2-35.1,48.3-67.1,48.8c-37.6,0.6-75.1,0.7-112.7,0
		c-40.5-0.7-70.7-31.8-70.4-71c0.4-38.5,30.5-68.8,70.4-69.6c36.1-0.7,72.3-0.3,108.5-0.1c36.5,0.2,59.8,17.2,72,51.7
		c0.6,1.7,1.8,3.1,2.7,4.6C1442.9,716.7,1442.9,726.1,1442.9,735.5z"/>
	<path d="M707.3,1442.9c-2.4-1.2-4.8-2.6-7.4-3.5c-30.2-10.9-48.4-35-48.9-67.1c-0.6-37.6-0.7-75.1,0-112.7
		c0.7-40.4,31.9-70.7,71-70.4c38.5,0.3,68.9,30.5,69.6,70.4c0.7,36.1,0.3,72.3,0.1,108.5c-0.2,36.5-17.2,59.8-51.7,72
		c-1.7,0.6-3.1,1.8-4.6,2.7C726.1,1442.9,716.7,1442.9,707.3,1442.9z"/>
	<path d="M721.3,1082.5c-199.1-0.1-360.7-161.6-361.1-360.8c-0.4-199.2,162.9-362.3,361.9-361.4c199.5,0.9,360.9,162.8,360.4,361.6
		C1082,921.2,920.4,1082.6,721.3,1082.5z"/>
	<path d="M263,1255.4c-30.5-4.2-52.3-17-64.9-42.9c-12.5-25.8-11.3-52.4,8.2-73.8c29.1-31.9,59.5-62.7,91.6-91.5
		c27-24.3,68.2-20.2,93.2,5.5c24.9,25.5,28.4,65.7,4.5,92.2c-28.9,32-59.8,62.4-91.7,91.4C293.3,1246,276.8,1249.2,263,1255.4z"/>
	<path d="M260.6,190.9c20.5-0.3,37.5,7.8,51.8,21.9c25.7,25.4,51.6,50.7,76.7,76.7c29.3,30.4,29.6,73,1.5,101
		c-27.7,27.7-70,28-100-0.5c-26.9-25.6-52.9-52-78.7-78.7c-21.6-22.4-27.4-49.1-15.3-77.8C208.4,206,230.7,192.1,260.6,190.9z"/>
	<path d="M1251.8,261.1c0.2,20.6-8.1,37.4-22.2,51.6c-25.1,25.3-50.1,50.8-75.7,75.7c-30.8,30-73.9,30.5-102.1,1.9
		c-27.9-28.3-27.3-70.7,2.1-101.1c25.1-26,50.8-51.5,76.7-76.7c22.7-22.1,49.8-28.2,79-15.6C1237.2,208.7,1250.8,231.2,1251.8,261.1
		z"/>
	<path d="M1182.3,1251.9c-20.6,0.5-37.6-7.7-51.8-21.7c-25.7-25.4-51.5-50.7-76.6-76.7c-29.3-30.4-29.7-72.9-1.8-101.1
		c27.9-28.1,70.8-27.9,101.1,1.3c26.4,25.4,52.2,51.4,77.6,77.7c21.6,22.4,27.5,49.1,15.4,77.8
		C1234.5,1236.8,1212.2,1250.6,1182.3,1251.9z"/>
	<path d="M791.9,128.1c0,18.3,0.4,36.6-0.1,54.9c-1.1,40.4-31.9,70.8-71,70.5c-38.5-0.3-69-30.5-69.7-70.3
		c-0.7-37.5-0.7-75.1,0-112.7C651.8,30.2,683.2-0.4,722,0c38.3,0.4,68.6,30.7,69.7,70.4C792.3,89.6,791.8,108.9,791.9,128.1z"/>
	<path d="M127,650.9c18.3,0,36.6-0.3,54.9,0.1c40.8,0.9,71.3,30.9,71.6,69.9c0.3,39.7-30.5,70.3-72,70.9c-36.6,0.5-73.2,0.5-109.9,0
		C31,791.1,0.3,760.8,0,721.9c-0.3-39.4,30.7-70.1,72.1-70.9C90.4,650.6,108.7,650.9,127,650.9z"/>
</g>
</svg>
