<?xml version="1.0" encoding="utf-8"?>
<!-- Generator: Adobe Illustrator 24.0.2, SVG Export Plug-In . SVG Version: 6.00 Build 0)  -->
<svg version="1.1" id="Capa_1" xmlns="http://www.w3.org/2000/svg" xmlns:xlink="http://www.w3.org/1999/xlink" x="0px" y="0px"
	 viewBox="0 0 763.2 763.2" style="enable-background:new 0 0 763.2 763.2;" xml:space="preserve">
<style type="text/css">
	.st0{fill:#F5F5F5;}
</style>
<g>
	<path class="st0" d="M738.6,462.2c-8.5-9.3-10.2-16.4-6.8-28.5c27.4-98.6-43.2-196-144.8-199.9c-11.5-0.5-15.9-5.5-20.2-14.8
		c-36.3-78.6-126.9-96.9-192.2-39.7c-5.6,4.9-15.8,8-23.1,7c-112.6-15.8-219,58.2-242,169.7c-2.5,11.8-6.6,17-18.5,20.2
		C38.6,390.1,1,438.3,0,490.9c-1.3,68.9,54.4,125.5,125.3,126c90.1,0.5,180.2,0.1,270.3,0.1c45.4,0,90.7,0,136.1-0.1
		c45.3,0,90.7,0.6,136-0.2c40.1-0.7,70.9-18.9,87-55.9C770.1,525.5,764.9,491.2,738.6,462.2z M729.9,543
		c-8.1,26.7-31.5,43.3-62.3,43.3c-182.4,0.1-364.7,0.2-547.1-0.1c-51.3-0.1-91.6-39.3-92.6-88.7c-1-51.6,36.1-92.9,87.6-95.2
		c15.2-0.6,19.2-6.6,20.4-20.3c7.6-88.8,84.3-161.9,173.6-166.1c95-4.5,177.4,59,194.9,149.7c5.5,28.4,4.5,56.3-2.9,84
		c-2.9,10.7-4.5,21.7,9,25.4c14,3.9,18.7-7.2,20.3-17.6c4.2-27.2,7.1-54.5,10.7-83.4c41.7,0.7,85,42.6,87.2,88.6
		c0.8,16.9-3.2,34.3-6.8,51.1c-2.1,9.9-4.5,19,6.5,23.7c12.3,5.2,17.7-3.7,21.8-13.4c32.1-75.1-14.1-162.6-95.7-178.6
		c-18.3-3.6-27.3-11.1-34.2-28.2c-20-49.2-55.6-85.2-103.1-109.3c-5.3-2.7-10.7-5.2-16.1-7.9c14.2-19.9,47.3-29.4,77.1-21.5
		c35.9,9.5,58.8,32.6,66,69.1c3,14.9,7.7,18.1,23.7,15.9c51.3-7,118.2,24.4,136.4,97.2c7.6,30.2,3.6,59.5-9.8,87.3
		c-5,10.3-3.9,15.9,6.5,22.2C728.4,486.8,738.6,514.2,729.9,543z"/>
</g>
</svg>
