<?xml version="1.0" encoding="utf-8"?>
<!-- Generator: Adobe Illustrator 24.0.2, SVG Export Plug-In . SVG Version: 6.00 Build 0)  -->
<svg version="1.1" id="Capa_1" xmlns="http://www.w3.org/2000/svg" xmlns:xlink="http://www.w3.org/1999/xlink" x="0px" y="0px"
	 viewBox="0 0 763.2 763.2" style="enable-background:new 0 0 763.2 763.2;" xml:space="preserve">
<style type="text/css">
	.st0{fill:#F5F5F5;}
</style>
<path class="st0" d="M740.6,349.1c-10.2-11.9-11.8-21.3-8-36c25.1-97.4-45.5-191.8-146.5-196.6c-10.5-0.5-15-4.7-19.1-13.8
	C532.6,25.1,439.8,5.2,376.2,60.5c-6.4,5.6-17.6,9.6-25.9,8.6c-115-13.8-218.6,59.6-241.3,173c-2.3,11.4-8,15.2-17.7,17.7
	c-32.2,8.4-57.1,27.4-73.7,55.8C-31.2,399,27.2,500.5,124.2,501c90,0.4,180,0.1,270,0.1c91.6,0,183.2,0.2,275-0.1
	c39.2-0.2,68.2-18.9,84.6-54.1C769.9,412.3,765.6,378.1,740.6,349.1z M729.4,427.9c-8.1,26.6-31,42.4-62.9,42.4
	c-181.1,0.1-362.3,0.2-543.4,0c-52.3,0-92.9-37.3-94.9-86.4c-2.2-52.4,33.7-94.1,86.7-98c15.8-1.2,20.1-6.8,21.3-21.4
	c7.3-89.3,86.3-162.7,177.7-166C406,95.2,489.2,161.6,504.6,250c5,28.5,4.2,56.4-3.3,84.2c-2.8,10.3-3.7,20.7,8.6,24.4
	c13.6,4.1,19.1-6.4,20.7-17.1c3.7-24.2,6.5-48.6,9.5-73.3c0.8-6.2,6.5-10.7,12.7-9.7c37.3,6.3,74.1,45.9,75.7,88.6
	c0.7,16.9-3.6,34.3-7.1,51.2c-2.1,9.9-4.4,19.2,7.1,23.4c11.2,4.1,16.9-3.7,21.2-12.8c34.5-73.3-15.2-166.4-97.6-180.8
	c-16.6-2.9-24.7-9.4-30.9-25.3c-20.2-51.4-56.9-88.4-106.1-113.2c0-0.1-0.1-0.1-0.1-0.1c-7.8-4-8.1-15-0.7-19.6
	c22.4-14,59.3-15.6,86.2,0.2c23.9,14.1,38.7,34.7,43.6,62.2c1.7,9.7,3.1,17.3,17.1,15.2c97.3-14.3,172.2,80.9,137.4,174.2
	c-1.3,3.6-2.4,7.4-4.3,10.6c-6,10.2-3,16,7,22.2C728.3,371.4,738.2,398.9,729.4,427.9z M651,580.1l37.6-25.1
	c6.2-4.1,7.9-12.5,3.7-18.7c-4.1-6.2-12.5-7.9-18.7-3.7L636,557.7c-15,10-35.1,8-47.8-4.7l-6.5-6.5c-25.3-25.3-66.4-25.3-91.7,0
	c-14.8,14.8-38.8,14.8-53.6,0c-25.3-25.3-66.4-25.3-91.7,0c-14.8,14.8-38.8,14.8-53.6,0c-25.3-25.3-66.4-25.3-91.7,0l-6.5,6.5
	c-12.7,12.7-32.9,14.7-47.8,4.7l-37.6-25.1c-6.2-4.1-14.5-2.5-18.7,3.7c-4.1,6.2-2.5,14.5,3.7,18.7l37.6,25.1
	c25.6,17.1,60,13.7,81.8-8.1l6.5-6.5c7.2-7.2,16.7-11.1,26.8-11.1s19.7,3.9,26.8,11.1c25.3,25.3,66.4,25.3,91.7,0
	c7.2-7.2,16.7-11.1,26.8-11.1c10.1,0,19.7,3.9,26.8,11.1c25.3,25.3,66.4,25.3,91.7,0c7.2-7.2,16.7-11.1,26.8-11.1
	s19.7,3.9,26.8,11.1l6.5,6.5c12.5,12.5,29.1,18.9,45.9,18.9C627.5,590.9,640.1,587.3,651,580.1z M651,651.7l37.6-25.1
	c6.2-4.1,7.9-12.5,3.7-18.7c-4.1-6.2-12.5-7.9-18.7-3.7L636,629.3c-15,10-35.1,8-47.8-4.7l-6.5-6.5c-25.3-25.3-66.4-25.3-91.7,0
	c-14.8,14.8-38.8,14.8-53.6,0c-25.3-25.3-66.4-25.3-91.7,0c-14.8,14.8-38.8,14.8-53.6,0c-25.3-25.3-66.4-25.3-91.7,0l-6.5,6.5
	c-12.7,12.7-32.9,14.7-47.8,4.7l-37.6-25.1c-6.2-4.1-14.5-2.5-18.7,3.7c-4.1,6.2-2.5,14.5,3.7,18.7l37.6,25.1
	c25.6,17.1,60,13.7,81.8-8.1l6.5-6.5c7.2-7.2,16.7-11.1,26.8-11.1s19.7,3.9,26.8,11.1c25.3,25.3,66.4,25.3,91.7,0
	c7.2-7.2,16.7-11.1,26.8-11.1c10.1,0,19.7,3.9,26.8,11.1c25.3,25.3,66.4,25.3,91.7,0c7.2-7.2,16.7-11.1,26.8-11.1
	s19.7,3.9,26.8,11.1l6.5,6.5c12.5,12.5,29.1,18.9,45.9,18.9C627.5,662.5,640.1,659,651,651.7z M651,723.3l37.6-25.1
	c6.2-4.1,7.9-12.5,3.7-18.7c-4.1-6.2-12.5-7.9-18.7-3.7L636,700.9c-15,10-35.1,8-47.8-4.7l-6.5-6.5c-25.3-25.3-66.4-25.3-91.7,0
	c-14.8,14.8-38.8,14.8-53.6,0c-25.3-25.3-66.4-25.3-91.7,0c-14.8,14.8-38.8,14.8-53.6,0c-25.3-25.3-66.4-25.3-91.7,0l-6.5,6.5
	c-12.7,12.7-32.9,14.7-47.8,4.7l-37.6-25.1c-6.2-4.1-14.5-2.5-18.7,3.7c-4.1,6.2-2.5,14.5,3.7,18.7l37.6,25.1
	c25.6,17.1,60,13.7,81.8-8.1l6.5-6.5c7.2-7.2,16.7-11.1,26.8-11.1s19.7,3.9,26.8,11.1c25.3,25.3,66.4,25.3,91.7,0
	c7.2-7.2,16.7-11.1,26.8-11.1c10.1,0,19.7,3.9,26.8,11.1c25.3,25.3,66.4,25.3,91.7,0c7.2-7.2,16.7-11.1,26.8-11.1
	s19.7,3.9,26.8,11.1l6.5,6.5c12.5,12.5,29.1,18.9,45.9,18.9C627.5,734.1,640.1,730.6,651,723.3z"/>
</svg>
