<?xml version="1.0" encoding="utf-8"?>
<!-- Generator: Adobe Illustrator 24.0.2, SVG Export Plug-In . SVG Version: 6.00 Build 0)  -->
<svg version="1.1" id="Capa_1" xmlns="http://www.w3.org/2000/svg" xmlns:xlink="http://www.w3.org/1999/xlink" x="0px" y="0px"
	 viewBox="0 0 763.2 763.2" style="enable-background:new 0 0 763.2 763.2;" xml:space="preserve">
<path d="M89.5,471.2c4.8-1.2,8.6-5,9.5-9.9c8.4-44.4,28.1-82.7,61.7-113c33.4-30,72.8-46.7,118.9-49.4c4.6-0.3,8.7-3.2,10.7-7.3
	c1.1-2.2,2.1-4.5,3.2-6.8c11.2-24.5,25.5-46.9,45.1-65.7c25-23.8,54.1-40.1,87.7-47.9c16.3-3.8,33-7.2,49.9-6.4
	c45.8,2.3,86.9,16.7,122.6,46.6c26.3,22,44.7,49.2,56.8,80.6c13.5,35.2,16.6,71.7,7.9,108.8c-6.2,26.7-16.1,51.7-32.3,74
	c-3.9,5.4-8.3,10.6-12.4,15.7c-2.8,3.4-3.6,8-2.2,12.1l5.1,15.4c1.3,3.8,4.2,6.8,8.1,8c3.4,1.1,6.9,2.3,10.4,3.5
	c40.7,14,61.9,56.7,52.1,96.7c-8.5,34.9-31,55-65,63.4c-4.7,1.2-9.8,1.1-14.7,1.1c-168.4,0.1-336.7-0.1-505.1,0.1
	c-39,0-81.7-27.9-98.4-66.6c-22-50.9-3.1-109.8,43.3-138.6C63.9,478.6,76.6,474.3,89.5,471.2z M476.8,557
	c-4.1,4.3-10.8,4.6-15.7,1.5c-7-4.5-7.2-7.7-4.2-17.5c8.4-26.5,9.2-53.7,3.2-80.4c-9.4-42.2-30.7-77.7-65.9-103.7
	c-9.5-7.1-20.1-12.9-30.8-18c-17.7-8.4-36.6-12-56.3-14.5c-16.8-2.1-32.3,0.6-48.1,3.4c-39.7,7.2-71.7,27.8-97.5,58.4
	c-19.7,23.3-32.2,50-36.7,80.3c-0.9,6.2-1.9,12.5-2.9,19c-1,6.2-6.3,10.8-12.6,10.8c0,0-0.1,0-0.1,0c-21.3,0-39.2,8.4-54.3,22.8
	c-17.4,16.6-25.9,36.9-26,61.3c-0.1,23.7,7.9,43.7,24.4,60.3c16.1,16.1,35.4,24.6,58.6,24.5c65.2-0.2,130.4-0.1,195.6-0.1
	c98.6,0,197.3,0,295.9,0c7.7,0,15.7,0.9,22.9-1.2c27.2-7.8,42.3-31.9,42.7-56.9c0.4-26.6-23-50.6-43.6-54.4
	c-5.2-1-10.4-1.8-15.6-2.7c-5.5-0.9-9.7-5.4-10.5-10.9c-8.4-58.3-60-97-101.9-98.3c-8-0.3-14.4,6.7-13.1,14.6
	c1.1,7.3,2.5,14.5,2.6,21.9c0.7,46.9-2.8,59.2-5.3,69.7C480.8,551,479.2,554.4,476.8,557z M322.6,283.7c-3.5,7.3,0.9,16,8.7,17.7
	c28.1,6.1,54.2,16.8,77.9,33.9c26.3,19,45.4,43.9,59.9,72.3c2.1,4.2,6.5,6.9,11.2,6.9c43.9-0.1,80.8,14.3,109.9,45.9
	c5.2,5.6,14.2,5.5,19.1-0.4c30.6-36.4,42.4-101.4,24.1-154.2c-24.2-69.6-91.8-118.2-168.4-115C405.8,193.2,348.5,229.3,322.6,283.7z
	 M486.8,86.2c-0.5-8.6-5.3-13.8-12.7-14c-7.3-0.2-12.8,5.1-13.1,13.5c-0.4,8.7-0.4,17.4,0,26.1c0.4,8.2,6.1,13.5,13.4,13.1
	c6.7-0.3,11.7-5.3,12.3-12.6c0.4-4.3,0.1-8.7,0.1-13.1C486.9,94.9,487.1,90.5,486.8,86.2z M348.4,116.2c-4.6-7.3-11.3-9.5-17.8-6.1
	c-6.5,3.4-8.8,10.6-5,18.1c3.9,7.8,8,15.5,12.6,22.9c4.3,7,11.8,8.9,18.1,5c5.7-3.5,7.7-10.3,4.7-17c-1.8-4-4.1-7.7-6.2-11.5
	C352.6,123.8,350.7,119.9,348.4,116.2z M241,212.3c-7.8-3.7-14.7-2-18.3,4.3c-3.7,6.4-1.8,13.6,5.4,18c7.4,4.5,15.1,8.8,22.9,12.7
	c7.4,3.6,14.8,1.1,18-5.4c2.9-6,1.1-12.8-5.1-16.9c-3.6-2.4-7.6-4.3-11.4-6.4C248.7,216.4,244.9,214.1,241,212.3z M622.5,127.9
	c3.6-7.9,1.7-14.7-4.7-18.2c-6.4-3.6-13.7-1.5-17.9,5.8c-4.4,7.5-8.5,15.3-12.2,23.2c-3.5,7.5-0.8,14.8,5.8,17.9
	c6,2.8,12.8,0.8,16.8-5.4c2.3-3.7,4.1-7.7,6.1-11.5C618.5,135.6,620.7,131.8,622.5,127.9z M716.4,234.7c7.3-4.6,9.5-11.3,6.1-17.9
	c-3.4-6.5-10.6-8.7-18.1-5c-7.8,3.9-15.5,8.1-22.9,12.7c-7,4.3-8.8,11.9-5,18.1c3.5,5.7,10.3,7.7,17,4.7c4-1.8,7.7-4.2,11.5-6.3
	C708.8,239,712.7,237.1,716.4,234.7z M749.5,374.4c8.6-0.6,13.7-5.6,13.7-12.9c0-7.4-5.3-12.7-13.7-12.9c-8.7-0.2-17.5-0.1-26.1,0.5
	c-8.2,0.5-13.4,6.4-12.9,13.7c0.4,6.6,5.5,11.6,12.8,12.1c4.3,0.3,8.7-0.1,13.1-0.2C740.8,374.6,745.1,374.7,749.5,374.4z
	 M703.2,508.9c7.6,4,14.6,2.6,18.5-3.6c3.9-6.2,2.3-13.5-4.7-18.2c-7.3-4.8-14.7-9.4-22.4-13.5c-7.2-3.9-14.7-1.7-18.2,4.7
	c-3.2,5.9-1.5,12.8,4.4,17.1c3.5,2.5,7.4,4.6,11.2,6.8C695.7,504.4,699.3,506.9,703.2,508.9z"/>
</svg>
