<svg id="Layer_1" data-name="Layer 1" xmlns="http://www.w3.org/2000/svg" xmlns:xlink="http://www.w3.org/1999/xlink" viewBox="0 0 765.52 1360.93"><defs><style>.cls-1{fill:url(#linear-gradient);}.cls-2{fill:url(#Degradado_sin_nombre_9);}.cls-3{fill:url(#Degradado_sin_nombre_53);}.cls-4{fill:url(#Degradado_sin_nombre_46);}.cls-5{fill:url(#Degradado_sin_nombre_33);}.cls-6{fill:url(#Degradado_sin_nombre_20);}.cls-7{fill:url(#Degradado_sin_nombre_26);}.cls-8{fill:url(#Degradado_sin_nombre_38);}.cls-9{fill:#f9f5d2;}.cls-10{fill:url(#Degradado_sin_nombre_62);}.cls-11{fill:#e6fffd;}.cls-12{fill:url(#Degradado_sin_nombre_141);}.cls-13{fill:url(#Degradado_sin_nombre_100);}.cls-14{fill:url(#Degradado_sin_nombre_141-2);}.cls-15{fill:url(#Degradado_sin_nombre_141-3);}.cls-16{fill:url(#Degradado_sin_nombre_132);}.cls-17{fill:url(#Degradado_sin_nombre_132-2);}</style><linearGradient id="linear-gradient" x1="382.76" y1="665.18" x2="382.76" y2="64.29" gradientUnits="userSpaceOnUse"><stop offset="0" stop-color="#fff5dc"/><stop offset="1" stop-color="#f46494"/></linearGradient><linearGradient id="Degradado_sin_nombre_9" x1="382.76" y1="665.18" x2="382.76" y2="64.29" gradientUnits="userSpaceOnUse"><stop offset="0" stop-color="#fff5dc"/><stop offset="1" stop-color="#00bac5"/></linearGradient><linearGradient id="Degradado_sin_nombre_53" x1="1602.63" y1="-303.16" x2="1603.65" y2="-303.16" gradientTransform="matrix(0, -589.41, -589.41, 0, -178104.27, 945270.1)" gradientUnits="userSpaceOnUse"><stop offset="0" stop-color="#fef6e1"/><stop offset="1" stop-color="#f0ff76"/></linearGradient><linearGradient id="Degradado_sin_nombre_46" x1="1602.63" y1="-303.16" x2="1603.65" y2="-303.16" gradientTransform="matrix(0, -589.41, -589.41, 0, -178104.27, 945270.1)" gradientUnits="userSpaceOnUse"><stop offset="0" stop-color="#fdf6e5"/><stop offset="1" stop-color="#ffe65b"/></linearGradient><linearGradient id="Degradado_sin_nombre_33" x1="435.7" y1="642.74" x2="435.7" y2="441.21" gradientUnits="userSpaceOnUse"><stop offset="0.01" stop-color="#96bac5"/><stop offset="1" stop-color="#00bac5"/></linearGradient><linearGradient id="Degradado_sin_nombre_20" x1="115.55" y1="433.69" x2="111.04" y2="288.95" xlink:href="#Degradado_sin_nombre_33"/><linearGradient id="Degradado_sin_nombre_26" x1="301.78" y1="639.16" x2="364.34" y2="518.18" xlink:href="#Degradado_sin_nombre_33"/><linearGradient id="Degradado_sin_nombre_38" x1="212.5" y1="804.83" x2="212.5" y2="580.12" xlink:href="#Degradado_sin_nombre_33"/><linearGradient id="Degradado_sin_nombre_62" x1="382.76" y1="722.13" x2="382.76" y2="845.62" gradientUnits="userSpaceOnUse"><stop offset="0" stop-color="#b7d6c5"/><stop offset="1" stop-color="#00bac5"/></linearGradient><linearGradient id="Degradado_sin_nombre_141" x1="76.94" y1="813.02" x2="76.94" y2="1020.02" gradientUnits="userSpaceOnUse"><stop offset="0" stop-color="#07a7ff"/><stop offset="0.77" stop-color="#2ecbff"/></linearGradient><linearGradient id="Degradado_sin_nombre_100" x1="343.45" y1="1124.34" x2="343.45" y2="1318.98" gradientUnits="userSpaceOnUse"><stop offset="0" stop-color="#31ceff"/><stop offset="1" stop-color="#0798ff"/></linearGradient><linearGradient id="Degradado_sin_nombre_141-2" x1="435.7" y1="777.8" x2="435.7" y2="962.96" xlink:href="#Degradado_sin_nombre_141"/><linearGradient id="Degradado_sin_nombre_141-3" x1="640.07" y1="698.19" x2="640.07" y2="910.69" xlink:href="#Degradado_sin_nombre_141"/><linearGradient id="Degradado_sin_nombre_132" x1="382.76" y1="1491.59" x2="382.76" y2="1966.07" gradientUnits="userSpaceOnUse"><stop offset="0.19" stop-color="#31ceff"/><stop offset="0.31" stop-color="#26c0ff"/><stop offset="0.56" stop-color="#15aaff"/><stop offset="0.79" stop-color="#0b9dff"/><stop offset="1" stop-color="#0798ff"/></linearGradient><linearGradient id="Degradado_sin_nombre_132-2" x1="382.76" y1="950.26" x2="382.76" y2="1255.83" xlink:href="#Degradado_sin_nombre_132"/></defs><title>day</title><rect class="cls-1" width="765.52" height="1360.93"/><rect class="cls-2" width="765.52" height="1360.93"/><path class="cls-3" d="M579.1,473.92A109.45,109.45,0,1,1,688.56,364.47,109.45,109.45,0,0,1,579.1,473.92m0-235.7A126.25,126.25,0,1,0,705.36,364.47,126.25,126.25,0,0,0,579.1,238.22"/><path class="cls-4" d="M579.1,255A109.45,109.45,0,1,0,688.56,364.47,109.45,109.45,0,0,0,579.1,255"/><path class="cls-5" d="M274.42,475.32s32.12-38.23,48.94-38.23,66.81,98.63,87,92.33,26.94-36.89,53.45-4.95S597,679.43,597,679.43L458.7,713.82Z"/><path class="cls-6" d="M25.27,338.25s53.44-53.87,79.09-53.88c24.33,0,98.21,139.92,98.21,139.92L87.85,499.41Z"/><path class="cls-7" d="M765.52,739.48S692.61,596.64,658.46,596.64c-8.65,0-116,97.21-183.39,45.63-54.38-41.62-180.63-193.52-227.4-250.67A28.87,28.87,0,0,0,208.12,387c-24,18.13-60.46,42.47-69.82,30.76C124,399.86,0,225.66,0,225.66V739.48Z"/><path class="cls-8" d="M0,444.85s29.1-47.92,53.91-34.67C67.27,417.33,147.7,527.42,162,531.5s39.76-41.8,87.68,21.41S425,739.48,425,739.48H0Z"/><circle class="cls-9" cx="579.1" cy="364.47" r="90.09" transform="translate(-88.1 516.24) rotate(-45)"/><polygon class="cls-10" points="0 739.48 765.52 739.48 765.52 1327.02 0 1319.02 0 739.48"/><path class="cls-11" d="M256.7,777.09c-81.23,0-153.55,2.11-200.38,5.39,46.83,3.27,119.15,5.38,200.38,5.38s153.56-2.11,200.38-5.38c-46.82-3.28-119.15-5.39-200.38-5.39"/><path class="cls-11" d="M246.88,819.49c-30.43,0-57.53,2.11-75.07,5.39,17.54,3.28,44.64,5.38,75.07,5.38s57.53-2.1,75.08-5.38c-17.55-3.28-44.64-5.39-75.08-5.39"/><path class="cls-11" d="M635.79,757.94c-41.83,0-79.08,2.1-103.2,5.38,24.12,3.28,61.37,5.38,103.2,5.38s79.09-2.1,103.21-5.38c-24.12-3.28-61.37-5.38-103.21-5.38"/><path class="cls-11" d="M729.79,779.78c-11,0-20.85,1.06-27.21,2.7,6.36,1.63,16.18,2.69,27.21,2.69s20.86-1.06,27.22-2.69c-6.36-1.64-16.19-2.7-27.22-2.7"/><path class="cls-11" d="M382.76,804c-13.78,0-26.05,1-34,2.69,7.94,1.64,20.21,2.69,34,2.69s26.05-1,34-2.69c-7.95-1.64-20.22-2.69-34-2.69"/><path class="cls-11" d="M341,861.9c-30.05,0-56.81,1.05-74.13,2.69,17.32,1.64,44.08,2.69,74.13,2.69s56.82-1,74.14-2.69C397.82,863,371.06,861.9,341,861.9"/><path class="cls-11" d="M151.08,848.43c-30.05,0-56.81,1.06-74.14,2.7,17.33,1.64,44.09,2.69,74.14,2.69s56.82-1.05,74.14-2.69c-17.32-1.64-44.08-2.7-74.14-2.7"/><path class="cls-11" d="M416.76,839.26c-30.06,0-56.82,1-74.14,2.69,17.32,1.64,44.08,2.69,74.14,2.69s56.81-1,74.13-2.69c-17.32-1.64-44.08-2.69-74.13-2.69"/><path class="cls-12" d="M34,968,21.5,987.93H33.79c-1.41,2.79-3,5.81-4.8,9H124.9c-1.8-3.19-3.39-6.21-4.8-9h12.29L119.85,968l15.9.7c-5-5.88-11.76-15-11.76-15h7.56c-10-7-21.62-31.6-28.92-49l8.76,3.09-11.2-21.37h13.72c-17.22-13.35-37-73.17-37-73.17S57.2,873.1,40,886.45H53.7L42.5,907.82l8.76-3.09c-7.31,17.42-18.94,42-28.92,49H29.9s-6.72,9.07-11.76,15Z"/><path class="cls-13" d="M0,965.32s191.54-.78,475.07,160.24c278.68,158.25,202.24,235.37,202.24,235.37L0,1334.1Z"/><path class="cls-14" d="M372.8,1005l-18.38,29.2h18c-2.06,4.1-4.4,8.53-7,13.21H506c-2.63-4.68-5-9.11-7-13.21h18L498.61,1005l23.3,1c-7.39-8.61-17.24-21.92-17.24-21.92h11.08c-14.64-10.29-31.69-46.32-42.4-71.85l12.85,4.52-16.42-31.32h20.11c-25.25-19.57-54.19-107.26-54.19-107.26s-28.94,87.69-54.19,107.26h20.12l-16.42,31.32,12.85-4.52c-10.72,25.53-27.77,61.56-42.41,71.85h11.09s-9.86,13.31-17.25,21.92Z"/><path class="cls-15" d="M567.88,958.93l-21.09,33.52h20.68c-2.37,4.7-5.06,9.78-8.08,15.15H720.74c-3-5.37-5.71-10.45-8.07-15.15h20.68l-21.09-33.52L739,960.1c-8.48-9.88-19.79-25.16-19.79-25.16h12.72c-16.8-11.8-36.36-53.15-48.66-82.45L698,857.67l-18.84-35.93h23.08c-29-22.47-62.18-123.1-62.18-123.1s-33.22,100.63-62.19,123.1H601l-18.84,35.93,14.74-5.18c-12.29,29.3-31.86,70.65-48.66,82.45h12.72s-11.31,15.28-19.79,25.16Z"/><path class="cls-16" d="M0,1117.42V1363H765.52V942.21C409.74,966.8,0,1117.42,0,1117.42Z"/><path class="cls-17" d="M0,1117.42V1363H765.52V942.21C409.74,966.8,0,1117.42,0,1117.42Z"/></svg>