<svg xmlns="http://www.w3.org/2000/svg" viewBox="0 0 247.53 247.53"><defs><style>.cls-1{fill:#f5f5f5;fill-opacity:0.4;}</style></defs><title>compass-rose-2</title><g id="Capa_2" data-name="Capa 2"><g id="Layer_3" data-name="Layer 3"><path class="cls-1" d="M223.68,123.76A99.48,99.48,0,0,0,204.57,65l43-65-65,43A99.91,99.91,0,0,0,65,43L0,0,43,65a99.91,99.91,0,0,0,0,117.53l-43,65,65-43a99.91,99.91,0,0,0,117.53,0l65,43-43-65A99.49,99.49,0,0,0,223.68,123.76ZM177.17,201a93.93,93.93,0,0,1-106.81,0,94.52,94.52,0,0,1-23.85-23.85,93.93,93.93,0,0,1,0-106.81A94.52,94.52,0,0,1,70.36,46.51a93.93,93.93,0,0,1,106.81,0A94.52,94.52,0,0,1,201,70.36a93.93,93.93,0,0,1,0,106.81A94.52,94.52,0,0,1,177.17,201Z"/></g></g></svg>