<svg id="wave" style="transform:rotate(0deg); transition: 0.3s" viewBox="0 0 1440 320" version="1.1" xmlns="http://www.w3.org/2000/svg"><defs><linearGradient id="sw-gradient-0" x1="0" x2="0" y1="1" y2="0"><stop stop-color="rgba(245, 245, 245, 1)" offset="0%"></stop><stop stop-color="rgba(245, 245, 245, 1)" offset="100%"></stop></linearGradient></defs><path style="transform:translate(0, 0px); opacity:1" fill="url(#sw-gradient-0)" d="M0,256L60,240C120,224,240,192,360,186.7C480,181,600,203,720,213.3C840,224,960,224,1080,213.3C1200,203,1320,181,1440,170.7C1560,160,1680,160,1800,154.7C1920,149,2040,139,2160,160C2280,181,2400,235,2520,240C2640,245,2760,203,2880,181.3C3000,160,3120,160,3240,170.7C3360,181,3480,203,3600,186.7C3720,171,3840,117,3960,96C4080,75,4200,85,4320,96C4440,107,4560,117,4680,106.7C4800,96,4920,64,5040,69.3C5160,75,5280,117,5400,117.3C5520,117,5640,75,5760,90.7C5880,107,6000,181,6120,213.3C6240,245,6360,235,6480,202.7C6600,171,6720,117,6840,128C6960,139,7080,213,7200,224C7320,235,7440,181,7560,165.3C7680,149,7800,171,7920,149.3C8040,128,8160,64,8280,53.3C8400,43,8520,85,8580,106.7L8640,128L8640,320L8580,320C8520,320,8400,320,8280,320C8160,320,8040,320,7920,320C7800,320,7680,320,7560,320C7440,320,7320,320,7200,320C7080,320,6960,320,6840,320C6720,320,6600,320,6480,320C6360,320,6240,320,6120,320C6000,320,5880,320,5760,320C5640,320,5520,320,5400,320C5280,320,5160,320,5040,320C4920,320,4800,320,4680,320C4560,320,4440,320,4320,320C4200,320,4080,320,3960,320C3840,320,3720,320,3600,320C3480,320,3360,320,3240,320C3120,320,3000,320,2880,320C2760,320,2640,320,2520,320C2400,320,2280,320,2160,320C2040,320,1920,320,1800,320C1680,320,1560,320,1440,320C1320,320,1200,320,1080,320C960,320,840,320,720,320C600,320,480,320,360,320C240,320,120,320,60,320L0,320Z"></path></svg>