<?xml version="1.0" encoding="utf-8"?>
<!-- Generator: Adobe Illustrator 24.0.2, SVG Export Plug-In . SVG Version: 6.00 Build 0)  -->
<svg version="1.1" id="Bold" xmlns="http://www.w3.org/2000/svg" xmlns:xlink="http://www.w3.org/1999/xlink" x="0px" y="0px"
	 viewBox="0 0 1442.9 1442.9" style="enable-background:new 0 0 1442.9 1442.9;" xml:space="preserve">
<path d="M721.3,540.7c218.4,0,436.9-0.1,655.3,0c46.8,0,77.2,38.9,62.5,79.8c-8.7,24.1-26.6,37.3-51.9,40.4
	c-4.3,0.5-8.8,0.3-13.2,0.3c-435,0-870,0-1305,0c-36.8,0-62.2-18.6-68.1-49.4c-6.5-33.9,18.9-67.4,53.7-70.8
	c6.2-0.6,12.5-0.3,18.8-0.3C289.5,540.7,505.4,540.7,721.3,540.7z M73.7,781.7c-6.3,0-12.6-0.3-18.8,0.3
	c-34.1,3.2-59.2,35.2-54.2,68.8c4.7,31.6,30.8,51.4,68.2,51.4c435,0,870,0,1305,0c4.4,0,8.8,0.3,13.2-0.2c25.3-3,43.3-16.2,52-40.2
	c14.9-40.9-15.5-80-62.3-80c-218.4-0.1-436.9,0-655.3-0.1C505.6,781.7,289.7,781.7,73.7,781.7z"/>
</svg>
