<?xml version="1.0" encoding="utf-8"?>
<!-- Generator: Adobe Illustrator 24.0.2, SVG Export Plug-In . SVG Version: 6.00 Build 0)  -->
<svg version="1.1" id="Bold" xmlns="http://www.w3.org/2000/svg" xmlns:xlink="http://www.w3.org/1999/xlink" x="0px" y="0px"
	 viewBox="0 0 1442.9 1442.9" style="enable-background:new 0 0 1442.9 1442.9;" xml:space="preserve">
<g>
	<path d="M56.4,1442.9c-4.2-1.8-8.3-3.7-12.5-5.5c-43.2-17.9-57.5-71.1-28.9-108c4.3-5.5,9.4-10.5,14.4-15.5
		c193.2-193.3,589-586.2,594.4-589.9c-6.8-7.2-403.6-404.3-598.3-598.8C5.8,105.6-4.5,83.3,1.9,55.4C14,2.5,76-17.7,117.1,17.7
		c4.6,4,8.8,8.4,13.1,12.8c192.6,192.6,585.1,586.3,589.9,592c5.3-5.1,402.3-401.6,596.8-596.3c22.6-22.6,47.9-32.3,79.1-22
		c25.4,8.5,38.5,28.3,46.9,52.2c0,9.4,0,18.8,0,28.2c-6.8,21.2-21.3,36.7-36.7,52.1c-191.1,190.8-580.5,580.6-585.7,586.1
		c5.3,4.6,394.3,392.5,584.7,582.6c15.7,15.7,30.6,31.5,37.7,53.1c0,9.4,0,18.8,0,28.2c-9,28.5-27.9,47.3-56.4,56.4
		c-9.4,0-18.8,0-28.2,0c-21.2-6.8-36.7-21.3-52.1-36.7c-190.8-191.1-580.6-580.5-586.7-586.3c-4.3,5.5-392.6,395.5-583,586.3
		c-15.4,15.4-30.9,29.9-52.1,36.7C75.2,1442.9,65.8,1442.9,56.4,1442.9z"/>
</g>
</svg>
