<?xml version="1.0" encoding="utf-8"?>
<!-- Generator: Adobe Illustrator 24.0.2, SVG Export Plug-In . SVG Version: 6.00 Build 0)  -->
<svg version="1.1" id="Bold" xmlns="http://www.w3.org/2000/svg" xmlns:xlink="http://www.w3.org/1999/xlink" x="0px" y="0px"
	 viewBox="0 0 1442.9 1442.9" style="enable-background:new 0 0 1442.9 1442.9;" xml:space="preserve">
<g>
	<path d="M0,468.4c4.7-27.2,7.3-54.9,14.4-81.4c36.1-136.3,114.9-237.9,251.4-282.5c143.7-46.9,271.9-14.3,376.7,96.2
		c30.1,31.7,54,69.2,81.3,104.8c2-3.3,5.3-9.2,8.8-15C775,218.9,829.3,159,904.7,121.2c90.5-45.3,184.9-48.8,278.7-14.7
		c136.7,49.7,215,152.5,247.3,291.2c31.4,134.9,0.1,258.4-75,372.5c-64.3,97.8-147.1,179.1-234.2,255.9
		c-121.8,107.5-245.4,212.8-368.3,319.1c-20.3,17.6-42,18.9-61,2.4c-141-122.6-282.6-244.5-422.1-368.7
		C201.7,917.9,139.7,850.3,89,773.4C41.8,701.8,9.2,624.9,2,538.5c-0.2-2.7-1.3-5.4-2-8.1C0,509.8,0,489.1,0,468.4z M720.3,1260.7
		c2.8-1.8,4.1-2.4,5.1-3.3c127.8-111.3,256.7-221.4,383.1-334.3c73.6-65.8,141-138,191.7-223.8c51.4-87.1,71.5-180.2,49-279.9
		c-24.9-110.4-84.8-193.9-194.4-233.4c-75.9-27.4-151.1-23-222.8,17c-60.3,33.7-102.3,84.6-134.1,144.4
		c-14.5,27.2-25.2,56.4-37.8,84.6c-7.4,16.5-20.2,25.6-38.5,25.7c-18.3,0.1-31.2-8.8-38.7-25.3c-2.5-5.5-4.4-11.4-6.6-17
		c-25.6-65.9-60-125.9-112.7-174.5c-113.6-104.7-281.1-89.7-377.1,8C80.5,356.6,61,486.2,108.2,626.6
		c24.5,72.7,69,134.6,121.4,189.5c58,60.7,117.9,119.8,180.5,175.8C511.9,1082.9,616.4,1170.9,720.3,1260.7z"/>
</g>
</svg>
