<?xml version="1.0" encoding="utf-8"?>
<!-- Generator: Adobe Illustrator 24.0.2, SVG Export Plug-In . SVG Version: 6.00 Build 0)  -->
<svg version="1.1" id="Bold" xmlns="http://www.w3.org/2000/svg" xmlns:xlink="http://www.w3.org/1999/xlink" x="0px" y="0px"
	 viewBox="0 0 1442.9 1442.9" style="enable-background:new 0 0 1442.9 1442.9;" xml:space="preserve">
<g>
	<path d="M1355.8,770.2c-64.4,97.8-147.1,179.1-234.2,255.9c-121.8,107.5-245.4,212.8-368.3,319c-20.3,17.6-42,18.9-61,2.4
		c-141-122.6-282.6-244.5-422.1-368.7C201.7,917.9,139.7,850.3,89,773.4C41.8,701.8,9.2,624.9,2,538.5c-0.2-2.7-1.3-5.4-2-8.1v-62
		c4.7-27.2,7.3-54.9,14.4-81.5c36.1-136.3,114.9-237.9,251.4-282.5c143.7-46.9,271.9-14.3,376.7,96.2c30.1,31.7,54,69.2,81.3,104.8
		c2-3.3,5.3-9.2,8.8-15C775,218.9,829.3,159,904.7,121.2c90.5-45.3,184.9-48.8,278.7-14.7c136.7,49.7,215,152.5,247.3,291.3
		C1462.2,532.6,1430.8,656.2,1355.8,770.2z"/>
</g>
</svg>
