<?xml version="1.0" encoding="utf-8"?>
<!-- Generator: Adobe Illustrator 24.0.2, SVG Export Plug-In . SVG Version: 6.00 Build 0)  -->
<svg version="1.1" id="Capa_1" xmlns="http://www.w3.org/2000/svg" xmlns:xlink="http://www.w3.org/1999/xlink" x="0px" y="0px"
	 viewBox="0 0 1715.9 1715.9" style="enable-background:new 0 0 1715.9 1715.9;" xml:space="preserve">
<path d="M874.9,1716c-5.7,0-11.4,0-17.1,0c-134.5,0.3-258.8-3.1-379.7-10.4c-110.8-6.7-212-45-292.5-110.7
	c-77.7-63.4-130.8-149.1-157.8-254.7c-23.5-92-24.7-182.2-25.9-269.5C1.1,1007.8,0.2,933.6,0,858.1c0.2-75.8,1.1-150,1.9-212.7
	c1.2-87.3,2.4-177.6,25.9-269.5c27-105.6,80-191.3,157.8-254.7c80.6-65.7,181.7-104,292.5-110.7C599,3.1,723.3-0.3,858.1,0
	c134.5-0.3,258.8,3.1,379.7,10.4c110.8,6.7,212,45,292.5,110.7c77.8,63.4,130.8,149.1,157.8,254.7c23.5,92,24.7,182.2,25.9,269.5
	c0.9,62.6,1.8,136.9,1.9,212.4v0.3c-0.2,75.5-1.1,149.7-1.9,212.4c-1.2,87.3-2.4,177.6-25.9,269.5c-27,105.6-80,191.3-157.8,254.7
	c-80.6,65.7-181.7,104-292.5,110.7C1122,1712.5,1003.1,1716,874.9,1716z M857.8,1581.9c132.3,0.3,253.8-3,371.8-10.2
	c83.8-5.1,156.4-32.3,216-80.8c55-44.9,92.9-106.8,112.6-184c19.5-76.5,20.7-158.7,21.7-238.2c0.9-62.2,1.7-135.9,1.9-210.7
	c-0.2-74.8-1.1-148.5-1.9-210.7c-1.1-79.5-2.2-161.7-21.7-238.2c-19.7-77.2-57.6-139.1-112.6-184c-59.5-48.5-132.2-75.7-216-80.8
	c-118-7.2-239.5-10.5-371.5-10.2c-132.3-0.3-253.8,3-371.8,10.2c-83.8,5.1-156.4,32.3-216,80.8c-55,44.9-92.9,106.8-112.6,184
	c-19.5,76.6-20.7,158.7-21.7,238.2c-0.9,62.3-1.7,136-1.9,210.8c0.2,74.5,1.1,148.3,1.9,210.5c1.1,79.5,2.2,161.7,21.7,238.2
	c19.7,77.2,57.6,139.1,112.6,184c59.5,48.5,132.2,75.7,216,80.8C604.3,1578.8,725.8,1582.2,857.8,1581.9z M854.6,1276.9
	c-231,0-418.9-187.9-418.9-418.9S623.6,439,854.6,439c231,0,418.9,187.9,418.9,418.9S1085.6,1276.9,854.6,1276.9z M854.6,573.1
	c-157.1,0-284.9,127.8-284.9,284.9s127.8,284.9,284.9,284.9c157.1,0,284.9-127.8,284.9-284.9S1011.7,573.1,854.6,573.1z
	 M1320.5,304.9c-55.5,0-100.5,45-100.5,100.5s45,100.5,100.5,100.5c55.5,0,100.5-45,100.5-100.5S1376,304.9,1320.5,304.9z"/>
</svg>
