<?xml version="1.0" encoding="utf-8"?>
<!-- Generator: Adobe Illustrator 24.0.2, SVG Export Plug-In . SVG Version: 6.00 Build 0)  -->
<svg version="1.1" id="Bold" xmlns="http://www.w3.org/2000/svg" xmlns:xlink="http://www.w3.org/1999/xlink" x="0px" y="0px"
	 viewBox="0 0 1442.9 1442.9" style="enable-background:new 0 0 1442.9 1442.9;" xml:space="preserve">
<path d="M819.7,721.5l581.9-581.9c27.1-27.1,27.1-71.1,0-98.2c-27.1-27.1-71.1-27.1-98.2,0L721.5,623.2L139.5,41.3
	c-27.1-27.1-71.1-27.1-98.2,0c-27.1,27.1-27.1,71.1,0,98.2l581.9,581.9L41.3,1303.4c-27.1,27.1-27.1,71.1,0,98.2
	c13.6,13.6,31.3,20.3,49.1,20.3s35.6-6.8,49.1-20.3l581.9-581.9l581.9,581.9c13.6,13.6,31.3,20.3,49.1,20.3s35.6-6.8,49.1-20.3
	c27.1-27.1,27.1-71.1,0-98.2L819.7,721.5z"/>
</svg>
