<?xml version="1.0" encoding="utf-8"?>
<!-- Generator: Adobe Illustrator 24.0.2, SVG Export Plug-In . SVG Version: 6.00 Build 0)  -->
<svg version="1.1" id="Bold" xmlns="http://www.w3.org/2000/svg" xmlns:xlink="http://www.w3.org/1999/xlink" x="0px" y="0px"
	 viewBox="0 0 1442.9 1442.9" style="enable-background:new 0 0 1442.9 1442.9;" xml:space="preserve">
<style type="text/css">
	.st0{fill:#F5F5F5;}
</style>
<path class="st0" d="M619.2,582c-11.6,11.5-25.2,17.5-39.3,17.6c-16.3,0-33.3-7.9-48.9-22.8c-14.4-13.8-27.2-29.8-40.8-46.8
	c-4.1-5.2-8.4-10.5-12.7-15.8c-8.3-10.2-20.7-16-33.8-16c-8.5,0-16.8,2.5-23.9,7.1l-1.3,0.9c-12.4,8.1-19.8,21.8-19.8,36.6v51.8
	c0,45,0,90.7,0.1,134.9c0.1,132.5,0.2,269.4-0.6,404.2c-0.2,41.1-22.1,67.2-57.3,68.1c-0.5,0-1.1,0-1.6,0
	c-15.6,0-29.4-5.8-39.9-16.7c-11.5-11.9-18.5-29.1-20.1-49.5c-0.8-9.5-0.7-19.3-0.5-29.8c0.1-4.1,0.1-8.4,0.1-12.7
	c0-165.7,0-337.1-0.2-505.7c0-12.4-1-24.5-1.9-36.2c-0.3-4-0.6-7.7-0.9-11.5c-1-13.8-8.6-26.5-20.3-33.8l-0.2-0.1
	c-7-4.4-15-6.7-23.3-6.7c-13.5,0-26.5,6.4-34.7,17.2c-3.6,4.7-7.1,9.4-10.5,14c-12.6,16.9-24.5,32.8-38.2,46.1
	c-15.3,14.9-32.2,22.8-49,22.8c-14.2,0-27.8-5.9-39.1-17c-12.6-12.3-19.3-26.5-19.1-41.1c0.1-15.5,7.8-31.7,22.2-46.6
	c75-77.4,152.3-154.7,229.7-229.7c16.1-15.6,31.8-23.5,46.5-23.5c14.6,0,30,7.8,45.9,23.2c0,0,0,0,0.1,0.1
	c71.7,69.2,146.9,144.3,230,229.5c13.8,14.3,21.3,30.4,21.5,46.7C637.3,555.9,631.1,570.2,619.2,582z M1280.1,853.2
	c-15.6-12.8-20.3-25.6-20.2-44.6c0.7-103.4,0.4-206.8,0.4-310.3h-0.1V194.7c0-4.3-0.3-8.8-0.6-13.3C1254.3,81.7,1172.1,2.1,1072.2,0
	C961-2.3,875.1,82.4,874.5,197.9c-1,202.4-0.6,404.9,0,607.1c0,21.2-5,35.6-22.6,50.2c-80.6,67.5-120.7,156.1-119.1,260.7
	c2.5,156.1,113,287.7,264.9,319.9c147.3,31.2,302.9-44.5,369.7-180C1435.4,1117.9,1400.2,952.6,1280.1,853.2z M1277.8,1197.6
	c-41.3,99.2-145.4,154.3-255.8,135.5c-101.4-17.3-180.7-108.8-183.6-216.5c-2.2-82.8,32.3-150,101.8-195.8
	c29.5-19.4,40-43,39.9-76.7c-0.7-208.9-0.4-418-0.1-626.9c0-17.4,0.1-35.7,5-52.1c11.7-39.2,52.3-63.6,92.4-58.7
	c43.6,5.3,76,39.2,76.5,85.2c0.5,44.3,0.6,88.5,0.6,132.7h-42c-13.1,0-23.8,10.6-23.8,23.8s10.6,23.8,23.8,23.8h42
	c0,27-0.1,54-0.1,81h-81.2c-6.6,0-12.5,2.7-16.8,7c-4.3,4.3-7,10.2-7,16.8c0,13.1,10.6,23.8,23.8,23.8h81.1c0,8.2,0,16.4,0,24.5h0.4
	c0,18.8,0,37.6,0.1,56.5h-42.3c-6.6,0-12.5,2.7-16.8,7s-7,10.2-7,16.8c0,13.1,10.6,23.8,23.8,23.8h42.4c0.1,72,0.2,144-0.6,216.1
	c-0.4,34.3,11.7,57.3,40.5,76.6C1287,983.5,1320,1096.4,1277.8,1197.6z"/>
</svg>
