<?xml version="1.0" encoding="utf-8"?>
<!-- Generator: Adobe Illustrator 24.0.2, SVG Export Plug-In . SVG Version: 6.00 Build 0)  -->
<svg version="1.1" id="Bold" xmlns="http://www.w3.org/2000/svg" xmlns:xlink="http://www.w3.org/1999/xlink" x="0px" y="0px"
	 viewBox="0 0 1442.9 1442.9" style="enable-background:new 0 0 1442.9 1442.9;" xml:space="preserve">
<g>
	<path d="M1442.9,688.9v62.1c-8.3,24.8-19.5,47.8-39.2,65.8c-25.3,23.2-55,35.5-89.4,36c-7,0.1-14.1,0-23.6,0v16.7
		c0,138.3,0.2,276.6-0.1,414.9c-0.2,75.7-48.1,136.8-120.5,153.8c-12.7,3-26.1,4.1-39.1,4.1c-73.4,0.4-146.8,0.2-220.2,0.2
		c-31.9,0-48.9-16.8-48.9-48.6c-0.1-108.2-1.2-216.4,0.5-324.6c0.8-47.2-31.4-82.8-81.8-80.9c-39.5,1.5-79,0.2-118.5,0.3
		c-49.2,0.2-77.8,28.8-77.9,78.2c-0.1,107.7,0,215.5,0,323.2c0,36.8-15.6,52.3-52.3,52.3c-71.5,0-143,0.1-214.5,0
		c-94.8-0.1-161.8-66.8-161.9-161.5c-0.2-136.4,0-272.9,0-409.3v-17.5c-16.1-1.4-31.6-1.3-46.5-4.2C58.4,840.3,24,810.5,7.6,762.2
		C-8.5,714.3,1.4,670.4,34,631.8c4.2-5,9-9.6,13.7-14.3c184-184,368-367.8,551.8-552C626,39,651.8,11.8,689.2,0.1h67.8
		c35.7,11.5,61.1,36.8,86.8,62.5c180.9,181.4,362,362.5,543.4,543.3C1411.4,630.2,1433.3,655.2,1442.9,688.9z"/>
</g>
</svg>
