<?xml version="1.0" encoding="utf-8"?>
<!-- Generator: Adobe Illustrator 24.0.2, SVG Export Plug-In . SVG Version: 6.00 Build 0)  -->
<svg version="1.1" id="Bold" xmlns="http://www.w3.org/2000/svg" xmlns:xlink="http://www.w3.org/1999/xlink" x="0px" y="0px"
	 viewBox="0 0 1442.9 1442.9" style="enable-background:new 0 0 1442.9 1442.9;" xml:space="preserve">
<g>
	<path d="M763.6,0c27.8,3.7,55.9,6.1,83.4,11.4c228.4,43.9,399.1,168.3,511,371.8c62.9,114.4,91.5,238.5,83.5,368.6
		c-16.8,270.8-145.3,473.7-381.9,606.1c-113.9,63.7-238.4,91.7-368.5,83.7c-270.8-16.7-473.4-145.3-606.3-381.6
		C35.5,972.1,9.4,876.4,2.4,775.8c-0.3-4.1-1.6-8.1-2.4-12.2c0-28.2,0-56.4,0-84.5c0.8-4,2.1-8.1,2.4-12.1
		c7-100.6,33.6-196,82.3-284.1c112.2-203.2,282.6-327.6,511-371.5c27.5-5.3,55.6-7.7,83.4-11.4C707.3,0,735.5,0,763.6,0z
		 M721.9,65.4C360.9,64.6,66.3,358.7,65.4,720.8c-0.8,361.1,293.3,655.6,655.4,656.5c361.1,0.8,655.6-293.3,656.5-655.4
		C1378.1,360.8,1084,66.3,721.9,65.4z"/>
	<path d="M557.8,681.7c3.3-13.4,5.9-25.1,9.3-36.7c0.9-3.1,4.1-6.7,7-7.8c48.9-17.5,97-37.8,151-34.6c45.9,2.8,88.1,30.3,95.3,71.2
		c4.5,25.6,2.8,53.8-3.1,79.2c-13.3,57.5-31.5,113.8-46.5,170.9c-4.4,16.6-6.2,34.2-7.1,51.4c-1.1,21.7,9.4,34.5,30.5,39
		c25.4,5.4,50.4,2.4,74.7-6.3c2-0.7,4.2-1.1,8.5-2.3c-3.5,13.4-6.2,25.2-9.7,36.6c-0.8,2.5-4.1,5-6.8,5.9
		c-32.4,10.8-64.3,24.3-97.6,31c-40.5,8.1-81.3,6.3-117.6-19c-28.3-19.8-40.4-46.8-38.7-80.8c2.9-57.5,25.6-110.2,39.2-165.1
		c8-32.2,16.9-64.5,20.7-97.3c4-34.4-14.1-50.1-49.3-48.2c-10.2,0.5-20.5,2.3-30.6,4.4C577.9,675.2,568.8,678.5,557.8,681.7z"/>
	<path d="M792,360.7c53.5,0.1,93.7,37.6,93.2,85.9c-0.4,36.5-26.9,67.8-66.7,78.6c-42.8,11.6-91.1-8.4-109.4-45.2
		c-25.9-52.3,11.2-112.7,73-118.7C785.8,360.9,789.6,360.9,792,360.7z"/>
</g>
</svg>
