<?xml version="1.0" encoding="utf-8"?>
<!-- Generator: Adobe Illustrator 24.0.2, SVG Export Plug-In . SVG Version: 6.00 Build 0)  -->
<svg version="1.1" id="Bold" xmlns="http://www.w3.org/2000/svg" xmlns:xlink="http://www.w3.org/1999/xlink" x="0px" y="0px"
	 viewBox="0 0 1442.9 1442.9" style="enable-background:new 0 0 1442.9 1442.9;" xml:space="preserve">
<path d="M654.6,1341.1c8.8,0,16-7.2,16-16c0-38.2-0.1-75.2,0.1-112.3c0.1-9.4-6.3-8.8-12.2-9.6c-59.2-8.3-115.1-26.5-166.6-56.9
	C375.5,1077.6,301,977.6,271.1,845.8c-7.2-31.8-9.4-64.9-11.4-97.6c-1.8-29.5,20.3-52,48.5-52.9c29.1-0.9,51.7,20.2,52.5,50.6
	c2.1,82.3,25.8,157,77.3,221.8c59.2,74.5,135.8,120.7,230.2,133.8c153.5,21.2,290.3-46.5,367.8-180.5
	c31.2-53.9,44.3-113.1,46.1-175.1c0.8-28.2,20.5-48.7,46.9-50.4c29.9-1.9,54.5,20,54.4,49.9c-0.3,89.4-23.8,172.5-72.2,247.8
	c-59.7,93-142.3,157.4-247.5,191.6c-26.2,8.5-53.8,12.3-80.7,18.8c-4,1-10.2,5.1-10.3,7.8c-0.6,37.5-0.5,75-0.5,113.7
	c0,8.8,7.2,16,16,16c0,0,0.1,0,0.1,0c56.3,0,112.7-0.4,169,0.2c35.6,0.4,59.2,33.2,48.3,66.1c-6.9,20.7-21.9,32.1-43.4,35
	c-4.2,0.5-8.4,0.4-12.7,0.4c-152.1,0-304.3-0.1-456.4,0.1c-17.2,0-32.9-3.1-44.8-16.3c-14.1-15.6-18.3-33.8-10.1-53.6
	c8.5-20.6,24.7-31.7,47.1-31.8c55.9-0.3,111.8-0.1,167.6-0.2C653.5,1341.1,654,1341.1,654.6,1341.1z"/>
<path d="M986.4,684.5c0.2-83.8,0.3-167.5,0.2-251.3c-0.1-78.3,6-155.3-11.2-232.7C963.3,145.9,935.3,99.6,892.5,63
	C843.5,21.2,777.7-3,713.2,0.3c-61.3,3.1-121.9,26-167.8,67.2C474,131.7,457,218.2,456.3,310.3c-0.3,41.7-0.4,83.4-0.5,125.1
	c-0.1,83.4,0.3,166.8,1,250.3c0.2,26.8,3.8,54.3,10.5,80.3c37,142.7,199.7,227.7,338.4,178c112.1-40.2,180.3-136.9,180.6-257
	C986.4,686.2,986.4,685.3,986.4,684.5z"/>
</svg>
