<?xml version="1.0" encoding="utf-8"?>
<!-- Generator: Adobe Illustrator 24.0.2, SVG Export Plug-In . SVG Version: 6.00 Build 0)  -->
<svg version="1.1" id="Bold" xmlns="http://www.w3.org/2000/svg" xmlns:xlink="http://www.w3.org/1999/xlink" x="0px" y="0px"
	 viewBox="0 0 1442.9 1442.9" style="enable-background:new 0 0 1442.9 1442.9;" xml:space="preserve">
<g>
	<path d="M1380.7,862.3c-11.1,33.2-20.7,67-33.7,99.5c-38,94.6-95.3,176.1-171.4,244.1c-78.7,70.3-169.2,119.6-270.8,147.4
		c-97.8,26.8-197.4,33.2-296.8,12.3C351,1311.5,179.5,1158.4,93.9,910.8C61.2,816.2,55.5,718,69.1,618.6
		c15.7-115.1,58.4-219.3,128.7-311.3c71.1-93.1,160.9-163.5,268.9-209.6c26.7-11.4,54.5-20.3,82.1-29.6c22.2-7.5,42.6-1.6,54.2,14.6
		c12.1,16.9,11.3,36.4-4,55.6c-51.6,64.3-83.2,137.5-97.2,218.4c-14.3,82.7-8.5,164,18.2,243.6c29.4,87.9,79.6,162.1,150.3,221.7
		C738.9,880,818,916.3,906.5,931.4c83.2,14.2,164.8,7.9,244.6-20.1c55.6-19.5,106.1-47.9,151.7-85.1c13.4-10.9,27.9-17.9,46.2-13.6
		c16.5,3.8,24.5,15.7,31.6,29.1C1380.7,848.6,1380.7,855.5,1380.7,862.3z"/>
</g>
</svg>
