<?xml version="1.0" encoding="utf-8"?>
<!-- Generator: Adobe Illustrator 24.0.2, SVG Export Plug-In . SVG Version: 6.00 Build 0)  -->
<svg version="1.1" id="Bold" xmlns="http://www.w3.org/2000/svg" xmlns:xlink="http://www.w3.org/1999/xlink" x="0px" y="0px"
	 viewBox="0 0 1442.9 1442.9" style="enable-background:new 0 0 1442.9 1442.9;" xml:space="preserve">
<path d="M1442.9,729.9c-27.6,28-53.8,57.5-83,83.6c-111,98.9-234.8,177.3-375.6,227.1c-87.4,30.9-177.3,48-270.2,46.9
	c-113.8-1.4-221.8-28.9-325.3-74.9C246.8,949.4,123.4,859.7,15.4,748.3c-20.5-21.2-20.6-32.7,0-53.8
	C143.1,563.7,290,462.1,463.3,400.9c189.3-66.8,376.7-59,561.8,16.7c152.1,62.2,283.2,155.2,398.2,271.8
	c7.2,7.3,13.2,15.7,19.7,23.6C1442.9,718.6,1442.9,724.2,1442.9,729.9z M1031.6,722.2c0.4-170.8-138.4-310.3-309-310.7
	c-170.8-0.4-310.4,138.4-310.7,309c-0.3,170.9,138.4,310.4,309,310.7C891.7,1031.6,1031.2,892.9,1031.6,722.2z M983.4,980
	c150.2-56.6,278.6-145.9,392.7-258.7C1261,608.4,1133,518.9,979.7,460.2C1125.7,607.7,1120.1,839.3,983.4,980z M67.4,721.4
	c114.8,112.8,243,202.4,393.4,258.7c-68.2-73-105-158.6-105.1-258.5c-0.1-99.9,36.8-185.6,104.7-258.7
	C310.1,519.4,181.9,608.6,67.4,721.4z M580.9,721c-0.2,77.3,62.8,140.9,140,141.3c77.9,0.4,141.7-63.2,141.6-141.1
	c-0.1-77.3-63.4-140.5-140.7-140.5C644.5,580.6,581.1,643.7,580.9,721z"/>
</svg>
