<?xml version="1.0" encoding="utf-8"?>
<!-- Generator: Adobe Illustrator 24.0.2, SVG Export Plug-In . SVG Version: 6.00 Build 0)  -->
<svg version="1.1" id="Bold" xmlns="http://www.w3.org/2000/svg" xmlns:xlink="http://www.w3.org/1999/xlink" x="0px" y="0px"
	 viewBox="0 0 1442.9 1442.9" style="enable-background:new 0 0 1442.9 1442.9;" xml:space="preserve">
<path d="M1284.2,714.6c0.1,27.5-15.7,46.1-39,46.9c-23.1,0.8-40.1-16.8-40.9-44.6c-2.8-102.2-32.2-195.5-92.5-278.6
	C995.9,278.5,797.5,207,602,254.9c-181.6,44.5-326.7,203.9-355.1,390.9c-3.4,22.4-4.4,45.2-5.5,67.8c-1.4,29.3-16.8,48-40.7,47.9
	c-24-0.1-39.5-19-39.5-48.3c-0.4-259.4,198.3-497.8,453.5-542.9c36.1-6.3,72.9-8.8,109.4-13.1c292,3.8,532.7,226,557.6,517.5
	C1282.7,688,1284.1,701.3,1284.2,714.6z M880.4,750.4c-11.9,71.4-73.8,126.3-148.2,131.2c-74.6,4.9-142-42.3-163.5-114.8
	c-23.6-79.5,16.5-162.5,94.9-193.4c14.9-5.8,19.8-12.8,19.5-28.6c-1-57.9-0.5-115.9-0.4-173.8c0.1-32.7,13.9-50.2,39.2-50.5
	c25.8-0.3,40.8,18.5,40.9,51.8c0.1,29,0.1,57.9,0.1,86.9c0,28.2,0.8,56.4-0.3,84.6c-0.6,16.1,3.7,24.1,20.2,30.5
	C853.9,602,893,674.4,880.4,750.4z M802.1,720.3c-0.4-44.7-37.1-80.5-81.3-79.4c-43.2,1.1-78.7,37.2-78.8,80.2
	c-0.2,44.2,36.1,80.1,80.8,80C767.9,800.9,802.6,765.5,802.1,720.3z M1311.5,1140.2c-105.6,148.7-266.6,252-445.1,288.6
	c-215.7,44.2-437.5-15.3-607.4-154c-32-26.1-60.4-56.2-86.8-87.7c-46.7-55.6-86.6-117.1-115.9-183.6C27.9,938.9,9.9,870,3.1,799.7
	C-4,725.2,1.4,649.9,16.4,576.6c1-4.7,2-9.4,3-14.1C85.7,262.8,337,38.5,642.7,4.1c70-7.9,141.1-5.1,210.4,7.7
	c300.8,55.7,536.4,298.7,581.6,601.4C1461.9,794.8,1421.5,985.4,1311.5,1140.2z M1364.7,720c-0.8-354-288.4-640.6-642.9-640.2
	C367,80.1,80.8,366.5,80.9,721.2c0.1,354.3,287.2,642.2,640.8,642.3C1075.7,1363.7,1365.4,1073.7,1364.7,720z"/>
</svg>
