<?xml version="1.0" encoding="utf-8"?>
<!-- Generator: Adobe Illustrator 24.0.2, SVG Export Plug-In . SVG Version: 6.00 Build 0)  -->
<svg version="1.1" id="Capa_1" xmlns="http://www.w3.org/2000/svg" xmlns:xlink="http://www.w3.org/1999/xlink" x="0px" y="0px"
	 viewBox="0 0 763.2 763.2" style="enable-background:new 0 0 763.2 763.2;" xml:space="preserve">
<style type="text/css">
	.st0{fill:#202020;}
</style>
<g>
	<path class="st0" d="M383.3,123.9c-147.6,0.5-258.6,116.6-259.5,257.8c-0.9,141,113.3,260,258.1,257.4
		c138.4,4.7,257.3-116.2,257.9-254.4C640.6,245.4,526.3,123.4,383.3,123.9z M381.9,616.4c-132.1,2.4-236.2-106.1-235.4-234.8
		c0.8-128.8,102.1-234.7,236.7-235.1c130.4-0.4,234.6,110.9,234,237.8C616.6,510.4,508.1,620.7,381.9,616.4z"/>
	<path class="st0" d="M48.7,396.1h-35c-7.5,0-13.6-6.1-13.6-13.6V381c0-7.5,6.1-13.6,13.6-13.6h35c7.5,0,13.6,6.1,13.6,13.6v1.5
		C62.3,390,56.2,396.1,48.7,396.1z"/>
	<path class="st0" d="M86.6,228l-30.3-17.5c-6.5-3.7-8.7-12-5-18.5l0.8-1.3c3.7-6.5,12-8.7,18.5-5l30.3,17.5c6.5,3.7,8.7,12,5,18.5
		l-0.8,1.3C101.4,229.5,93.1,231.7,86.6,228z"/>
	<path class="st0" d="M202.3,100.8l-16-31.1c-3.4-6.7-0.8-14.8,5.8-18.3l1.3-0.7c6.7-3.4,14.8-0.8,18.3,5.8l16,31.1
		c3.4,6.7,0.8,14.8-5.8,18.3l-1.3,0.7C213.9,110,205.7,107.4,202.3,100.8z"/>
	<path class="st0" d="M396.2,13.6v35c0,7.5-6.1,13.6-13.6,13.6h-1.5c-7.5,0-13.6-6.1-13.6-13.6v-35c0-7.5,6.1-13.6,13.6-13.6h1.5
		C390.1,0,396.2,6.1,396.2,13.6z"/>
	<path class="st0" d="M230,680l-17.5,30.3c-3.7,6.5-12,8.7-18.5,5l-1.3-0.8c-6.5-3.7-8.7-12-5-18.5l17.5-30.3c3.7-6.5,12-8.7,18.5-5
		l1.3,0.8C231.6,665.2,233.8,673.5,230,680z"/>
	<path class="st0" d="M100.7,566.8l-31.1,16c-6.7,3.4-14.8,0.8-18.3-5.8l-0.7-1.3c-3.4-6.7-0.8-14.8,5.8-18.3l31.1-16
		c6.7-3.4,14.8-0.8,18.3,5.8l0.7,1.3C110,555.2,107.4,563.4,100.7,566.8z"/>
	<path class="st0" d="M396.8,714.6v35c0,7.5-6.1,13.6-13.6,13.6h-1.5c-7.5,0-13.6-6.1-13.6-13.6v-35c0-7.5,6.1-13.6,13.6-13.6h1.5
		C390.7,701.1,396.8,707.1,396.8,714.6z"/>
	<path class="st0" d="M714.5,369.9h35c7.5,0,13.6,6.1,13.6,13.6v1.5c0,7.5-6.1,13.6-13.6,13.6h-35c-7.5,0-13.6-6.1-13.6-13.6v-1.5
		C700.9,376,707,369.9,714.5,369.9z"/>
	<path class="st0" d="M678.6,535.4l30.3,17.5c6.5,3.7,8.7,12,5,18.5l-0.8,1.3c-3.7,6.5-12,8.7-18.5,5l-30.3-17.5
		c-6.5-3.7-8.7-12-5-18.5l0.8-1.3C663.8,533.9,672.1,531.7,678.6,535.4z"/>
	<path class="st0" d="M566,662.5l16,31.1c3.4,6.7,0.8,14.8-5.8,18.3l-1.3,0.7c-6.7,3.4-14.8,0.8-18.3-5.8l-16-31.1
		c-3.4-6.7-0.8-14.8,5.8-18.3l1.3-0.7C554.4,653.2,562.6,655.9,566,662.5z"/>
	<path class="st0" d="M535.7,84.4l17.5-30.3c3.7-6.5,12-8.7,18.5-5l1.3,0.8c6.5,3.7,8.7,12,5,18.5l-17.5,30.3
		c-3.7,6.5-12,8.7-18.5,5l-1.3-0.8C534.2,99.2,531.9,90.9,535.7,84.4z"/>
	<path class="st0" d="M663.2,199.9l31.1-16c6.7-3.4,14.8-0.8,18.3,5.8l0.7,1.3c3.4,6.7,0.8,14.8-5.8,18.3l-31.1,16
		c-6.7,3.4-14.8,0.8-18.3-5.8l-0.7-1.3C653.9,211.5,656.5,203.3,663.2,199.9z"/>
</g>
</svg>
