<?xml version="1.0" encoding="utf-8"?>
<!-- Generator: Adobe Illustrator 24.0.2, SVG Export Plug-In . SVG Version: 6.00 Build 0)  -->
<svg version="1.1" id="Capa_1" xmlns="http://www.w3.org/2000/svg" xmlns:xlink="http://www.w3.org/1999/xlink" x="0px" y="0px"
	 viewBox="0 0 763.2 763.2" style="enable-background:new 0 0 763.2 763.2;" xml:space="preserve">
<style type="text/css">
	.st0{fill:#202020;}
</style>
<path class="st0" d="M640.2,529.5c-3.5-1.2-7-2.4-10.4-3.5c-3.9-1.2-6.8-4.2-8.1-8l-5.1-15.4c-1.4-4.1-0.6-8.7,2.2-12.1
	c4.1-5.1,8.5-10.3,12.4-15.7c16.2-22.3,26.1-47.3,32.3-74c8.7-37.1,5.6-73.6-7.9-108.8c-12.1-31.4-30.5-58.6-56.8-80.6
	c-35.7-29.9-76.8-44.3-122.6-46.6c-16.9-0.8-33.6,2.6-49.9,6.4c-33.6,7.8-62.7,24.1-87.7,47.9c-19.6,18.8-33.9,41.2-45.1,65.7
	c-1.1,2.3-2.1,4.6-3.2,6.8c-2,4.1-6.1,7-10.7,7.3c-46.1,2.7-85.5,19.4-118.9,49.4c-33.6,30.3-53.3,68.6-61.7,113
	c-0.9,4.9-4.7,8.7-9.5,9.9c-12.9,3.1-25.6,7.4-37.1,14.4C6,514.4-12.9,573.3,9.1,624.2c16.7,38.7,59.4,66.6,98.4,66.6
	c168.4-0.2,336.7,0,505.1-0.1c4.9,0,10,0.1,14.7-1.1c34-8.4,56.5-28.5,65-63.4C702.1,586.2,680.9,543.5,640.2,529.5z M322.6,283.7
	c25.9-54.4,83.2-90.5,142.4-92.9c76.6-3.2,144.2,45.4,168.4,115c18.3,52.8,6.5,117.8-24.1,154.2c-4.9,5.9-13.9,6-19.1,0.4
	c-29.1-31.6-66-46-109.9-45.9c-4.7,0-9.1-2.7-11.2-6.9c-14.5-28.4-33.6-53.3-59.9-72.3c-23.7-17.1-49.8-27.8-77.9-33.9
	C323.5,299.7,319.1,291,322.6,283.7z M626.3,663.9c-7.2,2.1-15.2,1.2-22.9,1.2H307.5c-65.2,0-130.4-0.1-195.6,0.1
	c-23.2,0.1-42.5-8.4-58.6-24.5c-16.5-16.6-24.5-36.6-24.4-60.3c0.1-24.4,8.6-44.7,26-61.3c15.1-14.4,33-22.8,54.3-22.8h0.1
	c6.3,0,11.6-4.6,12.6-10.8c1-6.5,2-12.8,2.9-19c4.5-30.3,17-57,36.7-80.3c25.8-30.6,57.8-51.2,97.5-58.4c15.8-2.8,31.3-5.5,48.1-3.4
	c19.7,2.5,38.6,6.1,56.3,14.5c10.7,5.1,21.3,10.9,30.8,18c35.2,26,56.5,61.5,65.9,103.7c6,26.7,5.2,53.9-3.2,80.4
	c-3,9.8-2.8,13,4.2,17.5c4.9,3.1,11.6,2.8,15.7-1.5c2.4-2.6,4-6,4.8-10.1c2.5-10.5,6-22.8,5.3-69.7c-0.1-7.4-1.5-14.6-2.6-21.9
	c-1.3-7.9,5.1-14.9,13.1-14.6c41.9,1.3,93.5,40,101.9,98.3c0.8,5.5,5,10,10.5,10.9c5.2,0.9,10.4,1.7,15.6,2.7
	c20.6,3.8,44,27.8,43.6,54.4C668.6,632,653.5,656.1,626.3,663.9z"/>
<path class="st0" d="M486.8,86.2c-0.5-8.6-5.3-13.8-12.7-14c-7.3-0.2-12.8,5.1-13.1,13.5c-0.4,8.7-0.4,17.4,0,26.1
	c0.4,8.2,6.1,13.5,13.4,13.1c6.7-0.3,11.7-5.3,12.3-12.6c0.4-4.3,0.1-8.7,0.1-13.1C486.9,94.9,487.1,90.5,486.8,86.2z"/>
<path class="st0" d="M348.4,116.2c-4.6-7.3-11.3-9.5-17.8-6.1s-8.8,10.6-5,18.1c3.9,7.8,8,15.5,12.6,22.9c4.3,7,11.8,8.9,18.1,5
	c5.7-3.5,7.7-10.3,4.7-17c-1.8-4-4.1-7.7-6.2-11.5C352.6,123.8,350.7,119.9,348.4,116.2z"/>
<path class="st0" d="M241,212.3c-7.8-3.7-14.7-2-18.3,4.3c-3.7,6.4-1.8,13.6,5.4,18c7.4,4.5,15.1,8.8,22.9,12.7
	c7.4,3.6,14.8,1.1,18-5.4c2.9-6,1.1-12.8-5.1-16.9c-3.6-2.4-7.6-4.3-11.4-6.4C248.7,216.4,244.9,214.1,241,212.3z"/>
<path class="st0" d="M622.5,127.9c3.6-7.9,1.7-14.7-4.7-18.2c-6.4-3.6-13.7-1.5-17.9,5.8c-4.4,7.5-8.5,15.3-12.2,23.2
	c-3.5,7.5-0.8,14.8,5.8,17.9c6,2.8,12.8,0.8,16.8-5.4c2.3-3.7,4.1-7.7,6.1-11.5C618.5,135.6,620.7,131.8,622.5,127.9z"/>
<path class="st0" d="M716.4,234.7c7.3-4.6,9.5-11.3,6.1-17.9c-3.4-6.5-10.6-8.7-18.1-5c-7.8,3.9-15.5,8.1-22.9,12.7
	c-7,4.3-8.8,11.9-5,18.1c3.5,5.7,10.3,7.7,17,4.7c4-1.8,7.7-4.2,11.5-6.3C708.8,239,712.7,237.1,716.4,234.7z"/>
<path class="st0" d="M749.5,374.4c8.6-0.6,13.7-5.6,13.7-12.9c0-7.4-5.3-12.7-13.7-12.9c-8.7-0.2-17.5-0.1-26.1,0.5
	c-8.2,0.5-13.4,6.4-12.9,13.7c0.4,6.6,5.5,11.6,12.8,12.1c4.3,0.3,8.7-0.1,13.1-0.2C740.8,374.6,745.1,374.7,749.5,374.4z"/>
<path class="st0" d="M703.2,508.9c7.6,4,14.6,2.6,18.5-3.6s2.3-13.5-4.7-18.2c-7.3-4.8-14.7-9.4-22.4-13.5
	c-7.2-3.9-14.7-1.7-18.2,4.7c-3.2,5.9-1.5,12.8,4.4,17.1c3.5,2.5,7.4,4.6,11.2,6.8C695.7,504.4,699.3,506.9,703.2,508.9z"/>
</svg>
