<?xml version="1.0" encoding="utf-8"?>
<!-- Generator: Adobe Illustrator 24.0.2, SVG Export Plug-In . SVG Version: 6.00 Build 0)  -->
<svg version="1.1" id="Capa_1" xmlns="http://www.w3.org/2000/svg" xmlns:xlink="http://www.w3.org/1999/xlink" x="0px" y="0px"
	 viewBox="0 0 763.2 763.2" style="enable-background:new 0 0 763.2 763.2;" xml:space="preserve">
<style type="text/css">
	.st0{fill:#202020;}
</style>
<path class="st0" d="M666.6,466.8c7.1-3,14.1-5.8,21-8.9c29.8-13.6,54.5-33.8,72.6-61.1c3.2-4.8,3.7-14.1,1.1-18.9
	c-2.1-3.7-8.1-6.3-14.1-5.5c-7.8,1-10.1,1.8-13.8,2.5c-62,11.1-120.6-23.6-139.6-82.7c-19-59.2,8.2-121.2,64.6-149.5
	c0.1,0,0.1-0.1,0.2-0.1c13-6.7,11.9-25.8-1.3-32c-0.7-0.4-1.4-0.6-2-0.8c-96.4-27-201.2,36.5-224.2,135.3
	c-1.8,7.7-3.3,15.6-5.2,24.8c0,0.1-0.1,0.1-0.2,0.1c-3.2-1.4-5.1-2.2-6.7-3c-133.2-62.5-267.4,5.4-307.2,147
	c-2.8,9.9-9.1,10.9-17.2,12.6C34.6,439.2-6,494.9,0.4,554.9C7.1,614.3,58,659.6,118.6,659.6c177.2,0.1,354.4,0.1,531.6,0
	c50.5,0,85.8-29.5,93.5-77.5c6.8-42.4-20.2-83.4-65.5-98.1c-9.3-3-13.8-7.1-11.7-17.1L666.6,466.8z M715,576.3
	c-1.6,30.1-24.9,53-56.8,53.6c-40.7,0.8-81.5,0.3-122.3,0.3c-134.8,0-269.7,0.1-404.5-0.1c-49.7-0.1-84-28.6-91.6-75.2
	c-8.3-50.4,28.7-97.7,79.8-100.9c12.8-0.8,17.8-4.6,18.8-17.9c6.4-87.3,74.7-157.7,159.2-165.1c92.3-8,169.2,45.4,192.1,133.8
	c8.1,31,9.4,62.1,1,93.4c-2.6,9.8-4.7,20.6,8.4,24.1c13,3.5,16.8-6.7,19.7-16.5c9-30.9,9.3-62.1,3.5-93.6c-0.8-4.7-1.6-9.5-2.6-15.2
	c-0.1-0.1,0-0.2,0.1-0.2c53.5-5.9,108.8,35.7,119.6,89.5c3.2,15.5,7,23.4,25.7,24.7C696.7,513.2,716.8,542.2,715,576.3z
	 M659.6,437.1c-3.2,0.5-10.1-2.1-12.5-5.4c-31.4-44-74.2-65-127.8-66.5c-5.5-0.1-12.4-5.1-16.1-9.8c-14.3-18.3-27.8-37.3-41.1-56.3
	c-3.2-4.5-6.4-10.3-6.5-15.6c-2.1-78.1,76-154.2,153.7-150.2c1.3,0,2.7,1.1,4.2,1.8c-112.4,100.4-37.3,277.3,110.9,266.2
	c0.2,0,0.2,0.2,0.1,0.3C705.1,423.2,695.9,431.5,659.6,437.1z"/>
</svg>
