<?xml version="1.0" encoding="utf-8"?>
<!-- Generator: Adobe Illustrator 24.0.2, SVG Export Plug-In . SVG Version: 6.00 Build 0)  -->
<svg version="1.1" id="Capa_1" xmlns="http://www.w3.org/2000/svg" xmlns:xlink="http://www.w3.org/1999/xlink" x="0px" y="0px"
	 viewBox="0 0 763.2 763.2" style="enable-background:new 0 0 763.2 763.2;" xml:space="preserve">
<style type="text/css">
	.st0{fill:#202020;}
</style>
<path class="st0" d="M745.6,395.8c-6-6.6-7.2-11.7-4.8-20.3c19.5-70.1-30.7-139.3-102.9-142.1c-8.2-0.4-11.3-3.9-14.4-10.5
	c-25.8-55.9-90.2-68.9-136.6-28.2c-4,3.5-11.2,5.7-16.4,5c-56.1-7.9-110,15.6-142.9,57.6c-20.9-0.4-42.7,7.2-61.5,23.7
	c-4,3.5-11.2,5.7-16.4,5c-80-11.2-155.6,41.4-172,120.6C75.9,415,73,418.7,64.6,421c-37.2,9.9-64,44.1-64.7,81.5
	c-0.9,49,38.7,89.2,89,89.5c64,0.4,128.1,0.1,192.1,0.1c32.3,0,64.5,0,96.7-0.1c32.2,0,64.5,0.4,96.6-0.1
	c28.5-0.5,50.4-13.4,61.8-39.7c7-16,8-31.7,3-46.4c19.8,0,39.5,0,59.3-0.1c32.2,0,64.5,0.4,96.6-0.1c28.5-0.5,50.4-13.4,61.8-39.7
	C768,440.8,764.3,416.4,745.6,395.8z M518.7,539.5c-5.8,19-22.4,30.8-44.3,30.8c-129.6,0.1-259.2,0.1-388.8-0.1
	c-36.5-0.1-65.1-27.9-65.8-63c-0.7-36.7,25.7-66,62.3-67.7c10.8-0.4,13.6-4.7,14.5-14.4C102,362,156.5,310,220,307
	c28.1-1.3,54.6,5.7,76.9,19c7.2,4.3,14,9.3,20.3,14.8c20.9,18.5,35.8,43.6,41.4,72.6c3.9,20.2,3.2,40-2.1,59.7
	c-1,3.8-1.8,7.6-1.2,10.8c0.6,3.3,2.8,5.9,7.6,7.2c7.5,2.1,11.3-1.9,13.1-7.2c0.6-1.7,1-3.5,1.3-5.3c3-19.3,5-38.7,7.6-59.3
	c29.6,0.5,60.4,30.3,62,63c0,0.6,0,1.1,0.1,1.7c0.2,7.2-0.8,14.5-2.2,21.8c-0.8,4.3-1.8,8.6-2.7,12.8c-1.5,7-3.2,13.5,4.6,16.8
	c8.7,3.7,12.6-2.6,15.5-9.5c2.8-6.6,4.8-13.4,6-20.2c1.3-7.3,1.6-14.6,1.1-21.8c-2.8-40.1-32-76.5-75.1-85c-13-2.6-19.4-7.9-24.3-20
	c-10.5-25.8-27-46.4-48.4-62.4c-5.8-4.4-12.1-8.4-18.6-12c-2-1.1-4.1-2.2-6.2-3.3c-3.8-1.9-7.6-3.7-11.4-5.6
	c5.9-8.2,16.3-14,28.2-16.2c8-1.5,16.6-1.4,24.9,0.5c0.6,0.1,1.2,0.3,1.7,0.4c25.5,6.8,41.8,23.2,46.9,49.1
	c2.1,10.6,5.5,12.9,16.8,11.3c36.5-5,84,17.3,96.9,69.1c5.4,21.5,2.6,42.3-7,62c-2.6,5.3-2.9,8.8-0.1,12.1c1.1,1.3,2.6,2.5,4.7,3.7
	c8,4.9,14,11,17.8,18C521.3,515.8,522.4,527.5,518.7,539.5z M739.5,453.2c-5.8,19-22.4,30.8-44.3,30.8c-56.2,0-112.4,0.1-168.6,0.1
	c-0.6-0.7-1.1-1.3-1.7-2c-6-6.6-7.2-11.7-4.8-20.3c19.5-70.1-30.7-139.3-102.9-142.1c-8.2-0.4-11.3-3.9-14.4-10.5
	c-11.1-24-29.3-40.1-50.2-47.4c22.7-23.9,54.1-39.5,88-41.1c67.5-3.2,126.1,41.9,138.5,106.4c3.9,20.2,3.2,40-2.1,59.7
	c-2.1,7.6-3.2,15.4,6.4,18.1c9.9,2.8,13.3-5.1,14.4-12.5c3-19.3,5-38.7,7.6-59.3c29.6,0.5,60.4,30.3,62,63c0.6,12-2.3,24.4-4.8,36.3
	c-1.5,7-3.2,13.5,4.6,16.8c8.7,3.7,12.6-2.6,15.5-9.5c22.8-53.4-10-115.6-68-126.9c-13-2.6-19.4-7.9-24.3-20
	c-14.2-35-39.5-60.5-73.3-77.7c-3.8-1.9-7.6-3.7-11.4-5.6c10.1-14.1,33.6-20.9,54.8-15.3c25.5,6.8,41.8,23.2,46.9,49.1
	c2.1,10.6,5.5,12.9,16.8,11.3c36.5-5,84,17.3,96.9,69.1c5.4,21.5,2.6,42.3-7,62c-3.6,7.3-2.8,11.3,4.6,15.8
	C738.4,413.3,745.6,432.7,739.5,453.2z"/>
</svg>
