<?xml version="1.0" encoding="utf-8"?>
<!-- Generator: Adobe Illustrator 24.0.2, SVG Export Plug-In . SVG Version: 6.00 Build 0)  -->
<svg version="1.1" id="Capa_1" xmlns="http://www.w3.org/2000/svg" xmlns:xlink="http://www.w3.org/1999/xlink" x="0px" y="0px"
	 viewBox="0 0 763.2 763.2" style="enable-background:new 0 0 763.2 763.2;" xml:space="preserve">
<style type="text/css">
	.st0{fill:#202020;}
</style>
<path class="st0" d="M655.7,552.1c-0.7-2-1.8-3.7-3-5.2c-8.1-9.5-26-8.1-39.8-5.9c-98.7,16.1-204.5-44.4-240.7-137.6
	c-36.2-93.2,1.1-209.3,84.8-263.9c17-11.1,38.7-27.3,31.7-46.4c-4.9-13.3-21.2-17.8-35.2-19.5C327.3,58.4,195.2,128.5,137,241.5
	c-47.3,92-43,207.1,6.3,297.3C197.6,638,305.1,695.4,418,691.1c86.5-3.2,171-44.1,227.3-109.9C652.4,573,659.4,562.3,655.7,552.1z
	 M622.3,577.2c-2.2,4.2-6.1,8.1-9.4,11.1c-9.4,8.5-26.2,20-36.8,26.9c-14.2,9.3-29.2,17.4-44.7,24.1
	c-78.3,33.8-175.7,36.3-251.5-2.2c-85.3-43.3-139.3-134.3-149.2-229.5c-9.7-92.1,27-179.1,96.9-239.4C274.3,128,359,92,421.3,92
	c9.1,0,19.2-0.4,24.2,8.8c3.4,6.4,2,14.7-3.3,19.6c-23.5,21.9-50.6,43.3-69.6,69.9c-20.2,28.2-30.9,62.1-34.7,96.3
	c-3.9,35.5-3.5,71.3,6.7,105.8c1.6,5.4,3.4,10.8,5.5,16.1c17.8,45.2,47.8,83.7,86.8,111.3c20.3,14.3,42.6,25.5,66.4,33
	c30.2,9.6,68.4,8.1,100,7.2c5.6-0.2,12.7-1.8,17.1,2.6C625.3,567.3,624.8,572.5,622.3,577.2z"/>
</svg>
