<?xml version="1.0" encoding="utf-8"?>
<!-- Generator: Adobe Illustrator 24.0.2, SVG Export Plug-In . SVG Version: 6.00 Build 0)  -->
<svg version="1.1" id="Capa_1" xmlns="http://www.w3.org/2000/svg" xmlns:xlink="http://www.w3.org/1999/xlink" x="0px" y="0px"
	 viewBox="0 0 763.2 763.2" style="enable-background:new 0 0 763.2 763.2;" xml:space="preserve">
<style type="text/css">
	.st0{fill:#202020;}
</style>
<path class="st0" d="M734.3,377.8c-3.8-4.1-4.5-13.9-2.7-19.9c28.6-100.3-41-198.8-144.9-203.7c-11.5-0.6-15.7-5.6-19.9-15.1
	C531.9,60.6,438,41.8,374.5,99.8c-5.1,4.6-14.6,7.8-21.3,6.8C240.5,89.9,134,163.1,109.9,275.5c-2.7,12.7-6.8,18.7-20.3,22.4
	c-69.1,19-106.5,92.7-82.2,159.3C26,507.9,72,538.3,131.9,538.5c87.5,0.3,174.9,0.1,262.4,0.1h268.9c41.9-0.4,75-16.9,91.8-56.5
	C771.3,443.6,762.9,408.6,734.3,377.8z M730.2,464.7c-8.2,27.6-32.3,44-65.5,44c-179.3,0.1-358.6,0.1-537.8,0
	c-53.3,0-94.3-37.6-96.2-87.5c-2-53.4,34-94,88.6-97.8c14.8-1,14.5-10,15.7-19.8c9.9-77.8,51.7-131.6,125.4-157.2
	c67.8-23.5,131.3-10.7,184.9,37.2c54.2,48.3,72.3,110.1,58.1,181.2c-0.4,2.1-1.1,4.2-1.8,6.3c-2.7,10-4.6,20.7,8.4,24.3
	c13.9,3.8,18.7-6.8,20.3-17.6c4-26.8,6.9-53.8,10.7-83.9c3.2,0.4,9,0.5,14.5,2.1c55.1,15.5,86.5,72.5,70.5,127.6
	c-1.4,4.7-3.1,9.3-4.9,13.9c-3.6,9.5-2.4,19.2,7.9,21c5.6,1,15.9-4.9,18.5-10.4c15.5-32,16.5-65.4,3.7-98.6
	c-19.5-50.4-57-78.3-110-86.9c-5.6-0.9-13.2-6-15-10.9c-22.4-60-62.7-102.9-120.9-129.2c-1.9-0.9-3.5-2.1-6.9-4.3
	c24.9-22.7,53.1-27.2,82.7-19.1c34.5,9.4,56.1,32.9,63.1,68.4c2.8,14.2,6.8,18.2,23.5,16.5c83.9-8.5,151.8,64.8,138.7,147.9
	c-2.1,13.3-7,26.4-12.2,38.9c-3.9,9.2-3.4,14.1,5.8,19.9C728.7,408.5,739,435.2,730.2,464.7z"/>
<path class="st0" d="M211.1,589.4l-33.9,88.1c-2.2,5.3-7.3,8.5-12.7,8.5c-1.7,0-3.5-0.3-5.2-1c-7-2.8-10.4-10.8-7.5-17.8l33.9-88.1
	c2.2-5.3,7.3-8.5,12.7-8.5c1.7,0,3.5,0.3,5.2,1C210.6,574.4,213.9,582.4,211.1,589.4z"/>
<path class="st0" d="M598.4,589.4l-33.9,88.1c-2.2,5.3-7.3,8.5-12.7,8.5c-1.7,0-3.5-0.3-5.2-1c-7-2.8-10.4-10.8-7.5-17.8l33.9-88.1
	c2.2-5.3,7.3-8.5,12.7-8.5c1.7,0,3.5,0.3,5.2,1C597.9,574.4,601.3,582.4,598.4,589.4z"/>
<path class="st0" d="M410.6,589.4l-40.5,99.3c-2.2,5.3-7.3,8.5-12.7,8.5c-1.7,0-3.5-0.3-5.2-1c-7-2.9-10.3-10.9-7.5-17.9l40.6-99.3
	c2.2-5.3,7.3-8.5,12.7-8.5c1.7,0,3.5,0.3,5.2,1C410.2,574.4,413.5,582.4,410.6,589.4z"/>
<path class="st0" d="M308.4,589.4l-17.3,45.4c-2.2,5.3-7.3,8.5-12.7,8.5c-1.7,0-3.5-0.3-5.2-1c-7-2.9-10.3-10.9-7.5-17.9L283,579
	c2.2-5.3,7.3-8.5,12.7-8.5c1.7,0,3.5,0.3,5.2,1C307.9,574.4,311.3,582.4,308.4,589.4z"/>
<path class="st0" d="M508.6,589.4l-17.3,45.4c-2.2,5.3-7.3,8.5-12.7,8.5c-1.7,0-3.5-0.3-5.2-1c-7-2.9-10.3-10.9-7.5-17.9l17.3-45.4
	c2.2-5.3,7.3-8.5,12.7-8.5c1.7,0,3.5,0.3,5.2,1C508.1,574.4,511.4,582.4,508.6,589.4z"/>
</svg>
