<?xml version="1.0" encoding="utf-8"?>
<!-- Generator: Adobe Illustrator 24.0.2, SVG Export Plug-In . SVG Version: 6.00 Build 0)  -->
<svg version="1.1" id="Capa_1" xmlns="http://www.w3.org/2000/svg" xmlns:xlink="http://www.w3.org/1999/xlink" x="0px" y="0px"
	 viewBox="0 0 763.2 763.2" style="enable-background:new 0 0 763.2 763.2;" xml:space="preserve">
<style type="text/css">
	.st0{fill:#202020;}
</style>
<path class="st0" d="M211.1,589.4l-33.9,88.1c-2.2,5.3-7.3,8.5-12.7,8.5c-1.7,0-3.5-0.3-5.2-1c-7-2.8-10.4-10.8-7.5-17.8l33.9-88.1
	c2.2-5.3,7.3-8.5,12.7-8.5c1.7,0,3.5,0.3,5.2,1C210.6,574.4,213.9,582.4,211.1,589.4z M598.4,589.4l-33.9,88.1
	c-2.2,5.3-7.3,8.5-12.7,8.5c-1.7,0-3.5-0.3-5.2-1c-7-2.8-10.4-10.8-7.5-17.8l33.9-88.1c2.2-5.3,7.3-8.5,12.7-8.5
	c1.7,0,3.5,0.3,5.2,1C597.9,574.4,601.3,582.4,598.4,589.4z M410.6,589.4l-40.5,99.3c-2.2,5.3-7.3,8.5-12.7,8.5
	c-1.7,0-3.5-0.3-5.2-1c-7-2.9-10.3-10.9-7.5-17.9l40.6-99.3c2.2-5.3,7.3-8.5,12.7-8.5c1.7,0,3.5,0.3,5.2,1
	C410.2,574.4,413.5,582.4,410.6,589.4z M508.6,589.4l-17.3,45.4c-2.2,5.3-7.3,8.5-12.7,8.5c-1.7,0-3.5-0.3-5.2-1
	c-7-2.9-10.3-10.9-7.5-17.9l17.3-45.4c2.2-5.3,7.3-8.5,12.7-8.5c1.7,0,3.5,0.3,5.2,1C508.1,574.4,511.4,582.4,508.6,589.4z
	 M369.5,438.1c0-0.1,0.1-0.3,0.1-0.4c0.1-0.2,0.1-0.5,0.1-0.7s0.1-0.4,0.1-0.5c0-0.2,0-0.4,0.1-0.6c0-0.2,0-0.4,0-0.6
	c0-0.1,0-0.2,0-0.3c0-0.1,0-0.2,0-0.3c0-0.2,0-0.4,0-0.6s0-0.4-0.1-0.6c0-0.2,0-0.3-0.1-0.5c0-0.2-0.1-0.5-0.1-0.7
	c0-0.1-0.1-0.2-0.1-0.4c-0.1-0.3-0.2-0.5-0.2-0.8c0-0.1-0.1-0.2-0.1-0.3c-0.1-0.3-0.2-0.6-0.3-0.8c0-0.1-0.1-0.2-0.1-0.2
	c-0.1-0.3-0.3-0.5-0.4-0.8c-0.1-0.1-0.1-0.2-0.2-0.3c-0.1-0.2-0.3-0.5-0.5-0.7c-0.1-0.1-0.2-0.2-0.2-0.3c-0.2-0.2-0.3-0.4-0.5-0.6
	c-0.1-0.1-0.2-0.2-0.3-0.3c-0.2-0.2-0.3-0.3-0.5-0.5c-0.1-0.1-0.2-0.2-0.4-0.3c-0.2-0.2-0.3-0.3-0.5-0.4c-0.1-0.1-0.3-0.2-0.4-0.3
	c-0.2-0.1-0.4-0.3-0.6-0.4c-0.1-0.1-0.2-0.1-0.3-0.2c-0.2-0.1-0.5-0.3-0.7-0.4c-0.1,0-0.2-0.1-0.3-0.1c-0.3-0.1-0.6-0.3-0.9-0.4
	c0,0-0.1,0-0.1-0.1h-0.1c-0.3-0.1-0.6-0.2-0.9-0.3c-0.1,0-0.2-0.1-0.3-0.1c-0.3-0.1-0.5-0.1-0.8-0.2c-0.2,0-0.3-0.1-0.5-0.1
	s-0.4-0.1-0.7-0.1c-0.2,0-0.4,0-0.6,0c-0.1,0-0.2,0-0.3,0h-85.3l53-115.9c2.8-6.1,0.1-13.4-6-16.2c-6.1-2.8-13.4-0.1-16.2,6
	L242.4,430v0.1c-0.1,0.3-0.2,0.5-0.3,0.8c0,0.1-0.1,0.2-0.1,0.3c-0.1,0.3-0.2,0.5-0.2,0.8c0,0.1-0.1,0.3-0.1,0.4
	c0,0.2-0.1,0.4-0.1,0.7c0,0.2-0.1,0.4-0.1,0.6s0,0.4,0,0.6s0,0.4,0,0.7c0,0.1,0,0.1,0,0.2s0,0.3,0,0.4c0,0.2,0,0.4,0,0.6
	s0,0.5,0.1,0.7c0,0.2,0,0.3,0.1,0.5c0,0.3,0.1,0.5,0.2,0.8c0,0.1,0.1,0.2,0.1,0.4c0.1,0.3,0.2,0.5,0.3,0.8c0,0.1,0.1,0.2,0.1,0.3
	c0.1,0.3,0.2,0.5,0.3,0.8c0,0.1,0.1,0.2,0.1,0.3c0.1,0.2,0.3,0.5,0.4,0.7c0.1,0.1,0.1,0.2,0.2,0.3c0.1,0.2,0.3,0.4,0.4,0.6
	c0.1,0.1,0.2,0.3,0.3,0.4c0.1,0.2,0.3,0.4,0.4,0.5c0.1,0.1,0.2,0.3,0.4,0.4c0.2,0.2,0.3,0.3,0.5,0.5c0.1,0.1,0.3,0.2,0.4,0.4
	c0.2,0.2,0.4,0.3,0.5,0.4s0.2,0.2,0.4,0.3c0.2,0.2,0.5,0.3,0.7,0.4c0.1,0.1,0.2,0.1,0.3,0.2c0.3,0.2,0.6,0.3,0.9,0.4
	c0.1,0,0.1,0.1,0.2,0.1c0,0,0,0,0.1,0c0.3,0.1,0.6,0.3,0.9,0.4c0.1,0,0.2,0.1,0.2,0.1c0.3,0.1,0.6,0.2,0.9,0.2
	c0.1,0,0.2,0.1,0.3,0.1c0.2,0.1,0.5,0.1,0.7,0.1s0.3,0.1,0.5,0.1s0.4,0,0.6,0c0.2,0,0.4,0,0.6,0c0.1,0,0.1,0,0.2,0h86.9L282,607.1
	c-2.3,6.3,0.9,13.4,7.3,15.7c6.3,2.3,13.4-0.9,15.7-7.3l64.8-176.2c0-0.1,0-0.1,0.1-0.2C369.3,438.7,369.4,438.4,369.5,438.1z
	 M734.3,377.8c-3.8-4.1-4.5-13.9-2.7-19.9c28.6-100.3-41-198.8-144.9-203.7c-11.5-0.6-15.7-5.6-19.9-15.1
	C531.9,60.6,438,41.8,374.5,99.8c-5.1,4.6-14.6,7.8-21.3,6.8C240.5,89.9,134,163.1,109.9,275.5c-2.7,12.7-6.8,18.7-20.3,22.4
	c-69.1,19-106.5,92.7-82.2,159.3C26,507.9,72,538.3,131.9,538.5c43.5,0.1,87,0.2,130.6,0.1c8.3,0,15-6.7,15-15l0,0
	c0-8.3-6.7-15-15-15c-45.2,0-90.4,0-135.6,0c-53.3,0-94.3-37.6-96.2-87.5c-2-53.4,34-94,88.6-97.8c14.8-1,14.5-10,15.7-19.8
	c9.9-77.8,51.7-131.6,125.4-157.2c67.8-23.5,131.3-10.7,184.9,37.2c54.2,48.3,72.3,110.1,58.1,181.2c-0.4,2.1-1.1,4.2-1.8,6.3
	c-2.7,10-4.6,20.7,8.4,24.3c13.9,3.8,18.7-6.8,20.3-17.6c4-26.8,6.9-53.8,10.7-83.9c3.2,0.4,9,0.5,14.5,2.1
	c55.1,15.5,86.5,72.5,70.5,127.6c-1.4,4.7-3.1,9.3-4.9,13.9c-3.6,9.5-2.4,19.2,7.9,21c5.6,1,15.9-4.9,18.5-10.4
	c15.5-32,16.5-65.4,3.7-98.6c-19.5-50.4-57-78.3-110-86.9c-5.6-0.9-13.2-6-15-10.9c-22.4-60-62.7-102.9-120.9-129.2
	c-1.9-0.9-3.5-2.1-6.9-4.3c24.9-22.7,53.1-27.2,82.7-19.1c34.5,9.4,56.1,32.9,63.1,68.4c2.8,14.2,6.8,18.2,23.5,16.5
	c83.9-8.5,151.8,64.8,138.7,147.9c-2.1,13.3-7,26.4-12.2,38.9c-3.9,9.2-3.4,14.1,5.8,19.9c28.6,18,38.9,44.6,30.2,74.1
	c-8.2,27.6-32.3,44-65.5,44c-94,0-187.9,0.1-281.8,0.1c-8.3,0-14.9,6.7-14.9,14.9l0,0c0,8.3,6.7,14.9,15,14.9c3.8,0,7.6,0,11.4,0
	h268.9c41.9-0.4,75-16.9,91.8-56.5C771.3,443.6,762.9,408.6,734.3,377.8z"/>
</svg>
