<?xml version="1.0" encoding="utf-8"?>
<!-- Generator: Adobe Illustrator 24.0.2, SVG Export Plug-In . SVG Version: 6.00 Build 0)  -->
<svg version="1.1" id="Capa_1" xmlns="http://www.w3.org/2000/svg" xmlns:xlink="http://www.w3.org/1999/xlink" x="0px" y="0px"
	 viewBox="0 0 763.2 763.2" style="enable-background:new 0 0 763.2 763.2;" xml:space="preserve">
<style type="text/css">
	.st0{fill:#202020;}
</style>
<path class="st0" d="M403.3,150.3c27.5,21.9,56.4,40.2,79.2,64.4c17.8,18.9,28.9,44.5,41.3,68c4.9,9.3,9.7,14.4,20.1,16
	c66,10.3,112,58.8,115.3,125c1,19.4-6.4,39.4-11.1,58.8c-2.3,9.6-9.9,15.1-20.1,11.1c-10.3-4.1-10.9-12.9-7.2-22
	c9.5-23,11.6-46.4,4.8-70.5c-11.4-40.7-49.3-72.1-89.4-71.9c0,17.7,0.8,35.5-0.3,53.2c-0.7,11.3-3.8,22.6-6.6,33.6
	c-2.5,9.9-8.3,17.8-19.8,14.5c-11.3-3.2-12-12.3-9.1-22.6c12.7-46.2,8.6-90.9-12.7-133.8C450.9,200,370.9,159.7,288.4,173.3
	c-79.3,13-142.4,77.8-152.2,158.9c-2.6,21.2-14.1,24.4-31.1,27.1c-42.1,6.6-73.6,40.2-77,80.1c-3.9,46.2,19.6,84.5,61.5,98.9
	c9.2,3.2,19.1,4.8,28.8,5.8c10.4,1.1,19.2,3.8,18.1,16c-1.1,12.4-11,13-20.8,12.9C56.4,572.7,2.4,519,0.1,458.3
	c-2.3-60,33.5-109.5,91.8-125.8c10.4-2.9,14.9-7.2,17-18.2c18.6-98.7,106.3-171.9,206.6-172.9c14.2-0.1,28.3,1.8,42.5,1.5
	c5.3-0.1,12-2.2,15.4-5.8c56.4-59.4,160.7-41.8,194,39c4.2,10.1,10.9,11.6,20.2,12.8c76.9,9.7,128.5,52.8,146.1,121.2
	c7.3,28.3,6.4,56.4-2.8,83.9c-3.2,9.7-1.5,15.6,5.4,23c27.3,29.1,34.1,63.4,18.6,100c-15.8,37.2-45.4,56.2-86.3,56.3
	c-7.1,0-14.2-0.1-21.3,0c-10.1,0.1-20-2-20.2-13.9c-0.2-13.2,10.3-14.5,20.9-14.8c11.4-0.3,23-0.4,34.2-2.5
	c24.9-4.7,41.4-20.4,47.3-44.6c6.2-25.1,0.8-48.8-21.1-64.5c-15-10.7-16.2-20.7-10-37.3c33.8-90.4-29.4-179-126-176.7
	c-18.3,0.4-25.6-5.5-30.3-23.2c-15.9-58.4-85-83.3-134.1-49.6C405.5,147.9,403.3,150.3,403.3,150.3z M367.9,558.9
	c0-3.8-0.9-6.7-2.5-8.8c-4.3-6.7-14.5-6-23.2-6.1c-12-0.1-23.9,0-35.9,0c-0.7-1.7-1.3-3.4-2-5.1c5.6-5.2,11.3-10.5,16.9-15.7
	c4-3.6,8.1-7.2,12-10.9c5-4.7,8.9-9.9,8.6-15.5c0-2.2-0.6-4.3-2.1-6.2c-0.8-1.2-1.8-2.4-3-3.7c-9.1-8.9-16.8-2.8-23.9,4.2
	c-9,8.8-18,17.6-28.6,28c-1.1-0.7-2.1-1.3-3.2-2c0-11.4,0.2-22.8-0.1-34.2c-0.2-8.7,0.4-19-6.3-23.6c-2-1.7-4.8-2.7-8.7-2.7
	c-3.7-0.1-6.5,0.7-8.5,2c-7.5,4-6.8,14.6-6.9,23.6c-0.1,12,0,23.9,0,35.9c-1.4,0.5-2.8,1.1-4.2,1.6c-8.3-8.5-15.1-15.5-21.6-22.1
	c-2-2.2-3.9-4.4-5.9-6.5c-4.5-4.8-9.5-8.6-14.8-8.6l0,0c-0.4,0-0.8,0-1.2,0.1c-0.2,0-0.3,0-0.5,0c-0.5,0.1-1,0.2-1.5,0.3
	c0,0,0,0-0.1,0c-2.4,0.7-4.8,2.1-7.2,4.6c-5.7,5.8-5.2,11.1-2.4,15.9c1.7,3.3,4.6,6.4,7.5,9.4c9.2,9.3,18.4,18.6,30.6,31
	c-18.4,0-31.5,0-44.5,0c-5.5,0-11,0.5-15,2.7c-3.8,1.9-6.5,5.4-6.6,11.7c-0.1,4.6,1.1,7.7,3.1,9.9c3.8,4.8,10.9,5.8,17.9,6
	c13.4,0.4,26.8,0.1,40.2,0.1c0.6,1.2,1.3,2.5,1.9,3.7c-11.1,10.8-19.6,19.1-28,27.4c-7.5,7.3-14.1,15.6-4,25
	c6.8,6.4,12.9,5.1,18.5,1.2c2.5-1.7,4.9-3.9,7.2-6.2c9.2-9.2,18.5-18.3,30.7-30.4c0,18.4,0,31.4,0,44.5c0,6.4,0.6,12.6,3.9,16.7
	c0.1,0.1,0.2,0.2,0.3,0.3c0,0.1,0.1,0.1,0.1,0.2c2.2,2.7,5.5,4.3,10.6,4.3c4.9,0,8.2-1.5,10.4-4c0.1-0.1,0.2-0.2,0.3-0.3
	c0.1-0.1,0.2-0.2,0.3-0.3c3.4-4,4.2-10.2,4.4-16.3c0.4-13.4,0.1-26.8,0.1-40.2c1.5-0.8,3-1.5,4.5-2.3c9.7,10.4,19.2,21,29.3,31.1
	c6.7,6.8,15.9,9.5,21.7,1.7c0.2-0.2,0.4-0.3,0.6-0.5c8.9-9.6,2.5-18-4.8-25.5c-8.2-8.3-16.4-16.6-26.7-27c0.6-1,1.2-2,1.9-3
	c11.4,0,22.8,0.2,34.2-0.1c9.3-0.3,20.4,0.5,24.5-7.8C367.2,564.7,367.8,562.2,367.9,558.9z M599.2,558.9c0-3.8-0.9-6.7-2.5-8.8
	c-4.3-6.7-14.5-6-23.2-6.1c-12-0.1-23.9,0-35.9,0c-0.7-1.7-1.3-3.4-2-5.1c5.6-5.2,11.3-10.5,16.9-15.7c4-3.6,8.1-7.2,12-10.9
	c5-4.7,8.9-9.9,8.6-15.5c0-2.2-0.6-4.3-2.1-6.2c-0.8-1.2-1.8-2.4-3-3.7c-9.1-8.9-16.8-2.8-23.9,4.2c-9,8.8-18,17.6-28.6,28
	c-1.1-0.7-2.1-1.3-3.2-2c0-11.4,0.2-22.8-0.1-34.2c-0.2-8.7,0.4-19-6.3-23.6c-2-1.7-4.8-2.7-8.7-2.7c-3.7-0.1-6.5,0.7-8.5,2
	c-7.5,4-6.8,14.6-6.9,23.6c-0.1,12,0,23.9,0,35.9c-1.4,0.5-2.8,1.1-4.2,1.6c-8.3-8.5-15.1-15.5-21.6-22.1c-2-2.2-3.9-4.4-5.9-6.5
	c-4.5-4.8-9.5-8.6-14.8-8.6l0,0c-0.4,0-0.8,0-1.2,0.1c-0.2,0-0.3,0-0.5,0c-0.5,0.1-1,0.2-1.5,0.3c0,0,0,0-0.1,0
	c-2.4,0.7-4.8,2.1-7.2,4.6c-5.7,5.8-5.2,11.1-2.4,15.9c1.7,3.3,4.6,6.4,7.5,9.4c9.2,9.3,18.4,18.6,30.6,31c-18.4,0-31.5,0-44.5,0
	c-5.5,0-11,0.5-15,2.7c-3.8,1.9-6.5,5.4-6.6,11.7c-0.1,4.6,1.1,7.7,3.1,9.9c3.8,4.8,10.9,5.8,17.9,6c13.4,0.4,26.8,0.1,40.2,0.1
	c0.6,1.2,1.3,2.5,1.9,3.7c-11.1,10.8-19.6,19.1-28,27.4c-7.5,7.3-14.1,15.6-4,25c6.8,6.4,12.9,5.1,18.5,1.2c2.5-1.7,4.9-3.9,7.2-6.2
	c9.2-9.2,18.5-18.3,30.7-30.4c0,18.4,0,31.4,0,44.5c0,6.4,0.6,12.6,3.9,16.7c0.1,0.1,0.2,0.2,0.3,0.3c0,0.1,0.1,0.1,0.1,0.2
	c2.2,2.7,5.5,4.3,10.6,4.3c4.9,0,8.2-1.5,10.4-4c0.1-0.1,0.2-0.2,0.3-0.3c0.1-0.1,0.2-0.2,0.3-0.3c3.4-4,4.2-10.2,4.4-16.3
	c0.4-13.4,0.1-26.8,0.1-40.2c1.5-0.8,3-1.5,4.5-2.3c9.7,10.4,19.2,21,29.3,31.1c6.7,6.8,15.9,9.5,21.7,1.7c0.2-0.2,0.4-0.3,0.6-0.5
	c8.9-9.6,2.5-18-4.8-25.5c-8.2-8.3-16.4-16.6-26.7-27c0.6-1,1.2-2,1.9-3c11.4,0,22.8,0.2,34.2-0.1c9.3-0.3,20.4,0.5,24.5-7.8
	C598.5,564.7,599.2,562.2,599.2,558.9z"/>
</svg>
