<?xml version="1.0" encoding="utf-8"?>
<!-- Generator: Adobe Illustrator 24.0.2, SVG Export Plug-In . SVG Version: 6.00 Build 0)  -->
<svg version="1.1" id="Capa_1" xmlns="http://www.w3.org/2000/svg" xmlns:xlink="http://www.w3.org/1999/xlink" x="0px" y="0px"
	 viewBox="0 0 763.2 763.2" style="enable-background:new 0 0 763.2 763.2;" xml:space="preserve">
<style type="text/css">
	.st0{fill:#F5F5F5;}
</style>
<path class="st0" d="M669.5,535.5c-3.6-6.4-14-10.9-24.4-9.5c-13.5,1.7-17.5,3.1-23.9,4.3c-106.9,19.2-208.2-40.7-241-142.7
	c-32.8-102.2,14.2-209.2,111.6-258.2c0.2,0,0.2-0.2,0.3-0.2c22.4-11.6,20.6-44.5-2.3-55.2c-1.2-0.7-2.4-1-3.5-1.3
	c-97.8-32.6-206,0.3-282.5,65.5c-18.5,15.8-35.3,33.5-50.1,52.8c-65.1,85.8-79.3,201.2-44.4,302.2c17.2,49.9,46.2,95.8,85.3,131.5
	c106.3,97,271.9,103.1,390.6,24.8c32.4-21.4,60.7-48.9,82.3-81.3C673.1,559.9,673.9,543.9,669.5,535.5z M605.9,576.5
	c-1.2,1.3-2.3,2.5-3.5,3.8c-185.7,161.5-468.3,25.2-460.9-207.7c0.2-5.9-0.1-11.9,0.3-17.8c7.9-128.4,136.9-248.1,265.1-241.6
	c2.3,0,4.6,1.9,7.3,3.1C220.2,289.8,349.8,595.2,605.7,576c0.2,0,0.2,0.1,0.3,0.1C606.1,576.2,606,576.3,605.9,576.5z"/>
</svg>
